<svg width="310" height="70" fill="none" xmlns="http://www.w3.org/2000/svg"><g opacity=".99"><path d="M134.669 2.836H94.516v40.153h40.153V2.836ZM178.176 2.836h-40.153v40.153h40.153V2.836ZM221.668 2.836h-40.152v40.153h40.152V2.836ZM265.169 2.836h-40.153v40.153h40.153V2.836Z" fill="#00B67A"/><path d="M308.67 2.836h-20.076v40.153h20.076V2.836Z" fill="#DCDCE6"/><path d="M288.592 2.836h-20.076v40.153h20.076V2.836Z" fill="#00B67A"/><path d="m114.592 29.897 6.107-1.548 2.552 7.864-8.659-6.316Zm14.054-10.164h-10.749l-3.305-10.122-3.304 10.122h-10.749l8.7 6.274-3.304 10.122 8.699-6.274 5.354-3.848 8.658-6.274ZM158.093 29.897l6.106-1.548 2.552 7.864-8.658-6.316Zm14.053-10.164h-10.749l-3.304-10.122-3.305 10.122h-10.749l8.7 6.274-3.304 10.122 8.699-6.274 5.354-3.848 8.658-6.274ZM201.592 29.897l6.107-1.548 2.552 7.864-8.659-6.316Zm14.054-10.164h-10.749l-3.305-10.122-3.304 10.122h-10.749l8.7 6.274-3.304 10.122 8.699-6.274 5.354-3.848 8.658-6.274ZM245.092 29.897l6.107-1.548 2.551 7.864-8.658-6.316Zm14.054-10.164h-10.75l-3.304-10.122-3.304 10.122h-10.749l8.7 6.274-3.305 10.122 8.7-6.274 5.354-3.848 8.658-6.274ZM288.592 29.897l6.107-1.548 2.552 7.864-8.659-6.316Zm14.054-10.164h-10.749l-3.305-10.122-3.304 10.122h-10.749l8.7 6.274-3.304 10.122 8.699-6.274 5.354-3.848 8.658-6.274Z" fill="#fff"/><path d="M97.724 54.336h1.952c1.139 0 1.853.684 1.853 1.747 0 1.086-.676 1.747-1.83 1.747h-1.975v-3.494Zm0 5.158h1.838l2.043 4.01h2.598l-2.309-4.353c1.261-.493 1.99-1.708 1.99-3.113 0-2.165-1.443-3.495-3.966-3.495H95.43v10.96h2.294v-4.01Zm10.58 2.536c-.752 0-1.253-.38-1.253-.987 0-.577.471-.95 1.299-1.01l1.716-.106v.592c0 .88-.797 1.511-1.762 1.511Zm-.729 1.603c1.018 0 2.028-.509 2.484-1.375h.045v1.246h2.142v-5.598c0-1.64-1.359-2.72-3.448-2.72-2.157 0-3.502 1.087-3.585 2.667h2.028c.106-.6.63-1.01 1.458-1.01.835 0 1.367.44 1.367 1.2v.54l-2.05.12c-2.029.122-3.168.98-3.168 2.461 0 1.466 1.178 2.469 2.727 2.469Zm6.699-10.147v1.876h-1.147v1.67h1.147v4.277c0 1.587.744 2.226 2.659 2.226.448 0 .828-.039 1.055-.092V61.81a3.577 3.577 0 0 1-.539.038c-.653 0-.957-.296-.957-.92v-3.895h1.504v-1.671h-1.504v-1.876h-2.218Zm8.469 3.341c.987 0 1.664.714 1.709 1.755h-3.456c.076-1.018.775-1.755 1.747-1.755Zm1.739 4.185c-.205.624-.827 1.026-1.64 1.026-1.132 0-1.869-.797-1.869-1.96v-.136h5.613v-.676c0-2.476-1.496-4.08-3.866-4.08-2.408 0-3.926 1.687-3.926 4.285 0 2.605 1.503 4.208 4.01 4.208 2.013 0 3.471-1.071 3.714-2.667h-2.036Zm6.274 2.621c1.201 0 2.142-.63 2.537-1.527h.038v1.398h2.188v-10.96h-2.218v4.215h-.046c-.394-.904-1.306-1.527-2.484-1.527-2.043 0-3.334 1.603-3.334 4.185 0 2.606 1.284 4.216 3.319 4.216Zm.752-6.623c1.102 0 1.808.942 1.808 2.422 0 1.49-.706 2.416-1.808 2.416-1.116 0-1.8-.92-1.8-2.416 0-1.488.684-2.422 1.8-2.422Zm16.027 4.595h-4.968V58.84h4.687v-1.762h-4.687v-2.643h4.968v-1.892h-7.261v10.96h7.261v-1.898Zm4.816-.926 1.549 2.825h2.407l-2.521-4.117 2.544-4.025h-2.415l-1.443 2.75h-.046l-1.466-2.75h-2.498l2.536 4.086-2.552 4.056h2.332l1.527-2.825h.046Zm12.038-2.287c-.098-1.846-1.496-3.205-3.699-3.205-2.438 0-3.995 1.625-3.995 4.238 0 2.659 1.557 4.254 4.01 4.254 2.142 0 3.578-1.239 3.692-3.16h-2.066c-.137.889-.714 1.42-1.603 1.42-1.101 0-1.785-.911-1.785-2.514 0-1.572.684-2.5 1.778-2.5.911 0 1.481.609 1.61 1.467h2.058Zm4.732-1.565c.988 0 1.663.714 1.709 1.755h-3.456c.076-1.018.775-1.755 1.747-1.755Zm1.74 4.185c-.206.624-.828 1.026-1.641 1.026-1.132 0-1.869-.797-1.869-1.96v-.136h5.613v-.676c0-2.476-1.496-4.08-3.866-4.08-2.407 0-3.927 1.687-3.927 4.285 0 2.605 1.505 4.208 4.011 4.208 2.013 0 3.471-1.071 3.714-2.667h-2.035Zm3.304 2.492h2.217v-10.96h-2.217v10.96Zm3.767 0h2.218v-10.96h-2.218v10.96Zm7.367-6.677c.988 0 1.664.714 1.709 1.755h-3.456c.077-1.018.775-1.755 1.747-1.755Zm1.74 4.185c-.205.624-.828 1.026-1.641 1.026-1.132 0-1.868-.797-1.868-1.96v-.136h5.613v-.676c0-2.476-1.496-4.08-3.866-4.08-2.408 0-3.927 1.687-3.927 4.285 0 2.605 1.504 4.208 4.011 4.208 2.012 0 3.47-1.071 3.714-2.667h-2.036Zm3.251 2.492h2.218v-4.671c0-1.056.63-1.785 1.625-1.785s1.496.608 1.496 1.671v4.785h2.218v-5.249c0-1.906-1.017-3.045-2.825-3.045-1.254 0-2.112.592-2.545 1.602h-.045v-1.45h-2.142v8.142Zm9.555-10.018v1.876h-1.147v1.67h1.147v4.277c0 1.587.744 2.226 2.658 2.226a5.12 5.12 0 0 0 1.056-.092V61.81a3.577 3.577 0 0 1-.539.038c-.653 0-.957-.296-.957-.92v-3.895h1.504v-1.671h-1.504v-1.876h-2.218Zm10.793 8.165c1.481 0 2.712-1.224 2.712-2.704a2.734 2.734 0 0 0-2.712-2.712c-1.481 0-2.704 1.23-2.704 2.712a2.72 2.72 0 0 0 2.704 2.704Zm12.578 1.853h2.18V61.49h1.443v-1.83h-1.443v-7.118h-3.236c-2.248 3.304-3.44 5.219-4.397 7.034v1.914h5.453v2.013Zm-3.456-3.843c.874-1.633 1.869-3.19 3.456-5.477h.046v5.537h-3.502v-.06Zm9.692 3.934c.676 0 1.223-.547 1.223-1.223 0-.684-.547-1.223-1.223-1.223-.684 0-1.223.54-1.223 1.223 0 .676.539 1.223 1.223 1.223Zm6.912.152c2.848 0 4.572-2.188 4.572-5.818 0-4.003-2.157-5.636-4.572-5.636-2.446 0-4.223 1.618-4.223 3.889 0 2.134 1.602 3.577 3.638 3.577 1.436 0 2.522-.714 2.917-1.777h.045c.016 2.355-.721 3.95-2.369 3.95-.919 0-1.596-.418-1.838-1.2h-2.264c.289 1.777 1.944 3.015 4.094 3.015Zm.008-5.69c-1.147 0-1.998-.82-1.998-1.966 0-1.11.889-1.968 2.021-1.968 1.123 0 2.012.874 2.012 2.006 0 1.124-.881 1.929-2.035 1.929Zm7.261 7.802 3.889-13.316h-2.043l-3.897 13.316h2.051Zm8.872-2.112c2.513 0 4.238-1.572 4.238-3.889 0-2.089-1.497-3.593-3.585-3.593-1.109 0-2.013.448-2.469 1.185h-.045l.266-3.084h5.172v-1.823h-6.996l-.501 6.434h1.998c.372-.66 1.056-1.071 1.937-1.071 1.2 0 2.035.828 2.035 2.005 0 1.193-.835 2.02-2.043 2.02-1.056 0-1.868-.622-1.998-1.571h-2.119c.061 1.99 1.762 3.387 4.11 3.387Zm8.408-5.993c0 1.223.797 2.013 2.369 2.347l1.391.289c.797.182 1.078.425 1.078.858 0 .532-.516.873-1.352.873-.881 0-1.39-.38-1.527-1.093h-2.165c.145 1.602 1.444 2.65 3.692 2.65 2.096 0 3.562-1.055 3.562-2.658 0-1.192-.698-1.86-2.4-2.218l-1.39-.296c-.82-.175-1.124-.456-1.124-.873 0-.54.509-.89 1.276-.89.82 0 1.314.449 1.383 1.11h2.042c-.045-1.595-1.336-2.666-3.425-2.666-2.073 0-3.41 1.018-3.41 2.567Zm8.734-4.268v1.876H268.5v1.67h1.147v4.277c0 1.587.745 2.226 2.659 2.226.448 0 .828-.039 1.055-.092V61.81a3.567 3.567 0 0 1-.539.038c-.653 0-.956-.296-.956-.92v-3.895h1.503v-1.671h-1.503v-1.876h-2.219Zm8.006 8.544c-.752 0-1.253-.38-1.253-.987 0-.577.471-.95 1.299-1.01l1.716-.106v.592c0 .88-.797 1.511-1.762 1.511Zm-.729 1.603c1.017 0 2.028-.509 2.484-1.375h.045v1.246h2.142v-5.598c0-1.64-1.36-2.72-3.448-2.72-2.157 0-3.502 1.087-3.585 2.667h2.028c.106-.6.63-1.01 1.458-1.01.836 0 1.367.44 1.367 1.2v.54l-2.051.12c-2.028.122-3.167.98-3.167 2.461 0 1.466 1.177 2.469 2.727 2.469Zm6.107-.13h2.217v-4.549c0-1.147.639-1.815 1.732-1.815.319 0 .623.053.806.13v-1.953a2.265 2.265 0 0 0-.631-.084c-.957 0-1.648.563-1.937 1.595h-.045v-1.465h-2.142v8.142Zm5.529-5.749c0 1.223.798 2.013 2.37 2.347l1.39.289c.798.182 1.079.425 1.079.858 0 .532-.517.873-1.352.873-.882 0-1.39-.38-1.527-1.093h-2.165c.145 1.602 1.443 2.65 3.692 2.65 2.096 0 3.562-1.055 3.562-2.658 0-1.192-.699-1.86-2.4-2.218l-1.39-.296c-.821-.175-1.125-.456-1.125-.873 0-.54.51-.89 1.277-.89.82 0 1.313.449 1.382 1.11h2.043c-.045-1.595-1.337-2.666-3.425-2.666-2.074 0-3.411 1.018-3.411 2.567Z" fill="#EDF0F5"/><path d="M70.882 25.761H43.815L35.455 0l-8.387 25.761L0 25.735l21.92 15.938-8.386 25.734 21.92-15.91 21.895 15.91-8.361-25.734L70.882 25.76Z" fill="#00B67A"/><path d="m50.868 47.498-1.881-5.826-13.534 9.824 15.415-3.998Z" fill="#005128"/></g></svg>