<svg width="172" height="47" fill="none" xmlns="http://www.w3.org/2000/svg"><g clip-path="url(#a)"><path fill-rule="evenodd" clip-rule="evenodd" d="m7.072.628 31.25 18.933h-.014a4.269 4.269 0 0 1 2.063 3.624 4.268 4.268 0 0 1-2.02 3.647L20.807 37.748a4.337 4.337 0 0 1-4.394.263 4.274 4.274 0 0 1-2.334-3.704 4.27 4.27 0 0 1 2.16-3.806l3.511-2.182 8.137-5.062-3.38-2.047-.054-.034-10.222-6.193-5.094-3.086v14.246a4.27 4.27 0 0 1-2.127 3.782 4.337 4.337 0 0 1-4.363 0A4.27 4.27 0 0 1 .52 26.143V4.277A4.268 4.268 0 0 1 2.72.547a4.333 4.333 0 0 1 4.353.08ZM.782 40.272a4.52 4.52 0 0 1 4.175-2.77c2.494.002 4.515 2.008 4.519 4.484 0 1.814-1.1 3.45-2.789 4.145a4.544 4.544 0 0 1-4.925-.97 4.461 4.461 0 0 1-.98-4.89Zm95.04-17.037c.025-6.12 5.041-11.063 11.206-11.044 6.167.019 11.152 4.993 11.138 11.114-.014 6.12-5.022 11.072-11.188 11.063a11.208 11.208 0 0 1-7.906-3.268 11.041 11.041 0 0 1-3.25-7.865Zm18.214 0c-.042-3.85-3.211-6.941-7.089-6.917-3.879.025-7.007 3.157-6.999 7.006.009 3.85 3.151 6.969 7.03 6.977a7.11 7.11 0 0 0 5.004-2.081 7.007 7.007 0 0 0 2.052-4.985h.002Zm-57.56-10.824a1.935 1.935 0 0 0-1.943 1.917v17.698c0 1.127.92 2.04 2.055 2.04h.05a2.047 2.047 0 0 0 2.053-2.04v-4.12h4.598c4.548 0 7.897-3.442 7.897-7.747s-3.348-7.748-7.865-7.748h-6.846Zm2.215 11.657V16.23h4.332c2.363 0 3.977 1.751 3.977 3.919s-1.614 3.919-3.977 3.919h-4.332ZM77.349 12.41a1.937 1.937 0 0 0-1.944 1.917v17.698c0 1.127.92 2.04 2.055 2.04h.05a2.047 2.047 0 0 0 2.054-2.04v-4.47h4.92l2.807 5.425a2.055 2.055 0 0 0 1.825 1.107c.726 0 1.4-.38 1.77-1 .37-.62.381-1.39.03-2.02L88.28 26.31c2.374-1.277 3.63-3.711 3.63-6.293 0-4.548-2.983-7.606-8.226-7.606h-6.336Zm2.215 11.33V16.26h3.756c3.122 0 4.437 1.395 4.437 3.563 0 2.167-1.057 3.919-4.437 3.919h-3.756Zm47.919-10.493a2.059 2.059 0 0 0-1.664-.837c-1.694 0-3.071 1.36-3.077 3.042v16.573c0 .541.216 1.06.602 1.442.385.383.908.598 1.453.598h.05a2.047 2.047 0 0 0 2.053-2.04v-12.89l5.12 6.885a1.708 1.708 0 0 0 2.742 0l5.207-6.971v12.976c0 1.126.918 2.039 2.053 2.04h.05a2.047 2.047 0 0 0 2.055-2.04V15.001c0-.687-.275-1.346-.764-1.832a2.62 2.62 0 0 0-1.846-.758 2.612 2.612 0 0 0-2.09 1.023l-6.007 7.984-5.937-8.17Zm21.226 9.987c.025-6.119 5.04-11.06 11.205-11.04 6.164.02 11.147 4.992 11.134 11.11-.014 6.12-5.019 11.07-11.184 11.063a11.214 11.214 0 0 1-7.906-3.268 11.042 11.042 0 0 1-3.249-7.865Zm18.213 0c-.04-3.85-3.209-6.941-7.088-6.917-3.878.025-7.007 3.157-6.999 7.006.008 3.85 3.151 6.969 7.029 6.977a7.11 7.11 0 0 0 5.005-2.081 7.004 7.004 0 0 0 2.053-4.985Z" fill="#204242"/></g><defs><clipPath id="a"><path fill="#fff" d="M0 0h171.316v46.474H0z"/></clipPath></defs></svg>