<svg width="127" height="40" fill="none" xmlns="http://www.w3.org/2000/svg"><g clip-path="url(#a)"><mask id="b" style="mask-type:luminance" maskUnits="userSpaceOnUse" x="0" y="0" width="126" height="40"><path d="M125.899.914H.586v38.83h125.313V.914Z" fill="#fff"/></mask><g mask="url(#b)"><path d="M66.632 10.67a2.53 2.53 0 0 1-2.544 2.527 2.53 2.53 0 0 1-2.545-2.527c0-1.4 1.096-2.526 2.545-2.526 1.448.038 2.544 1.166 2.544 2.526ZM56.14 15.762v.622s-1.213-1.555-3.797-1.555c-4.267 0-7.595 3.226-7.595 7.696 0 4.431 3.289 7.696 7.595 7.696 2.623 0 3.797-1.594 3.797-1.594v.661c0 .311.235.544.549.544h3.17V15.218h-3.17a.558.558 0 0 0-.548.544Zm0 9.367c-.587.855-1.761 1.594-3.17 1.594-2.506 0-4.424-1.555-4.424-4.198 0-2.643 1.918-4.198 4.423-4.198 1.37 0 2.623.778 3.172 1.594v5.208Zm6.069-9.911h3.758v14.614h-3.758V15.218Zm56.138-.389c-2.584 0-3.797 1.555-3.797 1.555V8.182h-3.758v21.65h3.17a.559.559 0 0 0 .549-.544v-.66s1.213 1.593 3.797 1.593c4.267 0 7.594-3.265 7.594-7.696 0-4.431-3.327-7.696-7.555-7.696Zm-.626 11.855c-1.449 0-2.584-.739-3.171-1.594v-5.208c.587-.777 1.84-1.594 3.171-1.594 2.505 0 4.423 1.555 4.423 4.198 0 2.643-1.918 4.198-4.423 4.198Zm-8.887-5.52v8.707h-3.758v-8.279c0-2.41-.783-3.381-2.897-3.381-1.136 0-2.31.583-3.054 1.438v10.183h-3.758V15.218h2.975c.313 0 .549.272.549.544v.622c1.096-1.127 2.544-1.555 3.993-1.555 1.644 0 3.014.466 4.11 1.4 1.331 1.088 1.84 2.487 1.84 4.936ZM86.246 14.83c-2.584 0-3.798 1.555-3.798 1.555V8.182H78.69v21.65h3.171a.558.558 0 0 0 .548-.544v-.66s1.213 1.593 3.797 1.593c4.268 0 7.595-3.265 7.595-7.696.04-4.431-3.288-7.696-7.555-7.696Zm-.627 11.855c-1.448 0-2.584-.739-3.17-1.594v-5.208c.586-.777 1.84-1.594 3.17-1.594 2.506 0 4.424 1.555 4.424 4.198 0 2.643-1.918 4.198-4.424 4.198ZM75.441 14.829c1.135 0 1.722.194 1.722.194v3.46s-3.132-1.05-5.09 1.166V29.87h-3.757V15.218h3.17c.314 0 .549.272.549.544v.622c.704-.816 2.231-1.555 3.406-1.555ZM36.41 28.511c-.196-.467-.392-.972-.587-1.4-.314-.7-.627-1.36-.9-1.982l-.04-.039a404.618 404.618 0 0 0-8.652-17.568l-.117-.233c-.313-.584-.627-1.205-.94-1.827-.391-.7-.783-1.438-1.41-2.138-1.252-1.555-3.053-2.41-4.97-2.41-1.958 0-3.72.855-5.012 2.332-.587.7-1.018 1.438-1.41 2.138-.312.622-.626 1.244-.939 1.827l-.117.233c-3.015 5.83-5.95 11.738-8.652 17.569l-.04.077c-.273.622-.586 1.283-.9 1.983-.195.427-.391.894-.587 1.399C.628 29.91.472 31.27.667 32.67a8.271 8.271 0 0 0 5.09 6.452 8.089 8.089 0 0 0 3.17.622c.314 0 .705-.04 1.019-.078a10.395 10.395 0 0 0 3.915-1.321c1.604-.895 3.131-2.177 4.854-4.043 1.722 1.866 3.288 3.148 4.854 4.043a10.394 10.394 0 0 0 3.915 1.321c.313.039.705.078 1.018.078 1.096 0 2.192-.194 3.17-.622 2.741-1.088 4.66-3.576 5.09-6.452.313-1.36.157-2.721-.352-4.16Zm-17.656 2.02c-2.114-2.642-3.484-5.13-3.954-7.229-.196-.894-.235-1.67-.118-2.37a3.755 3.755 0 0 1 .627-1.633c.744-1.05 1.996-1.71 3.445-1.71 1.448 0 2.74.622 3.445 1.71.313.466.548 1.01.626 1.632.118.7.079 1.516-.117 2.371-.47 2.06-1.84 4.548-3.954 7.23Zm15.62 1.828c-.274 2.021-1.644 3.77-3.562 4.547-.94.39-1.958.506-2.976.39-.978-.117-1.957-.428-2.975-1.011-1.41-.778-2.819-1.983-4.463-3.77 2.584-3.15 4.15-6.025 4.737-8.59a9.673 9.673 0 0 0 .196-3.305 6.282 6.282 0 0 0-1.057-2.643c-1.214-1.749-3.25-2.76-5.52-2.76-2.27 0-4.306 1.05-5.52 2.76a6.28 6.28 0 0 0-1.057 2.643 8.016 8.016 0 0 0 .196 3.304c.587 2.566 2.192 5.48 4.737 8.63-1.605 1.787-3.054 2.992-4.463 3.77-1.018.582-1.997.893-2.975 1.01a6.305 6.305 0 0 1-2.976-.389c-1.918-.777-3.288-2.526-3.562-4.547a6.391 6.391 0 0 1 .352-3.032c.118-.389.313-.777.51-1.244.273-.622.586-1.282.9-1.943l.039-.078a423.547 423.547 0 0 1 8.612-17.452l.118-.233c.313-.583.626-1.205.94-1.788.312-.622.665-1.205 1.095-1.71.823-.933 1.919-1.439 3.132-1.439 1.214 0 2.31.506 3.132 1.439.43.505.783 1.088 1.096 1.71.313.583.627 1.205.94 1.788l.117.233a514.276 514.276 0 0 1 8.574 17.49v.04c.313.622.587 1.321.9 1.943.196.466.392.855.51 1.244.312 1.01.43 1.982.273 2.993Z" fill="#204242"/></g></g><defs><clipPath id="a"><path fill="#fff" transform="translate(.586 .916)" d="M0 0h125.931v38.83H0z"/></clipPath></defs></svg>