<svg width="165" height="47" fill="none" xmlns="http://www.w3.org/2000/svg"><g clip-path="url(#a)"><mask id="b" style="mask-type:luminance" maskUnits="userSpaceOnUse" x="0" y="0" width="165" height="47"><path d="M164.03.105H.945v46.456H164.03V.105Z" fill="#fff"/></mask><g mask="url(#b)" fill="#204242"><path d="M18.608 7.559v12.7H6.628v-12.7H.946v30.317H6.63V25.588h11.976v12.288h5.687V7.56h-5.685Zm23.88 20.518c0 1.215-.495 2.38-1.377 3.24a4.768 4.768 0 0 1-3.326 1.342 4.769 4.769 0 0 1-3.326-1.342 4.522 4.522 0 0 1-1.378-3.24V15.09h-5.393v12.987a9.697 9.697 0 0 0 2.954 6.947 10.225 10.225 0 0 0 7.133 2.878c2.675 0 5.24-1.035 7.132-2.878a9.697 9.697 0 0 0 2.955-6.947V15.09h-5.373v12.987ZM82.448 16.43c0-2.663 1.807-3.507 3.787-3.507 1.597 0 3.705 1.184 5.085 2.62l3.531-4.056c-1.763-2.322-5.339-3.927-8.267-3.927-5.85 0-10.082 3.337-10.082 8.87 0 10.265 12.881 7.007 12.881 12.753 0 1.77-1.766 3.335-3.788 3.335-3.19 0-4.223-1.518-5.688-3.124l-3.92 3.97c2.508 2.997 5.6 4.52 9.304 4.52 5.558 0 10.03-3.379 10.03-8.66 0-11.395-12.883-7.854-12.883-12.794h.01Zm79.686 16.604c-3.186 0-4.092-1.343-4.092-3.399V20.53h4.954v-4.612h-4.954V9.832l-5.468 2.39v18.544c0 4.743 3.36 7.133 7.966 7.133.724.012 1.447-.045 2.157-.168l1.334-4.784c-.601.04-1.292.081-1.897.081v.005ZM63.016 15.242c-2.67 0-4.535.755-6.339 2.477v-9.98h-5.4v18.498c0 6.923 5.139 11.668 10.914 11.668 6.407 0 12.043-4.829 12.043-11.33 0-6.42-5.187-11.329-11.218-11.329v-.004Zm-.034 17.368a6.272 6.272 0 0 1-2.345-.454 6.146 6.146 0 0 1-1.988-1.294 5.964 5.964 0 0 1-1.329-1.937 5.832 5.832 0 0 1 0-4.569 5.964 5.964 0 0 1 1.329-1.936 6.147 6.147 0 0 1 1.988-1.295c.743-.3 1.54-.454 2.345-.454 1.626 0 3.185.63 4.334 1.749a5.893 5.893 0 0 1 1.795 4.22 5.893 5.893 0 0 1-1.795 4.222 6.212 6.212 0 0 1-4.334 1.748Zm58.683-6.31c0-6.513-5.623-11.33-12.042-11.33-5.774 0-10.914 4.744-10.914 11.668v18.508h5.4v-9.993c1.8 1.72 3.668 2.477 6.335 2.477 6.032 0 11.22-4.909 11.22-11.33h.001Zm-5.114-.066a5.89 5.89 0 0 1-1.795 4.221 6.214 6.214 0 0 1-4.334 1.748 6.215 6.215 0 0 1-4.334-1.748 5.893 5.893 0 0 1-1.795-4.221c0-1.583.646-3.102 1.795-4.221a6.215 6.215 0 0 1 4.334-1.749c1.625 0 3.185.63 4.334 1.749a5.89 5.89 0 0 1 1.795 4.22Z"/><path d="M139.115 14.716V9.43a4.14 4.14 0 0 0 1.751-1.494c.427-.65.655-1.403.659-2.174V5.64c0-2.248-1.871-4.07-4.179-4.07h-.124a4.238 4.238 0 0 0-2.956 1.192 4.019 4.019 0 0 0-1.223 2.878v.122c.004.77.232 1.525.659 2.174a4.142 4.142 0 0 0 1.75 1.494v5.286a11.985 11.985 0 0 0-5.626 2.412l-14.882-11.29c.106-.373.161-.757.167-1.142a4.499 4.499 0 0 0-.788-2.55 4.685 4.685 0 0 0-2.111-1.692 4.82 4.82 0 0 0-2.719-.266 4.745 4.745 0 0 0-2.413 1.251 4.548 4.548 0 0 0-1.293 2.347 4.477 4.477 0 0 0 .264 2.65 4.61 4.61 0 0 0 1.731 2.06 4.8 4.8 0 0 0 2.615.777 4.755 4.755 0 0 0 2.319-.615l14.654 11.108a11.344 11.344 0 0 0-1.971 6.538 11.364 11.364 0 0 0 2.153 6.485l-4.457 4.342a3.928 3.928 0 0 0-1.114-.176c-.765 0-1.512.221-2.147.636a3.784 3.784 0 0 0-1.423 1.69 3.68 3.68 0 0 0-.219 2.175c.149.73.517 1.4 1.058 1.927.54.527 1.229.886 1.979 1.03.75.146 1.526.072 2.233-.213a3.847 3.847 0 0 0 1.735-1.386 3.693 3.693 0 0 0 .653-2.09 3.641 3.641 0 0 0-.181-1.085l4.409-4.297a12.04 12.04 0 0 0 4.889 2.173c1.778.352 3.615.302 5.371-.145a12.001 12.001 0 0 0 4.757-2.434 11.593 11.593 0 0 0 3.172-4.225 11.308 11.308 0 0 0-.55-10.183 11.7 11.7 0 0 0-3.608-3.878 12.082 12.082 0 0 0-4.994-1.934Zm-1.827 17.383a6.242 6.242 0 0 1-2.386-.404 6.112 6.112 0 0 1-2.036-1.276 5.943 5.943 0 0 1-1.366-1.948 5.812 5.812 0 0 1-.481-2.311c0-.794.164-1.58.481-2.312a5.942 5.942 0 0 1 1.366-1.947 6.11 6.11 0 0 1 2.036-1.277 6.244 6.244 0 0 1 2.386-.404 6.174 6.174 0 0 1 4.173 1.81 5.859 5.859 0 0 1 1.713 4.125 5.86 5.86 0 0 1-1.708 4.127 6.176 6.176 0 0 1-4.172 1.814"/></g></g><defs><clipPath id="a"><path fill="#fff" transform="translate(.953 .033)" d="M0 0h163.085v46.596H0z"/></clipPath></defs></svg>