<svg width="172" height="29" fill="none" xmlns="http://www.w3.org/2000/svg"><g clip-path="url(#a)"><path fill-rule="evenodd" clip-rule="evenodd" d="M5.386 27.314c.401.697.82.997 1.624.997 1.25 0 3.03-1 3.497-1.273l9.601-5.878H8.545h.005l5.795-13.55 8.847 20.7h7.976l-11.6-27.143c-.16-.389-.51-.813-1.239-.813h-7.916c-.894 0-1.202.527-1.304.8L1.842 18.298c-.04.1-.078.19-.114.274-.16.377-.267.63-.267 1.031 0 .347.004.508.257.99l3.668 6.72ZM144.02 7.306c-1.669 0-3.088.499-3.096 1.594-.008 1.283.806 1.728 3.881 2.716 3.397 1.104 5.201 2.226 5.183 4.958-.018 3.079-2.426 4.835-5.942 4.835-2.488 0-4.719-.798-6.421-2.277l1.059-2.534c1.544 1.279 3.415 2.185 5.437 2.194 1.769.008 3.028-.843 3.028-2.102 0-1.054-.617-1.755-3.599-2.689-3.42-1.108-5.486-2.264-5.469-5.017.02-2.738 2.619-4.295 5.886-4.28 3.115.015 4.932 1.088 5.339 1.328l.049.03-1.027 2.303c-.667-.356-2.13-1.06-4.308-1.06Zm8.907 13.824h2.739l.001-8.335-.001-7.82h-2.739V21.13Zm2.74-8.335 8.067 8.337h3.554l-8.091-8.337 7.316-7.821h-3.505l-7.341 7.82ZM77.261 21.13h2.897V7.604h4.303l1.112-2.63H72.078v2.63h5.184V21.13ZM45.09 8.25l-2.801 6.464h5.627l-2.826-6.464Zm8.568 12.878h-3.034l-1.658-3.898h-7.73l-1.68 3.898h-2.942l7.193-16.27h2.659l7.192 16.27Zm116.468-.206c.723 0 1.257-.527 1.257-1.258 0-.73-.534-1.26-1.257-1.26-.721 0-1.258.53-1.258 1.26s.537 1.258 1.258 1.258Zm0-2.721a1.47 1.47 0 0 1 1.479 1.463 1.47 1.47 0 0 1-1.479 1.461 1.47 1.47 0 0 1-1.478-1.461c0-.808.664-1.463 1.478-1.463Zm-.083 1.36c.175 0 .356-.022.356-.238 0-.142-.076-.24-.283-.24h-.228v.479h.155Zm.366.352.357.497h-.267l-.371-.531c-.074-.11-.12-.147-.24-.147v.678h-.22v-1.515h.5c.31 0 .469.203.469.428 0 .218-.149.357-.406.39a.843.843 0 0 1 .178.2ZM135.144 7.605h-8.754v4.109h5.607v2.54h-5.607v4.294h8.759v2.581H123.5V4.974h11.644v2.631ZM94.427 18.801c-3.212 0-5.558-2.572-5.558-5.747s2.346-5.749 5.558-5.749c3.212 0 5.559 2.574 5.559 5.749s-2.347 5.747-5.559 5.747Zm0-14.104c-4.67 0-8.453 3.742-8.453 8.357 0 4.615 3.784 8.354 8.453 8.354 4.667 0 8.454-3.74 8.454-8.354 0-4.615-3.787-8.357-8.454-8.357Zm14.378 13.85 3.302-.002c3.209 0 5.558-2.34 5.558-5.514 0-3.173-2.335-5.423-5.545-5.423h-3.315v10.94Zm-2.899-13.572h6.201c4.666 0 8.451 3.441 8.451 8.056 0 4.613-3.785 8.098-8.451 8.098l-6.201.002V4.975ZM68.92 13.972c0 4.816-2.86 7.413-7.006 7.413-4.145 0-7.004-2.597-7.004-7.413V4.975h2.895v9.337c0 2.826 1.678 4.485 4.109 4.485 2.434 0 4.112-1.66 4.112-4.485V4.975h2.894v8.997Z" fill="#204242"/></g><defs><clipPath id="a"><path fill="#fff" transform="translate(.969 .354)" d="M0 0h170.851v27.957H0z"/></clipPath></defs></svg>