<svg width="213" height="35" fill="none" xmlns="http://www.w3.org/2000/svg"><g clip-path="url(#a)"><mask id="b" style="mask-type:luminance" maskUnits="userSpaceOnUse" x="1" y="0" width="212" height="35"><path d="M212.305.1H1.062v34.44h211.243V.1Z" fill="#fff"/></mask><g mask="url(#b)" fill="#204242"><path d="M12.909.127V.1c1.448.325 2.76 2.264 2.76 4.447 0 2.834-2.992 5.125-2.91 7.593h.027c.71-3.39 5.971-5.383 4.864-9.07 1.49.975 2.2 3.66 2.405 5.707.656-2.115 3.566-3.444 4.045-5.057h.027v10.63H1.09l-.028-5.437c0-3.268 5.671-3.186 5.234-6.21l.027-.027c1.653 2.712-.956 5.044-.45 6.78h.026c1.34-5.18 6.381-3.797 7.516-7.092.3-.936-.069-1.939-.506-2.237ZM5.07 15.422c-1.34 1.329-2.733 1.939-3.976 1.437v9.75h23.023V16.302c-1.954 2.332-4.331 1.329-4.099-.583v-.027c-3.594 4.15-5.643 1.83-5.07.15v-.028c-3.265 3.919-5.314 1.627-4.33-.325l-.028-.027c-4.126 4.922-6.736 3.118-5.52 0v-.041ZM31.695 9.116c0-1.396-.218-2.4-2.841-2.427l-.15-.244V5.93c0-.204.272-.23.505-.23.901 0 2.664.148 3.976.148 1.189 0 2.391-.149 3.716-.149.629 0 .78 0 .78.326v.474c0 .15-.356.176-.848.176-1.23 0-2.446.082-2.446 1.546v6.685h12.83v-5.56c0-2.047 0-2.494-2.418-2.67-.328-.028-.383-.123-.383-.475v-.353l.15-.149c.985.054 2.884.15 4.728.15 1.913 0 2.692-.055 3.567-.15l.123.176v.556c0 .244-.274.244-.724.244-1.558 0-2.337.272-2.337 1.994v14.698c0 2.142 1.175 2.318 2.883 2.318.123 0 .123.448.123.773 0 .122-.123.217-.93.217-1.188 0-2.39-.149-3.593-.149-1.106 0-2.965.15-3.32.15-.779 0-.93-.055-.93-.177v-.664l.151-.15c2.883 0 2.938-.596 2.938-2.67v-6.957H34.4v7.512c0 1.695.45 2.102 2.664 2.102.328 0 .424.054.424.325v.448c0 .176-.3.217-.956.217-1.23 0-2.46-.15-3.676-.15-1.134 0-2.31.15-3.443.15-.205 0-.479 0-.629-.177v-.664l.219-.15c1.407 0 2.719-.121 2.719-1.626l-.027-14.929Zm30.703 9.058c0-1.627-.205-2.875-2.391-2.875-.806 0-2.31.23-2.31 1.098 0 .23.055.461.151.678l-1.886 1.072a2.487 2.487 0 0 1-.177-.895c0-.95.956-1.695 1.585-2.048l2.692-1.546c.355-.203.505-.298.628-.298 2.487 0 3.771 1.193 3.771 3.62v6.292c0 .624 0 1.871.957 1.871.574 0 .683-.244 1.08-.868l.56.217c-.356 1.424-1.107 2.576-2.392 2.576-2.036 0-2.24-1.87-2.213-2.616-1.134 1.152-2.638 2.616-4.4 2.616-1.735 0-2.637-2.223-2.637-3.566 0-.501.56-1.45 3.047-2.4l3.921-1.518.014-1.41Zm-.027 2.25-2.965 1.33c-.424.176-1.503.745-1.503 1.518 0 .814.396 2.319 1.38 2.319 1.052 0 2.063-1.044 2.814-1.75l.274-.27v-3.147Zm10.44 3.092c0 1.18 0 2.319 2.267 2.319.177 0 .205.149.205.42s0 .42-.232.42c-1.053 0-2.091-.149-3.143-.149-1.134 0-2.337.15-3.47.15-.124 0-.124-.055-.124-.231v-.271c0-.299.055-.326.656-.353 1.312-.081 1.558-.529 1.558-2.142v-6.59c0-.556-.274-.922-.902-1.098-.123-.027-.902-.244-.902-.651 0-.176.096-.271.424-.42l2.213-1.004c.656-.298 1.162-.529 1.257-.529.178 0 .233.176.233.271l-.055 3.065.055.054c.957-1.207 2.336-3.376 4.168-3.376 1.079 0 1.707.502 1.707 1.6 0 .623-.601 1.152-1.23 1.152-.806 0-1.106-.528-2.008-.528-.724 0-1.653 1.003-2.24 1.749l-.452.556.014 5.586Zm8.976-5.708c0-1.302-.055-1.573-.684-1.845l-1.079-.474c-.054 0-.054-.054-.054-.203 0-.245.027-.245.232-.353l3.648-1.75c.178.055.178.272.178.421 0 .556-.055 1.153.04 1.722.984-.502 3.471-1.952 4.483-1.952 3.265 0 5.588 3.24 5.588 6.237 0 5.708-5.835 7.485-8.143 7.485-.656 0-1.285-.204-1.941-.272v4.597c0 2.02.506 2.129 2.664 2.25.123 0 .205.082.205.177v.298c0 .177-.055.353-.15.353-1.284 0-2.541-.15-3.921-.15-1.312 0-2.514.15-3.293.15-.274 0-.3-.122-.3-.42v-.177c0-.095.026-.244.095-.244 2.281-.203 2.418-.23 2.418-2.644V17.808h.014Zm2.282 5.884c0 1.546 1.53 2.048 2.965 2.048 3.046 0 4.632-2.102 4.632-5.14 0-2.616-1.558-5.314-4.427-5.314-1.203 0-2.146.23-3.17.949v7.457ZM99.44 18.73c-.055.42-.055.827-.055 1.247 0 2.576 2.009 5.166 4.727 5.166 1.107 0 1.886-.407 3.375-1.749l.533.38c-1.189 1.939-2.992 3.294-5.383 3.294-3.047 0-5.534-2.901-5.534-6.196 0-3.512 2.39-7.512 6.313-7.512 2.664 0 4.55 1.993 4.55 4.461v.922h-8.526v-.013Zm5.206-.828c.396 0 .833-.569.833-1.07 0-1.452-1.107-2.496-2.569-2.496-1.804 0-3.02 2.048-3.32 3.716l5.056-.15Zm9.728 5.614c0 1.18 0 2.319 2.268 2.319.178 0 .205.149.205.42s0 .42-.232.42c-1.052 0-2.091-.149-3.143-.149-1.134 0-2.336.15-3.471.15-.122 0-.122-.055-.122-.231v-.271c0-.299.054-.326.655-.353 1.312-.081 1.558-.529 1.558-2.142v-6.59c0-.556-.273-.922-.902-1.098-.122-.027-.901-.244-.901-.651 0-.176.082-.271.409-.42l2.214-1.004c.656-.298 1.161-.529 1.257-.529.178 0 .246.176.246.271l-.068 3.065.068.054c.956-1.207 2.337-3.376 4.154-3.376 1.079 0 1.707.502 1.707 1.6 0 .623-.601 1.152-1.229 1.152-.806 0-1.107-.528-2.009-.528-.724 0-1.653 1.003-2.24 1.749l-.451.556.027 5.586ZM141.733 25.47c-2.009.975-4.427 1.6-7.146 1.6-5.862 0-12.353-4.123-12.353-10.957 0-6.508 6.067-10.847 12.202-10.847 2.009 0 5.452.692 7.187 1.722l.397 3.444c.027.23.095.556.095.705 0 .204-.478.204-.601.204s-.396-.475-.806-1.451c-.861-2.048-3.498-3.471-6.135-3.471-5.711 0-8.977 4.664-8.977 10.006 0 4.868 3.949 9.478 8.977 9.478 1.762 0 4.045-.624 5.233-1.573.929-.745 1.312-2.074 1.681-3.173.027-.054.205-.054.355-.054.232 0 .684.027.602.448l-.711 3.918Zm10.821-12.11c3.567 0 6.669 3.092 6.669 6.645 0 4.285-3.567 7.064-7.475 7.064-3.62 0-6.49-3.023-6.49-6.657 0-3.96 3.32-7.051 7.296-7.051Zm-.683.977c-3.019 0-3.921 2.82-3.921 5.668 0 2.617 1.407 6.088 4.495 6.088 2.925 0 4.099-2.59 4.099-5.139 0-2.97-1.024-6.617-4.673-6.617Zm14.06 10.075c0 .65 0 1.423 2.064 1.423.068 0 .068.177.068.407 0 .271-.027.42-.096.42-1.161 0-2.487-.149-3.115-.149-1.079 0-2.146.15-3.238.15-.206 0-.274-.096-.274-.204v-.271c0-.353.096-.353.52-.353 1.311 0 1.79-.176 1.79-1.573V8.222c0-1.871 0-1.993-1.162-2.468-.451-.176-.874-.325-.874-.556 0-.23.3-.325 1.53-.8l2.186-.813c.15-.068.301-.109.451-.15.219 0 .219.299.219.475 0 1.424-.069 2.875-.069 4.298v16.204Zm8.321 0c0 .65 0 1.423 2.064 1.423.068 0 .068.177.068.407 0 .271-.041.42-.096.42-1.161 0-2.486-.149-3.115-.149-1.079 0-2.145.15-3.238.15-.205 0-.273-.096-.273-.204v-.271c0-.353.095-.353.505-.353 1.326 0 1.804-.176 1.804-1.573V8.222c0-1.871 0-1.993-1.161-2.468-.452-.176-.875-.325-.875-.556 0-.23.301-.325 1.531-.8l2.185-.813c.151-.068.301-.109.451-.15.219 0 .219.299.219.475 0 1.424-.069 2.875-.069 4.298v16.204Zm8.322 0c0 .65 0 1.423 2.063 1.423.068 0 .068.177.068.407 0 .271-.027.42-.095.42-1.162 0-2.487-.149-3.116-.149-1.079 0-2.159.15-3.238.15-.205 0-.273-.096-.273-.204v-.271c0-.353.095-.353.519-.353 1.312 0 1.79-.176 1.79-1.573v-6.115c0-1.87 0-1.993-1.161-2.467-.451-.177-.875-.326-.875-.556 0-.23.301-.326 1.531-.814l2.185-.8c.151-.068.301-.122.452-.15.218 0 .218.3.218.476 0 1.423-.068 2.888-.068 4.311v6.265Zm-1.23-19.865c.929 0 1.681.746 1.681 1.655a1.67 1.67 0 0 1-1.667 1.667c-.929 0-1.681-.745-1.681-1.654 0-.922.738-1.668 1.667-1.668Zm7.269 12.163c0-.57-.273-.922-.56-.976l-.984-.23c-.082-.028-.177-.123-.177-.326 0-.095.027-.299.177-.326 1.503-.38 3.526-1.478 3.717-1.478.123 0 .123.23.123.353v2.047c1.407-1.098 2.992-2.4 4.905-2.4 2.596 0 3.717 1.451 3.717 3.946v7.24c0 1.275.983 1.275 1.981 1.275.055 0 .123.055.123.204v.542c0 .054-.055.081-.15.081-1.189 0-1.968-.149-2.965-.149-1.08 0-2.132.15-3.198.15-.205 0-.205-.53-.205-.651 0-.082.124-.177.301-.177.478 0 1.858 0 1.858-.895v-6.983c0-1.844-.56-2.888-2.664-2.888-1.257 0-2.815.746-3.676 1.6v7.715c0 .665 0 1.424 2.063 1.424.055 0 .055.176.055.42 0 .272-.027.42-.082.42-1.161 0-2.487-.148-3.115-.148-1.08 0-2.146.149-3.239.149-.205 0-.273-.082-.273-.217v-.271c0-.353.095-.353.506-.353 1.312 0 1.79-.176 1.79-1.573l-.028-7.525Zm23.188.325h-.752c-.355-1.301-1.052-2.698-2.637-2.698-1.38 0-2.459.651-2.459 2.047 0 1.153 1.585 1.872 3.142 2.726 1.586.895 3.143 1.939 3.143 3.77 0 2.576-2.391 4.19-4.809 4.19-1.941 0-3.826-.869-3.867-1.343l-.151-2.698.861-.095c.123.149.15.352.205.57.328 1.22 1.681 2.575 2.993 2.575 1.529 0 2.486-.922 2.486-2.467 0-.977-1.38-2.02-2.132-2.4-1.735-.895-3.949-1.899-3.949-4.163 0-2.468 2.283-3.715 4.551-3.715 1.188 0 2.391.325 3.525.922l-.15 2.78Z"/></g></g><defs><clipPath id="a"><path fill="#fff" transform="translate(.813 .1)" d="M0 0h211.707v34.44H0z"/></clipPath></defs></svg>