<svg width="200" height="57" fill="none" xmlns="http://www.w3.org/2000/svg"><g clip-path="url(#a)"><mask id="b" style="mask-type:luminance" maskUnits="userSpaceOnUse" x="0" y="0" width="200" height="57"><path d="M199.734 0H0v56.777h199.734V0Z" fill="#fff"/></mask><g mask="url(#b)" fill="#204242"><path d="m17.401 40.731 1.023-1.926a12.06 12.06 0 0 0-6.893 2.634 11.976 11.976 0 0 0-4.05 6.148A28.338 28.338 0 0 1 .028 27.148a28.36 28.36 0 0 1 9.245-19.7A28.604 28.604 0 0 1 29.799.029a28.582 28.582 0 0 1 19.783 9.205H19.06a12.036 12.036 0 0 0-8.402 3.378 11.933 11.933 0 0 0-3.639 8.263 11.928 11.928 0 0 0 3.196 8.442 12.029 12.029 0 0 0 8.21 3.816l-1.023-1.926h1.77l1.953 1.944h4.297l-2.886-5.807h1.766l5.832 5.822h8.185a2.84 2.84 0 0 1 1.937.861 2.816 2.816 0 0 1 0 3.918 2.84 2.84 0 0 1-1.937.861h-8.185l-5.836 5.807h-1.762l2.886-5.807h-4.297l-1.953 1.926H17.4Z"/><path d="M45.595 15.909A11.973 11.973 0 0 0 49.9 9.576a28.332 28.332 0 0 1 7.093 20.315 28.36 28.36 0 0 1-9.236 19.442 28.601 28.601 0 0 1-20.272 7.426A28.586 28.586 0 0 1 7.797 47.91H38.32c3.185 0 6.24-1.26 8.491-3.502a11.93 11.93 0 0 0 3.517-8.455 11.93 11.93 0 0 0-3.517-8.454 12.033 12.033 0 0 0-8.49-3.502H19.06a2.839 2.839 0 0 1-1.936-.861 2.815 2.815 0 0 1 0-3.918 2.84 2.84 0 0 1 1.937-.861H38.32a12.06 12.06 0 0 0 7.275-2.449ZM79.148 31.61c4.755 0 7.972-3.102 7.972-7.02 0-3.443-2.498-5.59-6.467-6.578l-2.977-.75c-2.976-.75-3.215-2.317-3.215-3.067 0-2.147 1.984-3.476 4.208-3.476 2.429 0 4.174 1.5 4.174 3.715h3.49c0-4.26-3.319-6.918-7.562-6.918-4.174 0-7.834 2.624-7.834 6.747 0 1.943.82 4.908 5.85 6.168l3.01.75c1.917.511 3.799 1.5 3.799 3.578 0 1.943-1.643 3.647-4.448 3.647-2.943 0-4.824-1.943-4.892-3.953h-3.49c0 3.782 3.352 7.156 8.382 7.156ZM102.241 31.608c3.729 0 6.979-1.635 9.066-4.225l-2.6-2.08a8.306 8.306 0 0 1-6.432 3.034c-4.824 0-8.485-3.953-8.485-8.758 0-4.84 3.695-8.759 8.485-8.759 2.6 0 4.926 1.159 6.432 3.033l2.6-2.078c-2.087-2.59-5.337-4.226-9.066-4.226-6.672 0-11.975 5.384-11.975 12.03 0 6.645 5.303 12.03 11.975 12.03ZM125.562 31.61c6.741 0 11.975-5.385 11.975-12.03 0-6.68-5.234-12.064-11.975-12.064-6.705 0-11.906 5.384-11.906 12.063 0 6.646 5.201 12.03 11.906 12.03Zm0-3.272c-4.79 0-8.382-3.953-8.382-8.759 0-4.839 3.592-8.792 8.382-8.792 4.824 0 8.451 3.953 8.451 8.792 0 4.806-3.627 8.759-8.451 8.759ZM156.317 7.787h-17.551v3.204h7.014v20.276h3.523V10.991h7.014V7.787ZM175.224 7.787h-17.552v3.204h7.014v20.276h3.524V10.991h7.014V7.787ZM191.211 31.61c4.755 0 7.971-3.102 7.971-7.02 0-3.443-2.497-5.59-6.466-6.578l-2.977-.75c-2.976-.75-3.216-2.317-3.216-3.067 0-2.147 1.984-3.476 4.208-3.476 2.429 0 4.175 1.5 4.175 3.715h3.489c0-4.26-3.318-6.918-7.561-6.918-4.174 0-7.835 2.624-7.835 6.747 0 1.943.821 4.908 5.851 6.168l3.01.75c1.917.511 3.798 1.5 3.798 3.578 0 1.943-1.642 3.647-4.447 3.647-2.943 0-4.825-1.943-4.893-3.953h-3.49c0 3.782 3.353 7.156 8.383 7.156ZM182.142 8.73c.029 2.143-1.079 3.285-2.633 4.43a.861.861 0 0 1-1.056-.034c-.449-.368-.413-1.057.05-1.406.855-.644 1.936-1.586 1.809-2.183a1.137 1.137 0 0 1-.783.215 1.772 1.772 0 0 1-1.262-.563 1.742 1.742 0 0 1-.467-1.295 1.987 1.987 0 0 1 1.264-1.882c.251-.099.519-.146.789-.138 1.478 0 2.289 1.212 2.289 2.856ZM76.978 50.742c1.935 0 3.62-.843 4.704-2.175l-1.35-1.07a4.322 4.322 0 0 1-3.336 1.56c-2.503 0-4.402-2.034-4.402-4.507 0-2.49 1.917-4.507 4.402-4.507 1.349 0 2.556.596 3.337 1.56l1.349-1.069c-1.083-1.333-2.77-2.175-4.704-2.175a6.182 6.182 0 0 0-6.212 6.191 6.182 6.182 0 0 0 6.212 6.192ZM91.356 38.482v5.262H85.71v-5.262h-1.828v12.084h1.828v-5.191h5.645v5.191h1.828V38.483h-1.828ZM98.28 48.918v-3.456h4.809v-1.666h-4.81v-3.665h5.52v-1.649h-7.33v12.084h7.49v-1.648h-5.68ZM114.174 50.566h1.917l-4.615-12.084h-1.953l-4.632 12.084h1.917l1.136-3.051h5.076l1.154 3.051Zm-5.644-4.63 1.952-5.209 1.952 5.21h-3.904ZM122.633 38.482h-4.899v12.084h1.829v-4.472h3.07c2.627 0 3.728-1.859 3.728-3.788 0-1.912-1.101-3.824-3.728-3.824Zm-.106 5.963h-2.964v-4.314h3.035c1.366 0 1.935 1.105 1.935 2.175 0 1.07-.586 2.14-2.006 2.14ZM139.693 40.131v-1.649h-7.224v12.084h1.828v-5.12h4.278v-1.65h-4.278v-3.665h5.396ZM141.898 50.566h6.745v-1.648h-4.916V38.482h-1.829v12.084ZM150.672 50.566h1.828V38.483h-1.828v12.084ZM161.179 50.741c3.515 0 5.822-1.999 5.822-6.296h-5.52v1.544h3.514c0 .105-.018.21-.035.297-.266 1.702-1.793 2.79-3.781 2.79-2.467 0-4.366-2.053-4.366-4.526 0-2.49 1.899-4.542 4.366-4.542 1.136 0 2.183.456 2.947 1.157l1.278-1.157c-1.065-1.035-2.556-1.666-4.225-1.666-3.479 0-6.195 2.77-6.195 6.208a6.156 6.156 0 0 0 6.195 6.191ZM176.66 38.482v5.262h-5.644v-5.262h-1.828v12.084h1.828v-5.191h5.644v5.191h1.828V38.483h-1.828ZM189.574 38.482h-9.105v1.649h3.638v10.435h1.828V40.131h3.639v-1.649ZM195.036 50.741c2.467 0 4.136-1.596 4.136-3.612 0-1.772-1.296-2.877-3.355-3.386l-1.544-.385c-1.544-.386-1.669-1.193-1.669-1.579 0-1.105 1.03-1.789 2.184-1.789 1.26 0 2.165.772 2.165 1.912h1.81c0-2.192-1.721-3.56-3.922-3.56-2.166 0-4.065 1.35-4.065 3.472 0 1 .426 2.526 3.035 3.175l1.562.386c.994.263 1.97.771 1.97 1.841 0 1-.851 1.877-2.307 1.877-1.526 0-2.503-1-2.538-2.035h-1.81c0 1.947 1.739 3.683 4.348 3.683Z"/></g></g><defs><clipPath id="a"><path fill="#fff" d="M0 0h199.734v56.777H0z"/></clipPath></defs></svg>