<svg width="127" height="49" fill="none" xmlns="http://www.w3.org/2000/svg"><path d="M1.64.506v3.283h23.834V.506H1.64Zm27.212 0v3.283h33.966S59.35.506 54.754.506H28.852Zm40.629 0v3.283h20.546L88.808.506H69.481Zm35.28 0-1.219 3.283h20.363V.506h-19.144ZM1.641 6.89v3.283h23.833V6.891H1.64Zm27.211.005v3.277h37.905s-.443-2.527-1.215-3.277h-36.69Zm40.629 0v3.277h22.817l-1.129-3.277H69.481Zm32.841 0-1.128 3.277h22.71V6.896h-21.582ZM8.49 13.276v3.288h10.323v-3.287H8.49Zm27.212 0v3.288h10.323v-3.287H35.702Zm20.364 0v3.288h10.322s.656-1.736.656-3.287H56.066Zm20.266 0v3.288h18.285l-1.219-3.287H76.332Zm23.743 0-1.224 3.288h18.391v-3.287h-17.167Zm-91.583 6.39v3.283h10.322v-3.283H8.492Zm27.212 0v3.283h26.364s2.204-1.684 2.907-3.283H35.704Zm40.628 0v3.283h10.322v-1.828l.657 1.828h18.91l.703-1.828v1.828h10.323v-3.283h-19.38l-1.028 2.781-1.031-2.78H76.332ZM8.49 26.052v3.283h10.323v-3.283H8.49Zm27.212 0v3.283h29.272c-.704-1.593-2.907-3.283-2.907-3.283H35.702Zm40.629 0v3.283h10.322v-3.283H76.33Zm12.197 0 1.25 3.283h14.178l1.188-3.283H88.528Zm18.392 0v3.283h10.322v-3.283H106.92ZM8.494 32.437v3.283h10.322v-3.283H8.494Zm27.211 0v3.283h10.323v-3.283H35.705Zm20.364 0v3.283h10.977c0-1.55-.657-3.283-.657-3.283H56.07Zm20.266 0v3.283h10.323v-3.283H76.334Zm14.54 0 1.21 3.283h9.502l1.219-3.283h-11.93Zm16.048 0v3.283h10.322v-3.283h-10.322ZM1.831 38.822v3.288h23.833v-3.288H1.831Zm27.026 0v3.288h36.692c.772-.754 1.214-3.288 1.214-3.288H28.857Zm40.814 0v3.288h16.98v-3.288h-16.98Zm23.552 0 1.244 3.288h4.835l1.167-3.288h-7.246Zm13.7 0v3.288h17.172v-3.288h-17.172ZM1.831 45.212v3.283h23.833v-3.283H1.831Zm27.026 0v3.277h25.897c4.595 0 8.064-3.277 8.064-3.277H28.857Zm40.814 0v3.283h16.98v-3.283h-16.98Zm25.912 0 1.195 3.274.207.005 1.214-3.277-2.616-.002Zm11.341 0v3.283h17.172v-3.283h-17.172Z" fill="#204242"/></svg>