<svg width="176" height="40" fill="none" xmlns="http://www.w3.org/2000/svg"><g clip-path="url(#a)"><path fill-rule="evenodd" clip-rule="evenodd" d="M.516 39.246V0H6.1v22.517l9.952-9.74h7.427l7.083 16.06 6.889-16.06h3.952l6.831 16.06 7.044-16.06h5.73l-11.702 26.47h-2.119l-7.807-17.98-7.683 17.98h-2.15L19.307 16l-5.28 5.737 7.521 17.51h-5.657L10.194 26.05 6.1 30.04v9.206H.516ZM79.522.95l.89-.949h3.123l-2.057 2.22-3.819 4.123 3.548 8.65.916 2.222v.002h-2.594l-3.661-8.934-2.796 3.02v5.91H70.56V0h2.513v7.87L79.522.95ZM84.894 0v17.248h10.153v-2.23h-7.64V9.66h7.155V7.435h-7.154V2.226h7.41V0h-9.924ZM96.69 17.276V0h2.518v15.044h6.488v2.232h-9.005Zm10.619 0V0h2.518v15.044h6.489v2.232h-9.007ZM117.939 0v17.276h10.174v-2.232h-7.657V9.678h7.171V7.446h-7.171V2.228h7.425V0h-9.942Zm19.858 9.201 3.244 8.07h-2.603l-3.168-7.723c-.92.006-2.999.004-2.999.004v7.726h-2.519V0h4.418c3.547 0 5.725 1.845 5.753 4.835.021 1.728-.197 2.795-2.126 4.366Zm-5.526-7.073v5.423h1.617c2.697 0 3.47-1.367 3.444-2.814-.027-1.619-1.003-2.609-3.444-2.609h-1.617Zm38.247 22.831c-1.107-1.41-2.682-1.745-3.889-1.745-2.099 0-3.689 1.418-3.689 3.295 0 2.142 1.808 2.809 3.74 3.522 2.213.817 4.59 1.694 4.59 4.922 0 2.653-2.228 4.725-5.078 4.725-1.434 0-2.972-.386-4.487-1.518v-1.566c1.706 1.594 3.053 1.847 4.41 1.847 2.081 0 3.688-1.493 3.688-3.439 0-2.362-1.931-3.09-3.933-3.843-2.155-.811-4.393-1.653-4.393-4.6 0-2.55 2.251-4.573 5.027-4.581 1.409 0 3.21.569 4.014 1.517v1.464Zm-37.086-2.923-7.246 17.372h1.264l2.482-5.97h7.66l2.477 5.97h1.271l-7.245-17.372h-.663Zm.318 2.173 3.381 8.122h-6.736l3.355-8.122ZM77.619 36.33l4.664-14.276h1.023l4.724 14.265 5.538-14.177h1.475L88.32 39.55h-.635l-4.91-15.347-4.829 15.347h-.633l-6.755-17.41h1.442l5.618 14.19Zm94.359 1.656c0 .945.779 1.713 1.738 1.713.954 0 1.736-.768 1.736-1.713 0-.941-.782-1.707-1.736-1.707-.959 0-1.738.766-1.738 1.707Zm.221 0c0-.818.681-1.491 1.517-1.491.831 0 1.509.673 1.509 1.491a1.5 1.5 0 0 1-1.509 1.492 1.503 1.503 0 0 1-1.517-1.492ZM100.87 22.126v17.282h8.574v-1.114h-7.215V22.126h-1.359Zm11.074 17.282V22.126h1.352v16.168h7.22v1.114h-8.572Zm10.963 0h1.358v-17.28h-1.358v17.28Zm-24.533 0h-1.366v-17.28h1.366v17.28Zm52.874-9.226 6.667-8.022h1.36v17.248h-1.36V24.113h-.057l-6.61 8.059-6.616-8.059h-.051v15.295h-1.361V22.16h1.361l6.667 8.022Zm22.785 7.888.354.881h-.287l-.343-.845h-.331v.847h-.273v-1.884h.486c.384 0 .623.2.626.527 0 .188-.026.301-.232.474Zm-.607-.772v.593h.181c.29 0 .374-.15.374-.306-.001-.175-.113-.287-.374-.287h-.181Z" fill="#204242"/></g><defs><clipPath id="a"><path fill="#fff" d="M0 0h175.491v40H0z"/></clipPath></defs></svg>