<svg width="191" height="27" fill="none" xmlns="http://www.w3.org/2000/svg"><g clip-path="url(#a)"><mask id="b" style="mask-type:luminance" maskUnits="userSpaceOnUse" x="0" y="0" width="191" height="27"><path d="M190.36 0H0v27h190.36V0Z" fill="#fff"/></mask><g mask="url(#b)" fill="#204242"><path d="M25.25.613c-3.255 0-6.214 1.799-7.89 4.297A9.43 9.43 0 0 0 9.468.613C4.24.613 0 4.91 0 10.206c0 3.398 2.071 5.796 4.241 7.994l8.581 8.194c.493.4 1.184.1 1.184-.5V19.5c0-1.798 1.48-3.297 3.255-3.397 1.775 0 3.254 1.499 3.254 3.397v6.396c0 .6.69.899 1.184.5L30.28 18.2c2.17-2.198 4.241-4.696 4.241-7.994C34.62 4.91 30.38.613 25.25.613ZM8.778 17.501c-.098.1-.296.2-.493.2s-.296-.1-.394-.2c-2.86-2.498-4.242-5.196-4.242-7.894 0-2.299 1.381-4.897 3.255-6.096.296-.2.69-.1.888.2.197.3.099.7-.197.9-1.48.899-2.565 3.097-2.565 4.996 0 2.298 1.282 4.596 3.847 6.895.099.3.099.799-.099.999Zm4.143-2.398c-.099.2-.296.3-.592.3-.099 0-.197 0-.296-.1-1.874-1.1-3.156-3.198-3.156-5.297 0-1.998 1.085-3.797 2.86-4.696.296-.2.69 0 .888.3.197.3 0 .7-.296.899-1.282.7-2.17 2.098-2.17 3.597 0 1.6.986 3.298 2.564 4.197.296 0 .395.4.198.8Zm4.438-1.7c-1.578 0-2.86-1.298-2.86-2.897 0-1.599 1.282-2.898 2.86-2.898 1.578 0 2.86 1.3 2.86 2.898-.098 1.599-1.38 2.898-2.86 2.898Zm5.228 1.9c-.099.1-.197.1-.296.1-.197 0-.493-.1-.592-.3-.197-.3-.099-.7.296-.9 1.48-.9 2.564-2.498 2.564-4.197 0-1.499-.789-2.898-2.17-3.597-.295-.2-.394-.6-.295-.9a.79.79 0 0 1 .887-.3c1.776.9 2.86 2.699 2.86 4.697-.098 2.199-1.38 4.297-3.254 5.396Zm8.482-5.596c0 2.698-1.38 5.296-4.241 7.894-.099.1-.296.2-.395.2a.748.748 0 0 1-.493-.2c-.197-.3-.197-.7.099-.9 2.564-2.298 3.846-4.596 3.846-6.895 0-1.898-1.183-3.997-2.564-4.996a.656.656 0 0 1-.197-.9c.197-.299.592-.399.888-.199 1.676 1.1 3.057 3.697 3.057 5.996ZM46.258 6.607h4.833v6.596h6.115V6.607h4.833v17.587h-4.833V17.5h-6.115v6.695h-4.833V6.607ZM63.328 17.401c0-3.997 2.762-7.094 6.707-7.094 4.636 0 6.707 3.397 6.707 7.394v1h-8.975c.394 1.498 1.479 2.198 2.86 2.198 1.085 0 1.972-.4 2.959-1.4l2.564 2.2c-1.282 1.698-3.156 2.797-5.82 2.797-3.944 0-7.002-2.898-7.002-7.095Zm9.173-1.199c0-1.499-1.085-2.398-2.368-2.398-1.281 0-2.169 1-2.366 2.398H72.5ZM92.719 10.604h4.734v2.698c.79-1.898 1.973-3.097 4.241-2.997V15.3h-.394c-2.466 0-3.847 1.399-3.847 4.597v4.196h-4.734v-13.49ZM104.547 19.898v-5.496h-1.578v-3.797h1.578V7.207h4.734v3.397h3.156v3.798h-3.156v4.596c0 1 .395 1.4 1.282 1.4.592 0 1.184-.2 1.776-.4v3.697c-.888.5-1.973.8-3.255.8-2.86-.1-4.537-1.3-4.537-4.597ZM41.622 10.406c1.362 0 2.466-1.118 2.466-2.498 0-1.38-1.104-2.498-2.466-2.498s-2.466 1.119-2.466 2.498c0 1.38 1.104 2.498 2.466 2.498ZM90.841 17.301c0-4.196-2.959-6.994-7.2-6.994-2.663 0-4.538 1.099-5.82 2.797l2.565 2.199c.987-1 1.874-1.399 2.959-1.399 1.48 0 2.466.7 2.86 2.198v.1h-3.058c-3.846.1-5.819 1.5-5.819 4.297 0 2.698 1.874 4.097 5.03 4.097 1.776 0 3.058-.7 3.946-1.599v1.3h4.438V17.5c.1 0 .1-.1.1-.2Zm-7.003 4.097c-1.184.1-1.972-.7-1.972-1.498 0-.8.69-1.3 1.873-1.3h2.664v.1c0 .7-.198 2.599-2.565 2.698ZM114.906 7.808c0-.5.395-1 .987-1h.197c.394 0 .691.2.887.5l6.116 9.293 6.115-9.293c.197-.3.493-.5.888-.5h.197c.493 0 .986.4.986 1v15.488c0 .5-.395 1-.986 1-.493 0-.987-.5-.987-1v-12.89l-5.424 8.094c-.198.3-.493.5-.789.5-.296 0-.592-.2-.789-.5l-5.425-8.094v12.89c0 .5-.395 1-.986 1-.494 0-.888-.4-.888-1l-.099-15.488ZM135.031 23.196V7.907c0-.5.395-.999.986-.999h10.554c.494 0 .888.4.888.9s-.394.899-.888.899h-9.567v5.895h8.482c.493 0 .888.4.888.9s-.395.9-.888.9h-8.482v5.995h9.764c.493 0 .888.4.888.899 0 .5-.395.9-.888.9h-10.652c-.592 0-1.085-.5-1.085-1ZM156.332 22.397c4.339 0 7.002-2.998 7.002-6.795 0-3.797-2.761-6.795-7.002-6.795h-3.946v13.59h3.946Zm-5.918-14.49c0-.5.394-.999.986-.999h4.932c5.326 0 9.074 3.697 9.074 8.594 0 4.896-3.65 8.594-9.074 8.594H151.4a.995.995 0 0 1-.986-1V7.907ZM168.758 7.808c0-.5.394-1 .987-1 .493 0 .986.4.986 1v15.488c0 .5-.394 1-.986 1a.995.995 0 0 1-.987-1V7.808ZM185.621 17.8l-3.945-8.793-3.945 8.794h7.89Zm-12.033 5.097 6.904-15.289c.198-.5.592-.899 1.184-.899h.099c.591 0 .986.3 1.183.9l6.904 15.288c.099.2.099.3.099.5 0 .5-.394.899-.888.899-.493 0-.789-.3-.986-.7l-1.775-3.997h-9.371l-1.775 3.997c-.197.4-.493.7-.888.7a.89.89 0 0 1-.887-.9c.099-.2.099-.3.197-.499ZM41.726 11.605h-.198c-1.38 0-2.465 1.1-2.465 2.499v10.092h5.128V14.104c0-1.4-1.183-2.498-2.465-2.498Z"/></g></g><defs><clipPath id="a"><path fill="#fff" d="M0 0h190.36v27H0z"/></clipPath></defs></svg>