<svg width="19" height="19" fill="none" xmlns="http://www.w3.org/2000/svg"><path d="M18.164.37a1.288 1.288 0 0 0-.656-.349 1.196 1.196 0 0 0-.72.087L1.217 7.132c-.273.12-.505.339-.659.624-.154.285-.222.621-.193.955.025.334.144.65.339.9.194.25.454.42.74.486l3.957.9v5.678c0 .307.08.607.228.862.149.256.36.454.607.571a1.185 1.185 0 0 0 1.031-.001 1.34 1.34 0 0 0 .437-.338l2.193-2.509 3.316 3.352c.245.248.56.386.886.388.143.003.286-.023.421-.078.223-.08.423-.227.582-.424.158-.197.269-.438.321-.7l3.172-15.907a1.77 1.77 0 0 0-.031-.83 1.583 1.583 0 0 0-.4-.691ZM5.914 9.535l-4.2-.96L13.49 3.257 5.915 9.535Zm.836 7.14v-4.593l2.126 2.151-2.126 2.442Zm7.356.775-6.951-7.024 10.013-8.303-3.062 15.327Z" fill="#fff"/></svg>