<svg width="17" height="15" fill="none" xmlns="http://www.w3.org/2000/svg"><path d="M15.505 5.297c.264-.071.502-.256.673-.524.171-.268.265-.602.266-.948V1.5c0-.398-.123-.78-.344-1.06-.22-.282-.519-.44-.83-.44H1.175C.863 0 .565.158.344.44.124.72 0 1.101 0 1.5v2.325c.001.346.095.68.266.948.17.268.409.453.674.524.396.105.753.381 1.008.783.256.401.396.903.396 1.42 0 .517-.14 1.019-.396 1.42-.255.402-.612.678-1.008.783-.265.071-.503.256-.674.524a1.784 1.784 0 0 0-.266.948V13.5c0 .398.124.78.344 1.06.22.282.52.44.83.44H15.27c.311 0 .61-.158.83-.44.22-.28.344-.662.344-1.06v-2.325a1.784 1.784 0 0 0-.266-.948c-.17-.268-.409-.453-.673-.524-.397-.105-.753-.381-1.01-.783a2.661 2.661 0 0 1-.394-1.42c0-.517.14-1.019.395-1.42.256-.402.612-.678 1.009-.783Zm-14.33 5.878c.663-.172 1.26-.632 1.689-1.302.429-.67.663-1.508.663-2.373 0-.865-.234-1.703-.663-2.373-.429-.67-1.026-1.13-1.69-1.302V1.5h4.112v12H1.175v-2.325Zm14.095 0V13.5H6.46v-12h8.81v2.325c-.664.172-1.26.632-1.69 1.302-.428.67-.662 1.508-.662 2.373 0 .865.234 1.703.662 2.373.43.67 1.026 1.13 1.69 1.302Z" fill="#fff"/></svg>