<svg width="28" height="26" fill="none" xmlns="http://www.w3.org/2000/svg"><path d="M27.139.618a2.468 2.468 0 0 0-2.543-.446L1.582 9.418A2.468 2.468 0 0 0 .37 10.44a2.552 2.552 0 0 0-.358 1.564c.046.549.266 1.068.626 1.48.36.41.84.691 1.369.8l5.448 1.107v7.043c-.003.504.142.997.415 1.417.273.42.662.747 1.118.939.305.126.631.19.96.191.328.002.652-.064.954-.193.302-.13.575-.32.804-.558l2.905-2.968 4.563 4.101c.45.41 1.03.636 1.633.637.262.002.524-.04.773-.127a2.475 2.475 0 0 0 1.075-.697c.293-.324.498-.72.595-1.15l4.688-20.912c.101-.45.08-.921-.06-1.361a2.551 2.551 0 0 0-.738-1.135ZM16.417 6.744l-7.816 5.769-4.339-.892 12.155-4.877Zm-5.971 14.455v-3.681l1.92 1.72-1.92 1.96Zm10.073 1.311-9.175-8.252 13.214-9.743L20.52 22.51Z" fill="#FB6D33"/></svg>