<svg width="35" height="31" fill="none" xmlns="http://www.w3.org/2000/svg"><path d="M34.865 5.113a1.828 1.828 0 0 0-.68-.819c-.302-.2-.658-.306-1.023-.306h-4.325A7.962 7.962 0 0 0 24.918.847 8.043 8.043 0 0 0 19.881.66a7.977 7.977 0 0 0-4.143 2.845 7.858 7.858 0 0 0-1.595 4.739v.121C8.422 6.618 3.836 2.133 3.79 2.088a1.845 1.845 0 0 0-1.855-.45c-.321.1-.608.286-.83.537-.222.25-.37.557-.43.886-1.38 7.54.921 12.617 3.084 15.536a17.145 17.145 0 0 0 3.374 3.42c-2.208 2.19-5.26 3.36-5.291 3.376a1.796 1.796 0 0 0-1.176 1.954c.037.273.135.535.286.767.291.44 2.055 2.63 7.67 2.63 11.058 0 20.322-8.377 21.365-19.216l4.48-4.424a1.84 1.84 0 0 0 .399-1.991ZM26.92 9.43a1.711 1.711 0 0 0-.537 1.17c-.598 9.244-8.406 16.495-17.762 16.495a13.827 13.827 0 0 1-1.917-.121c1.595-1.019 3.405-2.448 4.678-4.333a1.83 1.83 0 0 0-.103-2.17c-.164-.2-.37-.361-.603-.475-.306-.167-6.994-3.68-6.733-12.983 2.638 1.992 6.902 4.667 11.734 5.458a1.856 1.856 0 0 0 1.493-.404 1.826 1.826 0 0 0 .654-1.39V8.245a4.284 4.284 0 0 1 1.293-3.018 4.361 4.361 0 0 1 3.063-1.239c.826.01 1.632.257 2.32.71a4.266 4.266 0 0 1 1.56 1.844c.142.327.378.604.678.8.3.194.651.297 1.01.295h.966L26.92 9.43Z" fill="#FB6D33"/></svg>