<svg width="36" height="28" fill="none" xmlns="http://www.w3.org/2000/svg"><path d="M24.307 12.502 15.995 7.16a1.781 1.781 0 0 0-2.745 1.497v10.688a1.781 1.781 0 0 0 2.745 1.497l8.312-5.343a1.781 1.781 0 0 0 0-2.996Zm-7.494 3.576v-4.156L20.05 14l-3.238 2.078Zm17.546-10.91a4.164 4.164 0 0 0-2.513-2.841C26.67.33 18.488.344 18 .344 17.512.344 9.331.33 4.154 2.33A4.164 4.164 0 0 0 1.64 5.17C1.249 6.686.78 9.447.78 14s.468 7.315.86 8.83a4.164 4.164 0 0 0 2.513 2.84c4.97 1.92 12.712 1.986 13.753 1.986h.186c1.04 0 8.782-.066 13.753-1.986a4.165 4.165 0 0 0 2.513-2.84c.392-1.515.86-4.276.86-8.83s-.468-7.315-.86-8.83v-.002Zm-3.445 16.768a.596.596 0 0 1-.347.41c-4.436 1.712-11.933 1.748-12.52 1.748h-.057c-.08 0-7.963.025-12.552-1.747a.593.593 0 0 1-.352-.412c-.28-1.074-.742-3.535-.742-7.935 0-4.4.467-6.86.742-7.935a.594.594 0 0 1 .347-.412c4.594-1.772 12.477-1.747 12.555-1.747h.022c.08 0 7.963-.025 12.552 1.747a.593.593 0 0 1 .352.412c.28 1.074.742 3.535.742 7.935 0 4.4-.467 6.86-.742 7.936Z" fill="#FB6D33"/></svg>