<svg width="36" height="34" fill="none" xmlns="http://www.w3.org/2000/svg"><path d="m13.075 34-.717-5.44a6.93 6.93 0 0 1-1.096-.51 14.7 14.7 0 0 1-1.008-.637l-5.329 2.125L0 21.462l4.612-3.314a3.861 3.861 0 0 1-.045-.575v-1.148c0-.183.015-.374.045-.573L0 12.537l4.925-8.075 5.329 2.126a12.3 12.3 0 0 1 1.03-.638 9.221 9.221 0 0 1 1.074-.51L13.075 0h9.85l.717 5.44a6.99 6.99 0 0 1 1.098.51c.342.198.678.41 1.006.638l5.329-2.125L36 12.537l-4.612 3.314c.03.199.045.39.045.573v1.148c0 .185-.03.376-.09.575l4.612 3.314-4.925 8.076-5.284-2.125c-.328.226-.671.439-1.03.637a9.23 9.23 0 0 1-1.074.51L22.925 34h-9.85Zm5.015-11.05c1.73 0 3.209-.58 4.432-1.742 1.224-1.162 1.836-2.565 1.836-4.208 0-1.643-.612-3.046-1.836-4.207-1.223-1.162-2.701-1.743-4.432-1.743-1.762 0-3.247.58-4.457 1.742-1.208 1.162-1.812 2.565-1.812 4.208 0 1.643.604 3.046 1.812 4.207 1.21 1.162 2.695 1.743 4.457 1.743Zm0-3.4c-.747 0-1.38-.248-1.902-.745-.523-.495-.785-1.097-.785-1.805s.261-1.31.784-1.805c.522-.497 1.156-.745 1.903-.745.746 0 1.38.248 1.903.745.522.495.783 1.097.783 1.805s-.26 1.31-.783 1.805c-.523.497-1.157.745-1.903.745ZM16.209 30.6h3.537l.627-4.505c.925-.227 1.784-.56 2.576-1a10.64 10.64 0 0 0 2.17-1.592l4.433 1.742 1.747-2.89-3.851-2.762c.149-.397.253-.815.313-1.255a9.947 9.947 0 0 0 0-2.678 5.75 5.75 0 0 0-.313-1.252l3.85-2.763-1.746-2.89-4.433 1.785a9.914 9.914 0 0 0-2.17-1.637 10.386 10.386 0 0 0-2.576-.998L19.791 3.4h-3.537l-.627 4.505a10.355 10.355 0 0 0-4.746 2.593L6.448 8.755 4.7 11.645l3.851 2.72c-.149.425-.253.85-.313 1.275-.06.425-.09.878-.09 1.36 0 .453.03.892.09 1.317.06.425.164.85.313 1.276l-3.85 2.762 1.746 2.89 4.433-1.785a9.852 9.852 0 0 0 2.172 1.635c.79.44 1.648.773 2.574 1l.582 4.505Z" fill="#FB6D33"/></svg>