<svg width="32" height="24" fill="none" xmlns="http://www.w3.org/2000/svg"><path d="M0 20.571V3.43c0-.943.349-1.75 1.047-2.421C1.743.336 2.58 0 3.56 0h24.878c.98 0 1.818.336 2.516 1.008.697.67 1.045 1.478 1.045 2.42v17.143c0 .943-.348 1.75-1.045 2.423-.698.67-1.536 1.006-2.515 1.006H3.56c-.979 0-1.817-.335-2.513-1.006C.349 22.322 0 21.514 0 20.57Zm22.52-10.285h5.92V3.429h-5.92v6.857Zm-9.48 0h5.92V3.429h-5.92v6.857Zm-9.48 0h5.92V3.429H3.56v6.857Zm0 10.285h5.92v-6.857H3.56v6.857Zm9.48 0h5.92v-6.857h-5.92v6.857Zm9.48 0h5.92v-6.857h-5.92v6.857Z" fill="#FB6D33"/></svg>