<svg width="42" height="37" fill="none" xmlns="http://www.w3.org/2000/svg"><mask id="a" maskUnits="userSpaceOnUse" x="0" y="0" width="42" height="37" fill="#000"><path fill="#fff" d="M0 0h42v37H0z"/><path d="M41 19.173a9.496 9.496 0 0 0-1.445-5.038 9.363 9.363 0 0 0-3.888-3.479V9.074a8.132 8.132 0 0 0-1.58-4.816 8 8 0 0 0-4.113-2.915 7.925 7.925 0 0 0-5.022.137A8.013 8.013 0 0 0 21 4.613a8.013 8.013 0 0 0-3.952-3.133 7.925 7.925 0 0 0-5.021-.137 8 8 0 0 0-4.113 2.915 8.133 8.133 0 0 0-1.58 4.816v1.582a9.363 9.363 0 0 0-3.89 3.478A9.495 9.495 0 0 0 1 19.174c0 1.783.501 3.53 1.446 5.038a9.363 9.363 0 0 0 3.888 3.478v.236a8.133 8.133 0 0 0 1.581 4.816 8 8 0 0 0 4.112 2.915c1.646.5 3.406.452 5.022-.137a8.012 8.012 0 0 0 3.952-3.133 8.012 8.012 0 0 0 3.95 3.133 7.924 7.924 0 0 0 5.023.137 8 8 0 0 0 4.112-2.915 8.133 8.133 0 0 0 1.58-4.816v-.236a9.38 9.38 0 0 0 3.886-3.48A9.512 9.512 0 0 0 41 19.173Zm-26.666 14.14a5.303 5.303 0 0 1-3.563-1.382 5.405 5.405 0 0 1-1.737-3.433c.43.069.865.102 1.3.101h1.334c.353 0 .692-.142.942-.394a1.354 1.354 0 0 0 0-1.904 1.327 1.327 0 0 0-.942-.395h-1.334a6.627 6.627 0 0 1-4.29-1.59 6.749 6.749 0 0 1-2.27-4.007 6.79 6.79 0 0 1 .82-4.54 6.682 6.682 0 0 1 3.524-2.941c.259-.097.482-.271.64-.5.158-.229.243-.5.243-.78V9.074c0-1.429.562-2.799 1.562-3.809a5.307 5.307 0 0 1 3.771-1.577c1.415 0 2.771.567 3.771 1.577s1.562 2.38 1.562 3.809v12.843a7.856 7.856 0 0 0-5.333-2.07c-.353 0-.693.141-.943.394a1.353 1.353 0 0 0 0 1.904c.25.253.59.395.943.395 1.415 0 2.771.567 3.771 1.577s1.562 2.38 1.562 3.81a5.414 5.414 0 0 1-1.562 3.808 5.307 5.307 0 0 1-3.77 1.577Zm17.333-7.407h-1.333c-.354 0-.693.142-.943.395a1.353 1.353 0 0 0 0 1.904c.25.253.59.394.943.394h1.333c.435.002.87-.032 1.3-.1a5.415 5.415 0 0 1-1.164 2.823 5.333 5.333 0 0 1-2.498 1.73c-.981.32-2.033.346-3.028.075a5.325 5.325 0 0 1-2.58-1.601 5.41 5.41 0 0 1-1.301-2.763 5.436 5.436 0 0 1 .398-3.032 5.372 5.372 0 0 1 1.969-2.324 5.295 5.295 0 0 1 2.904-.867c.354 0 .693-.142.943-.395a1.353 1.353 0 0 0 0-1.904 1.327 1.327 0 0 0-.943-.394 7.856 7.856 0 0 0-5.333 2.07V9.074c0-1.429.562-2.799 1.562-3.809a5.306 5.306 0 0 1 3.771-1.577c1.414 0 2.771.567 3.771 1.577S33 7.645 33 9.074v2.474c0 .28.085.551.243.78.158.229.381.403.64.5a6.682 6.682 0 0 1 3.524 2.94 6.79 6.79 0 0 1 .82 4.541 6.748 6.748 0 0 1-2.27 4.008 6.627 6.627 0 0 1-4.29 1.59Zm-22-7.406c-.353 0-.692-.142-.942-.394a1.353 1.353 0 0 1 0-1.905c.25-.252.589-.394.943-.394a3.333 3.333 0 0 0 2.352-.991A3.4 3.4 0 0 0 13 12.44v-1.346c0-.357.141-.7.391-.952a1.327 1.327 0 0 1 1.886 0c.25.252.39.595.39.952v1.346a6.09 6.09 0 0 1-1.757 4.285A5.97 5.97 0 0 1 9.668 18.5Zm24-1.347c0 .358-.14.7-.39.953-.25.252-.59.394-.943.394a5.97 5.97 0 0 1-4.243-1.775 6.09 6.09 0 0 1-1.757-4.285v-1.346c0-.357.14-.7.39-.952a1.327 1.327 0 0 1 1.886 0c.25.252.39.595.39.952v1.346a3.4 3.4 0 0 0 .982 2.376c.624.63 1.469.986 2.352.99.353 0 .692.143.942.395.25.253.39.595.39.952Z"/></mask><path d="M41 19.173a9.496 9.496 0 0 0-1.445-5.038 9.363 9.363 0 0 0-3.888-3.479V9.074a8.132 8.132 0 0 0-1.58-4.816 8 8 0 0 0-4.113-2.915 7.925 7.925 0 0 0-5.022.137A8.013 8.013 0 0 0 21 4.613a8.013 8.013 0 0 0-3.952-3.133 7.925 7.925 0 0 0-5.021-.137 8 8 0 0 0-4.113 2.915 8.133 8.133 0 0 0-1.58 4.816v1.582a9.363 9.363 0 0 0-3.89 3.478A9.495 9.495 0 0 0 1 19.174c0 1.783.501 3.53 1.446 5.038a9.363 9.363 0 0 0 3.888 3.478v.236a8.133 8.133 0 0 0 1.581 4.816 8 8 0 0 0 4.112 2.915c1.646.5 3.406.452 5.022-.137a8.012 8.012 0 0 0 3.952-3.133 8.012 8.012 0 0 0 3.95 3.133 7.924 7.924 0 0 0 5.023.137 8 8 0 0 0 4.112-2.915 8.133 8.133 0 0 0 1.58-4.816v-.236a9.38 9.38 0 0 0 3.886-3.48A9.512 9.512 0 0 0 41 19.173Zm-26.666 14.14a5.303 5.303 0 0 1-3.563-1.382 5.405 5.405 0 0 1-1.737-3.433c.43.069.865.102 1.3.101h1.334c.353 0 .692-.142.942-.394a1.354 1.354 0 0 0 0-1.904 1.327 1.327 0 0 0-.942-.395h-1.334a6.627 6.627 0 0 1-4.29-1.59 6.749 6.749 0 0 1-2.27-4.007 6.79 6.79 0 0 1 .82-4.54 6.682 6.682 0 0 1 3.524-2.941c.259-.097.482-.271.64-.5.158-.229.243-.5.243-.78V9.074c0-1.429.562-2.799 1.562-3.809a5.307 5.307 0 0 1 3.771-1.577c1.415 0 2.771.567 3.771 1.577s1.562 2.38 1.562 3.809v12.843a7.856 7.856 0 0 0-5.333-2.07c-.353 0-.693.141-.943.394a1.353 1.353 0 0 0 0 1.904c.25.253.59.395.943.395 1.415 0 2.771.567 3.771 1.577s1.562 2.38 1.562 3.81a5.414 5.414 0 0 1-1.562 3.808 5.307 5.307 0 0 1-3.77 1.577Zm17.333-7.407h-1.333c-.354 0-.693.142-.943.395a1.353 1.353 0 0 0 0 1.904c.25.253.59.394.943.394h1.333c.435.002.87-.032 1.3-.1a5.415 5.415 0 0 1-1.164 2.823 5.333 5.333 0 0 1-2.498 1.73c-.981.32-2.033.346-3.028.075a5.325 5.325 0 0 1-2.58-1.601 5.41 5.41 0 0 1-1.301-2.763 5.436 5.436 0 0 1 .398-3.032 5.372 5.372 0 0 1 1.969-2.324 5.295 5.295 0 0 1 2.904-.867c.354 0 .693-.142.943-.395a1.353 1.353 0 0 0 0-1.904 1.327 1.327 0 0 0-.943-.394 7.856 7.856 0 0 0-5.333 2.07V9.074c0-1.429.562-2.799 1.562-3.809a5.306 5.306 0 0 1 3.771-1.577c1.414 0 2.771.567 3.771 1.577S33 7.645 33 9.074v2.474c0 .28.085.551.243.78.158.229.381.403.64.5a6.682 6.682 0 0 1 3.524 2.94 6.79 6.79 0 0 1 .82 4.541 6.748 6.748 0 0 1-2.27 4.008 6.627 6.627 0 0 1-4.29 1.59Zm-22-7.406c-.353 0-.692-.142-.942-.394a1.353 1.353 0 0 1 0-1.905c.25-.252.589-.394.943-.394a3.333 3.333 0 0 0 2.352-.991A3.4 3.4 0 0 0 13 12.44v-1.346c0-.357.141-.7.391-.952a1.327 1.327 0 0 1 1.886 0c.25.252.39.595.39.952v1.346a6.09 6.09 0 0 1-1.757 4.285A5.97 5.97 0 0 1 9.668 18.5Zm24-1.347c0 .358-.14.7-.39.953-.25.252-.59.394-.943.394a5.97 5.97 0 0 1-4.243-1.775 6.09 6.09 0 0 1-1.757-4.285v-1.346c0-.357.14-.7.39-.952a1.327 1.327 0 0 1 1.886 0c.25.252.39.595.39.952v1.346a3.4 3.4 0 0 0 .982 2.376c.624.63 1.469.986 2.352.99.353 0 .692.143.942.395.25.253.39.595.39.952Z" fill="#FB6D33"/><path d="M41 19.173a9.496 9.496 0 0 0-1.445-5.038 9.363 9.363 0 0 0-3.888-3.479V9.074a8.132 8.132 0 0 0-1.58-4.816 8 8 0 0 0-4.113-2.915 7.925 7.925 0 0 0-5.022.137A8.013 8.013 0 0 0 21 4.613a8.013 8.013 0 0 0-3.952-3.133 7.925 7.925 0 0 0-5.021-.137 8 8 0 0 0-4.113 2.915 8.133 8.133 0 0 0-1.58 4.816v1.582a9.363 9.363 0 0 0-3.89 3.478A9.495 9.495 0 0 0 1 19.174c0 1.783.501 3.53 1.446 5.038a9.363 9.363 0 0 0 3.888 3.478v.236a8.133 8.133 0 0 0 1.581 4.816 8 8 0 0 0 4.112 2.915c1.646.5 3.406.452 5.022-.137a8.012 8.012 0 0 0 3.952-3.133 8.012 8.012 0 0 0 3.95 3.133 7.924 7.924 0 0 0 5.023.137 8 8 0 0 0 4.112-2.915 8.133 8.133 0 0 0 1.58-4.816v-.236a9.38 9.38 0 0 0 3.886-3.48A9.512 9.512 0 0 0 41 19.173Zm-26.666 14.14a5.303 5.303 0 0 1-3.563-1.382 5.405 5.405 0 0 1-1.737-3.433c.43.069.865.102 1.3.101h1.334c.353 0 .692-.142.942-.394a1.354 1.354 0 0 0 0-1.904 1.327 1.327 0 0 0-.942-.395h-1.334a6.627 6.627 0 0 1-4.29-1.59 6.749 6.749 0 0 1-2.27-4.007 6.79 6.79 0 0 1 .82-4.54 6.682 6.682 0 0 1 3.524-2.941c.259-.097.482-.271.64-.5.158-.229.243-.5.243-.78V9.074c0-1.429.562-2.799 1.562-3.809a5.307 5.307 0 0 1 3.771-1.577c1.415 0 2.771.567 3.771 1.577s1.562 2.38 1.562 3.809v12.843a7.856 7.856 0 0 0-5.333-2.07c-.353 0-.693.141-.943.394a1.353 1.353 0 0 0 0 1.904c.25.253.59.395.943.395 1.415 0 2.771.567 3.771 1.577s1.562 2.38 1.562 3.81a5.414 5.414 0 0 1-1.562 3.808 5.307 5.307 0 0 1-3.77 1.577Zm17.333-7.407h-1.333c-.354 0-.693.142-.943.395a1.353 1.353 0 0 0 0 1.904c.25.253.59.394.943.394h1.333c.435.002.87-.032 1.3-.1a5.415 5.415 0 0 1-1.164 2.823 5.333 5.333 0 0 1-2.498 1.73c-.981.32-2.033.346-3.028.075a5.325 5.325 0 0 1-2.58-1.601 5.41 5.41 0 0 1-1.301-2.763 5.436 5.436 0 0 1 .398-3.032 5.372 5.372 0 0 1 1.969-2.324 5.295 5.295 0 0 1 2.904-.867c.354 0 .693-.142.943-.395a1.353 1.353 0 0 0 0-1.904 1.327 1.327 0 0 0-.943-.394 7.856 7.856 0 0 0-5.333 2.07V9.074c0-1.429.562-2.799 1.562-3.809a5.306 5.306 0 0 1 3.771-1.577c1.414 0 2.771.567 3.771 1.577S33 7.645 33 9.074v2.474c0 .28.085.551.243.78.158.229.381.403.64.5a6.682 6.682 0 0 1 3.524 2.94 6.79 6.79 0 0 1 .82 4.541 6.748 6.748 0 0 1-2.27 4.008 6.627 6.627 0 0 1-4.29 1.59Zm-22-7.406c-.353 0-.692-.142-.942-.394a1.353 1.353 0 0 1 0-1.905c.25-.252.589-.394.943-.394a3.333 3.333 0 0 0 2.352-.991A3.4 3.4 0 0 0 13 12.44v-1.346c0-.357.141-.7.391-.952a1.327 1.327 0 0 1 1.886 0c.25.252.39.595.39.952v1.346a6.09 6.09 0 0 1-1.757 4.285A5.97 5.97 0 0 1 9.668 18.5Zm24-1.347c0 .358-.14.7-.39.953-.25.252-.59.394-.943.394a5.97 5.97 0 0 1-4.243-1.775 6.09 6.09 0 0 1-1.757-4.285v-1.346c0-.357.14-.7.39-.952a1.327 1.327 0 0 1 1.886 0c.25.252.39.595.39.952v1.346a3.4 3.4 0 0 0 .982 2.376c.624.63 1.469.986 2.352.99.353 0 .692.143.942.395.25.253.39.595.39.952Z" stroke="#FB6D33" stroke-width=".8" mask="url(#a)"/></svg>