<svg width="39" height="39" fill="none" xmlns="http://www.w3.org/2000/svg"><path d="M14.327 19.49c-1.427 0-2.616-.53-3.567-1.59-.952-1.06-1.328-2.297-1.13-3.71l.773-5.77c.317-2.237 1.347-4.092 3.091-5.565C15.238 1.382 17.28.647 19.618.648c2.338 0 4.379.737 6.123 2.21 1.744 1.472 2.774 3.326 3.091 5.562l.773 5.77c.198 1.413-.178 2.65-1.13 3.71-.95 1.06-2.14 1.59-3.566 1.59H14.327Zm0-4.711h10.582l-.773-5.652a4.18 4.18 0 0 0-1.515-2.709c-.851-.706-1.852-1.06-3.003-1.06-1.15 0-2.15.354-3.004 1.06A4.167 4.167 0 0 0 15.1 9.127l-.772 5.652ZM.594 38.329v-6.594c0-1.334.347-2.561 1.041-3.68a6.9 6.9 0 0 1 2.764-2.56 35.573 35.573 0 0 1 7.49-2.74 32.892 32.892 0 0 1 7.729-.91c2.615 0 5.192.304 7.728.913a35.645 35.645 0 0 1 7.49 2.737 6.914 6.914 0 0 1 2.766 2.562 6.829 6.829 0 0 1 1.04 3.678v6.595H.593Zm4.756-4.71h28.535v-1.884c0-.431-.109-.824-.328-1.177a2.32 2.32 0 0 0-.86-.824 31.137 31.137 0 0 0-6.48-2.384 27.96 27.96 0 0 0-6.6-.796 27.8 27.8 0 0 0-6.598.796c-2.18.531-4.34 1.325-6.48 2.384a2.313 2.313 0 0 0-.864.824 2.176 2.176 0 0 0-.325 1.177v1.885Z" fill="#FD804C"/></svg>