<svg width="40" height="34" fill="none" xmlns="http://www.w3.org/2000/svg"><path d="M3.636 34c-1 0-1.855-.35-2.567-1.05C.356 32.248 0 31.405 0 30.42V7.158h3.636V30.42h30.91V34H3.635Zm7.273-7.158c-1 0-1.856-.35-2.567-1.05-.713-.702-1.07-1.545-1.07-2.529V3.58c0-.984.357-1.827 1.07-2.529A3.528 3.528 0 0 1 10.909 0H20l3.636 3.579h12.728c1 0 1.856.35 2.569 1.052.711.7 1.067 1.543 1.067 2.527v16.105c0 .984-.356 1.827-1.067 2.529-.713.7-1.57 1.05-2.57 1.05H10.91Zm0-3.579h25.455V7.158H22.136L18.5 3.578h-7.59v19.685Z" fill="#FD804C"/></svg>