<svg width="32" height="32" fill="none" xmlns="http://www.w3.org/2000/svg"><g clip-path="url(#a)" fill-rule="evenodd" clip-rule="evenodd" fill="#FB6D33"><path d="M8.614 13.847a1.23 1.23 0 1 0 0-2.462 1.23 1.23 0 0 0 0 2.462Zm0 2.461a3.694 3.694 0 0 0 1.413-7.103 3.693 3.693 0 1 0-1.413 7.103Z"/><path d="M8.683 17.232a1.846 1.846 0 0 0-1.846 1.846v1.846a1.23 1.23 0 0 1-2.462 0v-1.846a4.308 4.308 0 1 1 8.615 0v1.846a1.23 1.23 0 0 1-2.461 0v-1.846a1.846 1.846 0 0 0-1.846-1.846Zm14.707-3.385a1.23 1.23 0 1 1 0-2.462 1.23 1.23 0 0 1 0 2.462Zm0 2.461a3.693 3.693 0 1 1 0-7.386 3.693 3.693 0 0 1 0 7.386Z"/><path d="M23.323 17.231a1.846 1.846 0 0 1 1.846 1.846v1.846a1.23 1.23 0 1 0 2.462 0v-1.846a4.308 4.308 0 0 0-8.615 0v1.846a1.231 1.231 0 0 0 2.461 0v-1.846a1.846 1.846 0 0 1 1.846-1.846Z"/><path d="M16.062 20.616a3.077 3.077 0 0 0-3.077 3.077v1.846a1.23 1.23 0 0 1-2.462 0v-1.846a5.539 5.539 0 0 1 11.077 0v1.846a1.23 1.23 0 0 1-2.461 0v-1.846a3.077 3.077 0 0 0-3.077-3.077Z"/><path d="M16.005 17.232a1.23 1.23 0 1 0 0-2.462 1.23 1.23 0 0 0 0 2.462Zm0 2.461a3.693 3.693 0 1 0 0-7.385 3.693 3.693 0 0 0 0 7.385Z"/><path d="M16 29.538c7.477 0 13.538-6.061 13.538-13.538S23.477 2.462 16 2.462 2.462 8.523 2.462 16 8.523 29.538 16 29.538ZM16 32c8.837 0 16-7.163 16-16S24.837 0 16 0 0 7.163 0 16s7.163 16 16 16Z"/></g><defs><clipPath id="a"><path fill="#fff" d="M0 0h32v32H0z"/></clipPath></defs></svg>