<svg width="29" height="32" fill="none" xmlns="http://www.w3.org/2000/svg"><path d="M1.933 31.018c-.547 0-1.007-.175-1.378-.526A1.707 1.707 0 0 1 0 29.194V1.841c0-.517.186-.95.557-1.3.371-.35.83-.525 1.376-.523h13.872c.451 0 .854.136 1.208.41.355.273.58.623.677 1.048l.483 2.189h8.894c.547 0 1.007.175 1.378.525.371.35.556.783.555 1.298v14.588c0 .517-.186.95-.557 1.3-.371.35-.83.525-1.376.524H17.062c-.451 0-.854-.137-1.209-.41a1.792 1.792 0 0 1-.676-1.049l-.484-2.188H3.867v10.941c0 .517-.186.95-.557 1.3-.371.35-.83.525-1.377.524Zm16.724-12.765h6.476V7.312h-10.15l-.773-3.647H3.867v10.94h14.016l.774 3.648Z" fill="#FD804C"/></svg>