<svg width="63" height="156" viewBox="0 0 63 156" fill="none" xmlns="http://www.w3.org/2000/svg">
<ellipse cx="31.5" cy="59" rx="31" ry="31.5" transform="rotate(90 31.5 59)" fill="#FD804C"/>
<path d="M37.5 154.114V155.591L25.8636 151.318V149.864L37.5 145.591V147.068L27.7045 150.545V150.636L37.5 154.114ZM32.9545 153.568V147.614H34.2045V153.568H32.9545ZM25.8636 142.154H37.5V143.563H25.8636V142.154ZM37.5 132.284L25.8636 135.465V134.034L35.3409 131.602V131.488L25.8636 129.011V127.42L35.3409 124.943V124.829L25.8636 122.397V120.965L37.5 124.147V125.602L28.2273 128.17V128.261L37.5 130.829V132.284ZM37.6818 116.329C37.6818 117.17 37.4962 117.896 37.125 118.505C36.75 119.111 36.2273 119.579 35.5568 119.909C34.8826 120.235 34.0985 120.397 33.2045 120.397C32.3106 120.397 31.5227 120.235 30.8409 119.909C30.1553 119.579 29.6212 119.121 29.2386 118.534C28.8523 117.943 28.6591 117.254 28.6591 116.466C28.6591 116.011 28.7348 115.562 28.8864 115.119C29.0379 114.676 29.2841 114.272 29.625 113.909C29.9621 113.545 30.4091 113.255 30.9659 113.039C31.5227 112.824 32.2083 112.716 33.0227 112.716H33.5909L33.5909 119.443H32.4318L32.4318 114.079C31.9394 114.079 31.5 114.178 31.1136 114.375C30.7273 114.568 30.4223 114.844 30.1989 115.204C29.9754 115.56 29.8636 115.981 29.8636 116.466C29.8636 117 29.9962 117.462 30.2614 117.852C30.5227 118.238 30.8636 118.536 31.2841 118.744C31.7045 118.952 32.1553 119.057 32.6364 119.057H33.4091C34.0682 119.057 34.6269 118.943 35.0852 118.716C35.5398 118.485 35.8864 118.164 36.125 117.755C36.3598 117.346 36.4773 116.871 36.4773 116.329C36.4773 115.977 36.428 115.659 36.3295 115.375C36.2273 115.087 36.0758 114.839 35.875 114.63C35.6705 114.422 35.4167 114.261 35.1136 114.147L35.4773 112.852C35.9167 112.988 36.303 113.218 36.6364 113.539C36.9659 113.861 37.2235 114.259 37.4091 114.733C37.5909 115.206 37.6818 115.738 37.6818 116.329ZM37.5 110.278H25.8636V108.938H30.1591V108.824C30.0076 108.725 29.8144 108.589 29.5795 108.415C29.3409 108.237 29.1288 107.983 28.9432 107.653C28.7538 107.32 28.6591 106.869 28.6591 106.301C28.6591 105.566 28.8428 104.919 29.2102 104.358C29.5777 103.797 30.0985 103.36 30.7727 103.045C31.447 102.731 32.2424 102.574 33.1591 102.574C34.0833 102.574 34.8845 102.731 35.5625 103.045C36.2367 103.36 36.7595 103.795 37.1307 104.352C37.4981 104.909 37.6818 105.551 37.6818 106.278C37.6818 106.839 37.589 107.288 37.4034 107.625C37.214 107.962 37 108.222 36.7614 108.403C36.5189 108.585 36.3182 108.725 36.1591 108.824V108.983H37.5V110.278ZM33.1364 108.96C33.7955 108.96 34.3769 108.864 34.8807 108.67C35.3807 108.477 35.7727 108.195 36.0568 107.824C36.3371 107.453 36.4773 106.998 36.4773 106.46C36.4773 105.9 36.3295 105.432 36.0341 105.057C35.7348 104.678 35.3333 104.394 34.8295 104.205C34.322 104.011 33.7576 103.915 33.1364 103.915C32.5227 103.915 31.9697 104.009 31.4773 104.199C30.9811 104.384 30.589 104.667 30.3011 105.045C30.0095 105.42 29.8636 105.892 29.8636 106.46C29.8636 107.006 30.0019 107.464 30.2784 107.835C30.5511 108.206 30.9337 108.487 31.4261 108.676C31.9148 108.866 32.4848 108.96 33.1364 108.96ZM30.7273 94.1253L31.0682 95.3298C30.8674 95.4056 30.6723 95.5173 30.483 95.6651C30.2898 95.809 30.1307 96.006 30.0057 96.256C29.8807 96.506 29.8182 96.826 29.8182 97.2162C29.8182 97.7503 29.9413 98.1954 30.1875 98.5514C30.4299 98.9037 30.7386 99.0798 31.1136 99.0798C31.447 99.0798 31.7102 98.9586 31.9034 98.7162C32.0966 98.4738 32.2576 98.095 32.3864 97.5798L32.7045 96.2844C32.8939 95.5041 33.1837 94.9226 33.5739 94.5401C33.9602 94.1575 34.4583 93.9662 35.0682 93.9662C35.5682 93.9662 36.0152 94.1101 36.4091 94.398C36.803 94.6821 37.1136 95.0798 37.3409 95.5912C37.5682 96.1026 37.6818 96.6973 37.6818 97.3753C37.6818 98.2654 37.4886 99.0022 37.1023 99.5855C36.7159 100.169 36.1515 100.538 35.4091 100.693L35.0909 99.4207C35.5606 99.2995 35.9129 99.0704 36.1477 98.7332C36.3826 98.3923 36.5 97.9473 36.5 97.398C36.5 96.773 36.3674 96.2768 36.1023 95.9094C35.8333 95.5382 35.5114 95.3526 35.1364 95.3526C34.8333 95.3526 34.5795 95.4586 34.375 95.6707C34.1667 95.8829 34.0114 96.2086 33.9091 96.648L33.5682 98.1026C33.3788 98.9018 33.0852 99.4889 32.6875 99.8639C32.286 100.235 31.7841 100.421 31.1818 100.421C30.6894 100.421 30.2538 100.282 29.875 100.006C29.4962 99.7257 29.1989 99.345 28.983 98.8639C28.767 98.3791 28.6591 97.8298 28.6591 97.2162C28.6591 96.3526 28.8485 95.6745 29.2273 95.1821C29.6061 94.6859 30.1061 94.3336 30.7273 94.1253ZM37.5 91.7321H28.7727V90.3912H37.5V91.7321ZM27.3182 91.0503C27.3182 91.3116 27.2292 91.537 27.0511 91.7264C26.8731 91.912 26.6591 92.0048 26.4091 92.0048C26.1591 92.0048 25.9451 91.912 25.767 91.7264C25.589 91.537 25.5 91.3116 25.5 91.0503C25.5 90.7889 25.589 90.5654 25.767 90.3798C25.9451 90.1904 26.1591 90.0957 26.4091 90.0957C26.6591 90.0957 26.8731 90.1904 27.0511 90.3798C27.2292 90.5654 27.3182 90.7889 27.3182 91.0503ZM28.7727 83.9241H29.9091L29.9091 88.4469H28.7727L28.7727 83.9241ZM26.6818 87.1287V85.7878H35C35.3788 85.7878 35.6629 85.7329 35.8523 85.623C36.0379 85.5094 36.1629 85.3654 36.2273 85.1912C36.2879 85.0132 36.3182 84.8257 36.3182 84.6287C36.3182 84.481 36.3106 84.3598 36.2955 84.2651C36.2765 84.1704 36.2614 84.0946 36.25 84.0378L37.4545 83.7651C37.4886 83.856 37.5227 83.9829 37.5568 84.1457C37.5947 84.3086 37.6136 84.5151 37.6136 84.7651C37.6136 85.1438 37.5322 85.5151 37.3693 85.8787C37.2064 86.2385 36.9583 86.5378 36.625 86.7764C36.2917 87.0113 35.8712 87.1287 35.3636 87.1287H26.6818ZM37.6818 78.1261C37.6818 78.967 37.4962 79.6924 37.125 80.3023C36.75 80.9083 36.2273 81.3761 35.5568 81.7057C34.8826 82.0314 34.0985 82.1943 33.2045 82.1943C32.3106 82.1943 31.5227 82.0314 30.8409 81.7057C30.1553 81.3761 29.6212 80.9178 29.2386 80.3307C28.8523 79.7398 28.6591 79.0504 28.6591 78.2625C28.6591 77.808 28.7348 77.3591 28.8864 76.9159C29.0379 76.4727 29.2841 76.0693 29.625 75.7057C29.9621 75.342 30.4091 75.0523 30.9659 74.8364C31.5227 74.6205 32.2083 74.5125 33.0227 74.5125H33.5909V81.2398H32.4318V75.8761C31.9394 75.8761 31.5 75.9746 31.1136 76.1716C30.7273 76.3648 30.4223 76.6413 30.1989 77.0011C29.9754 77.3572 29.8636 77.7776 29.8636 78.2625C29.8636 78.7966 29.9962 79.2587 30.2614 79.6489C30.5227 80.0352 30.8636 80.3326 31.2841 80.5409C31.7045 80.7492 32.1553 80.8534 32.6364 80.8534H33.4091C34.0682 80.8534 34.6269 80.7398 35.0852 80.5125C35.5398 80.2814 35.8864 79.9614 36.125 79.5523C36.3598 79.1432 36.4773 78.6678 36.4773 78.1261C36.4773 77.7739 36.428 77.4557 36.3295 77.1716C36.2273 76.8837 36.0758 76.6356 35.875 76.4273C35.6705 76.2189 35.4167 76.058 35.1136 75.9443L35.4773 74.6489C35.9167 74.7852 36.303 75.0144 36.6364 75.3364C36.9659 75.6583 37.2235 76.0561 37.4091 76.5295C37.5909 77.003 37.6818 77.5352 37.6818 78.1261ZM37.5 67.3597H25.8636V63.2915C25.8636 62.4809 26.0038 61.8123 26.2841 61.2858C26.5606 60.7593 26.9337 60.3672 27.4034 60.1097C27.8693 59.8521 28.3864 59.7233 28.9545 59.7233C29.4545 59.7233 29.8674 59.8123 30.1932 59.9903C30.5189 60.1646 30.7765 60.3956 30.9659 60.6835C31.1553 60.9676 31.2955 61.2763 31.3864 61.6097H31.5C31.5227 61.2536 31.6477 60.8956 31.875 60.5358C32.1023 60.1759 32.428 59.8748 32.8523 59.6324C33.2765 59.39 33.7955 59.2688 34.4091 59.2688C34.9924 59.2688 35.517 59.4013 35.983 59.6665C36.4489 59.9316 36.8182 60.3502 37.0909 60.9222C37.3636 61.4941 37.5 62.2384 37.5 63.1551V67.3597ZM36.25 65.9506V63.1551C36.25 62.2347 36.072 61.5813 35.7159 61.1949C35.3561 60.8047 34.9205 60.6097 34.4091 60.6097C34.0152 60.6097 33.6515 60.71 33.3182 60.9108C32.9811 61.1116 32.7121 61.3975 32.5114 61.7688C32.3068 62.14 32.2045 62.5794 32.2045 63.0869V65.9506H36.25ZM30.9773 65.9506V63.3369C30.9773 62.9127 30.8939 62.5301 30.7273 62.1892C30.5606 61.8445 30.3258 61.5718 30.0227 61.371C29.7197 61.1665 29.3636 61.0642 28.9545 61.0642C28.4432 61.0642 28.0095 61.2422 27.6534 61.5983C27.2936 61.9544 27.1136 62.5188 27.1136 63.2915V65.9506H30.9773ZM33.9318 51.4196H28.7727V50.0787H37.5V51.4196H36.0227V51.5105C36.4659 51.7151 36.8428 52.0332 37.1534 52.4651C37.4602 52.8969 37.6136 53.4423 37.6136 54.1014C37.6136 54.6469 37.4943 55.1317 37.2557 55.556C37.0133 55.9802 36.6496 56.3135 36.1648 56.556C35.6761 56.7984 35.0606 56.9196 34.3182 56.9196H28.7727V55.5787H34.2273C34.8636 55.5787 35.3712 55.4007 35.75 55.0446C36.1288 54.6848 36.3182 54.2264 36.3182 53.6696C36.3182 53.3363 36.233 52.9973 36.0625 52.6526C35.892 52.3041 35.6307 52.0124 35.2784 51.7776C34.9261 51.5389 34.4773 51.4196 33.9318 51.4196ZM37.5 47.4071H28.7727V46.0662H37.5V47.4071ZM27.3182 46.7253C27.3182 46.9866 27.2292 47.212 27.0511 47.4014C26.8731 47.587 26.6591 47.6798 26.4091 47.6798C26.1591 47.6798 25.9451 47.587 25.767 47.4014C25.589 47.212 25.5 46.9866 25.5 46.7253C25.5 46.4639 25.589 46.2404 25.767 46.0548C25.9451 45.8654 26.1591 45.7707 26.4091 45.7707C26.6591 45.7707 26.8731 45.8654 27.0511 46.0548C27.2292 46.2404 27.3182 46.4639 27.3182 46.7253ZM25.8636 42.0537H37.5V43.3946H25.8636V42.0537ZM37.6818 36.0866C37.6818 36.8139 37.4981 37.456 37.1307 38.0128C36.7595 38.5696 36.2367 39.0052 35.5625 39.3196C34.8845 39.634 34.0833 39.7912 33.1591 39.7912C32.2424 39.7912 31.447 39.634 30.7727 39.3196C30.0985 39.0052 29.5777 38.5677 29.2102 38.0071C28.8428 37.4465 28.6591 36.7988 28.6591 36.0639C28.6591 35.4957 28.7538 35.0469 28.9432 34.7173C29.1288 34.384 29.3409 34.1302 29.5795 33.956C29.8144 33.7779 30.0076 33.6397 30.1591 33.5412V33.4276H25.8636V32.0866H37.5V33.3821H36.1591V33.5412C36.3182 33.6397 36.5189 33.7798 36.7614 33.9616C37 34.1435 37.214 34.4029 37.4034 34.7401C37.589 35.0772 37.6818 35.526 37.6818 36.0866ZM36.4773 35.9048C36.4773 35.367 36.3371 34.9124 36.0568 34.5412C35.7727 34.17 35.3807 33.8878 34.8807 33.6946C34.3769 33.5014 33.7955 33.4048 33.1364 33.4048C32.4848 33.4048 31.9148 33.4995 31.4261 33.6889C30.9337 33.8783 30.5511 34.1586 30.2784 34.5298C30.0019 34.901 29.8636 35.3594 29.8636 35.9048C29.8636 36.473 30.0095 36.9465 30.3011 37.3253C30.589 37.7003 30.9811 37.9825 31.4773 38.1719C31.9697 38.3575 32.5227 38.4503 33.1364 38.4503C33.7576 38.4503 34.322 38.3556 34.8295 38.1662C35.3333 37.973 35.7348 37.6889 36.0341 37.3139C36.3295 36.9351 36.4773 36.4654 36.4773 35.9048ZM37.6818 25.5699C37.6818 26.4108 37.4962 27.1362 37.125 27.746C36.75 28.3521 36.2273 28.8199 35.5568 29.1494C34.8826 29.4752 34.0985 29.6381 33.2045 29.6381C32.3106 29.6381 31.5227 29.4752 30.8409 29.1494C30.1553 28.8199 29.6212 28.3616 29.2386 27.7744C28.8523 27.1835 28.6591 26.4941 28.6591 25.7063C28.6591 25.2517 28.7348 24.8028 28.8864 24.3597C29.0379 23.9165 29.2841 23.5131 29.625 23.1494C29.9621 22.7858 30.4091 22.496 30.9659 22.2801C31.5227 22.0642 32.2083 21.9563 33.0227 21.9563H33.5909V28.6835H32.4318V23.3199C31.9394 23.3199 31.5 23.4184 31.1136 23.6153C30.7273 23.8085 30.4223 24.085 30.1989 24.4449C29.9754 24.8009 29.8636 25.2214 29.8636 25.7063C29.8636 26.2403 29.9962 26.7025 30.2614 27.0926C30.5227 27.479 30.8636 27.7763 31.2841 27.9847C31.7045 28.193 32.1553 28.2972 32.6364 28.2972H33.4091C34.0682 28.2972 34.6269 28.1835 35.0852 27.9563C35.5398 27.7252 35.8864 27.4051 36.125 26.996C36.3598 26.5869 36.4773 26.1116 36.4773 25.5699C36.4773 25.2176 36.428 24.8994 36.3295 24.6153C36.2273 24.3275 36.0758 24.0794 35.875 23.871C35.6705 23.6627 35.4167 23.5017 35.1136 23.3881L35.4773 22.0926C35.9167 22.229 36.303 22.4581 36.6364 22.7801C36.9659 23.1021 37.2235 23.4998 37.4091 23.9733C37.5909 24.4468 37.6818 24.979 37.6818 25.5699ZM37.5 19.7009H28.7727V18.4054H30.0909V18.3145C29.6591 18.1554 29.3087 17.8675 29.0398 17.4509C28.7708 17.0342 28.6364 16.5645 28.6364 16.0418C28.6364 15.9433 28.6383 15.8202 28.642 15.6724C28.6458 15.5247 28.6515 15.413 28.6591 15.3372H30.0227C30.0114 15.3827 29.9943 15.4868 29.9716 15.6497C29.9451 15.8088 29.9318 15.9774 29.9318 16.1554C29.9318 16.5796 30.0208 16.9584 30.1989 17.2918C30.3731 17.6213 30.6155 17.8827 30.9261 18.0759C31.233 18.2653 31.5833 18.3599 31.9773 18.3599H37.5V19.7009Z" fill="#ECECEC" fill-opacity="0.87"/>
</svg>
