<svg width="47" height="78" viewBox="0 0 47 78" fill="none" xmlns="http://www.w3.org/2000/svg">
<circle cx="17.5" cy="38.5" r="17.5" fill="#FD804C"/>
<path d="M22 74.4773L10.3636 77.6591L10.3636 76.2273L19.8409 73.7955L19.8409 73.6818L10.3636 71.2045L10.3636 69.6136L19.8409 67.1364L19.8409 67.0227L10.3636 64.5909L10.3636 63.1591L22 66.3409L22 67.7955L12.7273 70.3636L12.7273 70.4545L22 73.0227L22 74.4773ZM22.1818 58.5886C22.1818 59.4295 21.9962 60.1549 21.625 60.7648C21.25 61.3708 20.7273 61.8386 20.0568 62.1682C19.3826 62.4939 18.5985 62.6568 17.7045 62.6568C16.8106 62.6568 16.0227 62.4939 15.3409 62.1682C14.6553 61.8386 14.1212 61.3803 13.7386 60.7932C13.3523 60.2023 13.1591 59.5129 13.1591 58.725C13.1591 58.2705 13.2348 57.8216 13.3864 57.3784C13.5379 56.9352 13.7841 56.5318 14.125 56.1682C14.4621 55.8045 14.9091 55.5148 15.4659 55.2989C16.0227 55.083 16.7083 54.975 17.5227 54.975L18.0909 54.975L18.0909 61.7023L16.9318 61.7023L16.9318 56.3386C16.4394 56.3386 16 56.4371 15.6136 56.6341C15.2273 56.8273 14.9223 57.1038 14.6989 57.4636C14.4754 57.8197 14.3636 58.2402 14.3636 58.725C14.3636 59.2591 14.4962 59.7212 14.7614 60.1114C15.0227 60.4977 15.3636 60.7951 15.7841 61.0034C16.2045 61.2117 16.6553 61.3159 17.1364 61.3159L17.9091 61.3159C18.5682 61.3159 19.1269 61.2023 19.5852 60.975C20.0398 60.7439 20.3864 60.4239 20.625 60.0148C20.8598 59.6057 20.9773 59.1303 20.9773 58.5886C20.9773 58.2364 20.928 57.9182 20.8295 57.6341C20.7273 57.3462 20.5758 57.0981 20.375 56.8898C20.1705 56.6814 19.9167 56.5205 19.6136 56.4068L19.9773 55.1114C20.4167 55.2477 20.803 55.4769 21.1364 55.7989C21.4659 56.1208 21.7235 56.5186 21.9091 56.992C22.0909 57.4655 22.1818 57.9977 22.1818 58.5886ZM22.2045 50.217C22.2045 50.7701 22.1004 51.272 21.892 51.7227C21.6799 52.1735 21.375 52.5314 20.9773 52.7966C20.5758 53.0617 20.0909 53.1943 19.5227 53.1943C19.0227 53.1943 18.6174 53.0958 18.3068 52.8989C17.9924 52.7019 17.7462 52.4386 17.5682 52.1091C17.3902 51.7795 17.2576 51.4159 17.1705 51.0182C17.0795 50.6167 17.0076 50.2133 16.9545 49.808C16.8864 49.2777 16.8352 48.8477 16.8011 48.5182C16.7633 48.1848 16.7008 47.9424 16.6136 47.7909C16.5265 47.6356 16.375 47.558 16.1591 47.558L16.1136 47.558C15.553 47.558 15.1174 47.7114 14.8068 48.0182C14.4962 48.3212 14.3409 48.7814 14.3409 49.3989C14.3409 50.039 14.4811 50.5409 14.7614 50.9045C15.0417 51.2682 15.3409 51.5239 15.6591 51.6716L15.2045 52.9443C14.6742 52.717 14.2614 52.414 13.9659 52.0352C13.6667 51.6527 13.4583 51.236 13.3409 50.7852C13.2197 50.3307 13.1591 49.8837 13.1591 49.4443C13.1591 49.164 13.1932 48.842 13.2614 48.4784C13.3258 48.111 13.4602 47.7568 13.6648 47.4159C13.8693 47.0712 14.178 46.7852 14.5909 46.558C15.0038 46.3307 15.5568 46.217 16.25 46.217L22 46.217L22 47.558L20.8182 47.558L20.8182 47.6261C21.0076 47.717 21.2102 47.8686 21.4261 48.0807C21.642 48.2928 21.8258 48.575 21.9773 48.9273C22.1288 49.2795 22.2045 49.7095 22.2045 50.217ZM21 50.0125C21 49.4822 20.8958 49.0352 20.6875 48.6716C20.4792 48.3042 20.2102 48.0277 19.8807 47.842C19.5511 47.6527 19.2045 47.558 18.8409 47.558L17.6136 47.558C17.6818 47.6148 17.7443 47.7398 17.8011 47.933C17.8542 48.1223 17.9015 48.342 17.9432 48.592C17.9811 48.8383 18.0152 49.0788 18.0455 49.3136C18.072 49.5447 18.0947 49.7322 18.1136 49.8761C18.1591 50.2246 18.233 50.5504 18.3352 50.8534C18.4337 51.1527 18.5833 51.3951 18.7841 51.5807C18.9811 51.7625 19.25 51.8534 19.5909 51.8534C20.0568 51.8534 20.4091 51.6811 20.6477 51.3364C20.8826 50.9879 21 50.5466 21 50.0125ZM22.1818 40.3241C22.1818 41.0514 21.9981 41.6935 21.6307 42.2503C21.2595 42.8071 20.7367 43.2427 20.0625 43.5571C19.3845 43.8715 18.5833 44.0287 17.6591 44.0287C16.7424 44.0287 15.947 43.8715 15.2727 43.5571C14.5985 43.2427 14.0776 42.8052 13.7102 42.2446C13.3428 41.684 13.1591 41.0363 13.1591 40.3014C13.1591 39.7332 13.2538 39.2844 13.4432 38.9548C13.6288 38.6215 13.8409 38.3677 14.0795 38.1935C14.3144 38.0154 14.5076 37.8772 14.6591 37.7787L14.6591 37.6651L10.3636 37.6651L10.3636 36.3241L22 36.3241L22 37.6196L20.6591 37.6196L20.6591 37.7787C20.8182 37.8772 21.0189 38.0173 21.2614 38.1991C21.5 38.381 21.714 38.6404 21.9034 38.9776C22.089 39.3147 22.1818 39.7635 22.1818 40.3241ZM20.9773 40.1423C20.9773 39.6044 20.8371 39.1499 20.5568 38.7787C20.2727 38.4075 19.8807 38.1253 19.3807 37.9321C18.8769 37.7389 18.2955 37.6423 17.6364 37.6423C16.9848 37.6423 16.4148 37.737 15.9261 37.9264C15.4337 38.1158 15.0511 38.3961 14.7784 38.7673C14.5019 39.1385 14.3636 39.5969 14.3636 40.1423C14.3636 40.7105 14.5095 41.184 14.8011 41.5628C15.089 41.9378 15.4811 42.22 15.9773 42.4094C16.4697 42.595 17.0227 42.6878 17.6364 42.6878C18.2576 42.6878 18.822 42.5931 19.3295 42.4037C19.8333 42.2105 20.2348 41.9264 20.5341 41.5514C20.8295 41.1726 20.9773 40.7029 20.9773 40.1423ZM25.2727 32.6685C25.2727 32.8957 25.2538 33.0984 25.2159 33.2764C25.1818 33.4545 25.1477 33.5776 25.1136 33.6457L23.9318 33.3048C24.0151 32.9791 24.0455 32.6912 24.0227 32.4412C24 32.1912 23.8883 31.9696 23.6875 31.7764C23.4905 31.5795 23.1705 31.3995 22.7273 31.2366L22.0455 30.9866L13.2727 34.2139L13.2727 32.7594L20.2273 30.3503L20.2273 30.2594L13.2727 27.8503L13.2727 26.3957L23.2727 30.1003C23.7235 30.267 24.0966 30.4734 24.392 30.7196C24.6913 30.9658 24.9129 31.2518 25.0568 31.5776C25.2008 31.8995 25.2727 32.2632 25.2727 32.6685ZM22 19.1668L22 20.644L10.3636 16.3713L10.3636 14.9168L22 10.644L22 12.1213L12.2045 15.5986L12.2045 15.6895L22 19.1668ZM17.4545 18.6213L17.4545 12.6668L18.7045 12.6668L18.7045 18.6213L17.4545 18.6213ZM10.3636 7.27244L22 7.27244L22 8.68153L10.3636 8.68153L10.3636 7.27244Z" fill="#FEFEFE"/>
</svg>
