<svg width="110" height="110" viewBox="0 0 138 138" fill="none" xmlns="http://www.w3.org/2000/svg">
<g filter="url(#filter0_d_3420_26814)">
<circle cx="69.2031" cy="66.5" r="54.5" fill="white"/>
</g>
<path d="M38.0463 47.0909L41.3872 54.1903L44.9071 47.0909H53.0804L46.9355 58.5455L53.3787 70H45.265L41.3872 62.7216L37.6287 70H29.3957L35.8986 58.5455L29.8133 47.0909H38.0463ZM71.0277 39.4545V70H62.7351V47.0909H62.5561L55.8743 51.0881V44.0483L63.3913 39.4545H71.0277ZM90.7088 70.8352C87.9346 70.8253 85.5383 70.1839 83.5199 68.9112C81.5014 67.6385 79.9453 65.804 78.8515 63.4077C77.7578 61.0114 77.2159 58.1378 77.2258 54.7869C77.2358 51.4261 77.7827 48.5724 78.8665 46.2259C79.9602 43.8793 81.5113 42.0945 83.5199 40.8714C85.5383 39.6484 87.9346 39.0369 90.7088 39.0369C93.4829 39.0369 95.8792 39.6534 97.8977 40.8864C99.9162 42.1094 101.472 43.8942 102.566 46.2408C103.66 48.5874 104.202 51.4361 104.192 54.7869C104.192 58.1577 103.645 61.0412 102.551 63.4375C101.457 65.8338 99.9013 67.6683 97.8828 68.9411C95.8743 70.2038 93.4829 70.8352 90.7088 70.8352ZM90.7088 64.0938C92.1406 64.0938 93.3139 63.348 94.2287 61.8565C95.1534 60.3551 95.6108 57.9986 95.6008 54.7869C95.6008 52.6889 95.392 50.9737 94.9744 49.6413C94.5568 48.3089 93.9801 47.3246 93.2443 46.6882C92.5085 46.0419 91.6633 45.7188 90.7088 45.7188C89.277 45.7188 88.1086 46.4446 87.2038 47.8963C86.299 49.348 85.8366 51.6449 85.8167 54.7869C85.8068 56.9247 86.0106 58.6847 86.4283 60.0668C86.8459 61.4389 87.4226 62.4531 88.1584 63.1094C88.9041 63.7656 89.7542 64.0938 90.7088 64.0938Z" fill="#FD804C"/>
<path d="M47.0394 85.1818V86.7159H41.4911V85.1818H47.0394ZM43.0124 95V84.044C43.0124 83.4304 43.1466 82.9212 43.4151 82.5163C43.6836 82.1072 44.0394 81.8026 44.4826 81.6023C44.9257 81.3977 45.4073 81.2955 45.9272 81.2955C46.3107 81.2955 46.6388 81.3274 46.9115 81.3913C47.1843 81.451 47.3867 81.5064 47.5188 81.5575L47.0713 83.1044C46.9819 83.0788 46.8668 83.049 46.7262 83.0149C46.5855 82.9766 46.4151 82.9574 46.2148 82.9574C45.7503 82.9574 45.4179 83.0724 45.2176 83.3026C45.0216 83.5327 44.9236 83.8651 44.9236 84.2997V95H43.0124ZM51.6752 95.2173C51.0531 95.2173 50.4906 95.1023 49.9877 94.8722C49.4849 94.6378 49.0864 94.299 48.7924 93.8558C48.5026 93.4126 48.3578 92.8693 48.3578 92.2259C48.3578 91.6719 48.4643 91.2159 48.6774 90.858C48.8904 90.5 49.1781 90.2166 49.5403 90.0078C49.9025 89.799 50.3073 89.6413 50.7548 89.5348C51.2022 89.4283 51.6582 89.3473 52.1227 89.2919C52.7107 89.2237 53.188 89.1683 53.5545 89.1257C53.921 89.0788 54.1873 89.0043 54.3535 88.902C54.5197 88.7997 54.6028 88.6335 54.6028 88.4034V88.3587C54.6028 87.8004 54.4451 87.3679 54.1298 87.0611C53.8187 86.7543 53.3542 86.6009 52.7363 86.6009C52.0928 86.6009 51.5857 86.7436 51.215 87.0291C50.8485 87.3104 50.595 87.6236 50.4543 87.9688L48.6582 87.5597C48.8712 86.9631 49.1823 86.4815 49.5914 86.1151C50.0048 85.7443 50.4799 85.4759 51.0168 85.3097C51.5538 85.1392 52.1184 85.054 52.7107 85.054C53.1028 85.054 53.5183 85.1009 53.9572 85.1946C54.4004 85.2841 54.8137 85.4503 55.1972 85.6932C55.585 85.9361 55.9025 86.2834 56.1497 86.7351C56.3968 87.1825 56.5204 87.7642 56.5204 88.4801V95H54.6539V93.6577H54.5772C54.4536 93.9048 54.2683 94.1477 54.0211 94.3864C53.7739 94.625 53.4565 94.8232 53.0687 94.9808C52.6809 95.1385 52.2164 95.2173 51.6752 95.2173ZM52.0907 93.6832C52.6191 93.6832 53.0708 93.5788 53.4458 93.37C53.8251 93.1612 54.1127 92.8885 54.3087 92.5518C54.509 92.2109 54.6092 91.8466 54.6092 91.4588V90.1932C54.541 90.2614 54.4089 90.3253 54.2129 90.3849C54.0211 90.4403 53.8016 90.4893 53.5545 90.532C53.3073 90.5703 53.0666 90.6065 52.8322 90.6406C52.5978 90.6705 52.4018 90.696 52.2441 90.7173C51.8734 90.7642 51.5346 90.843 51.2278 90.9538C50.9252 91.0646 50.6823 91.2244 50.4991 91.4332C50.3201 91.6378 50.2306 91.9105 50.2306 92.2514C50.2306 92.7244 50.4053 93.0824 50.7548 93.3253C51.1042 93.5639 51.5495 93.6832 52.0907 93.6832ZM66.5288 87.5788L64.7965 87.8857C64.7241 87.6641 64.609 87.4531 64.4513 87.2528C64.2979 87.0526 64.0891 86.8885 63.8249 86.7607C63.5607 86.6328 63.2305 86.5689 62.8342 86.5689C62.293 86.5689 61.8413 86.6903 61.479 86.9332C61.1168 87.1719 60.9357 87.4808 60.9357 87.8601C60.9357 88.1882 61.0572 88.4524 61.3001 88.6527C61.543 88.853 61.935 89.017 62.4762 89.1449L64.0359 89.5028C64.9393 89.7116 65.6126 90.0334 66.0557 90.468C66.4989 90.9027 66.7205 91.4673 66.7205 92.1619C66.7205 92.75 66.5501 93.2741 66.2092 93.7344C65.8725 94.1903 65.4016 94.5483 64.7965 94.8082C64.1957 95.0682 63.4989 95.1982 62.7063 95.1982C61.6069 95.1982 60.7099 94.9638 60.0153 94.495C59.3207 94.022 58.8945 93.3509 58.7369 92.4815L60.5842 92.2003C60.6992 92.6818 60.9357 93.0462 61.2937 93.2933C61.6516 93.5362 62.1182 93.6577 62.6935 93.6577C63.3199 93.6577 63.8207 93.5277 64.1957 93.2678C64.5707 93.0036 64.7582 92.6818 64.7582 92.3026C64.7582 91.9957 64.6431 91.7379 64.413 91.5291C64.1871 91.3203 63.8398 91.1626 63.3711 91.0561L61.7092 90.6918C60.793 90.483 60.1154 90.1506 59.6765 89.6946C59.2418 89.2386 59.0245 88.6612 59.0245 87.9624C59.0245 87.3828 59.1864 86.8757 59.5103 86.4411C59.8342 86.0064 60.2816 85.6676 60.8526 85.4247C61.4236 85.1776 62.0778 85.054 62.815 85.054C63.8761 85.054 64.7113 85.2841 65.3207 85.7443C65.93 86.2003 66.3327 86.8118 66.5288 87.5788ZM73.5105 85.1818V86.7159H68.1476V85.1818H73.5105ZM69.5858 82.8295H71.497V92.1172C71.497 92.4879 71.5524 92.767 71.6632 92.9545C71.774 93.1378 71.9167 93.2635 72.0914 93.3317C72.2704 93.3956 72.4643 93.4276 72.6731 93.4276C72.8265 93.4276 72.9608 93.4169 73.0758 93.3956C73.1909 93.3743 73.2804 93.3572 73.3443 93.3445L73.6895 94.9233C73.5787 94.9659 73.421 95.0085 73.2164 95.0511C73.0119 95.098 72.7562 95.1236 72.4494 95.1278C71.9466 95.1364 71.4778 95.0469 71.0432 94.8594C70.6085 94.6719 70.2569 94.3821 69.9885 93.9901C69.72 93.598 69.5858 93.1058 69.5858 92.5135V82.8295ZM79.8562 95.1982C78.8889 95.1982 78.0558 94.9915 77.3569 94.5781C76.6623 94.1605 76.1254 93.5746 75.7461 92.8203C75.3711 92.0618 75.1836 91.1733 75.1836 90.1548C75.1836 89.1491 75.3711 88.2628 75.7461 87.4957C76.1254 86.7287 76.6538 86.13 77.3313 85.6996C78.0132 85.2692 78.81 85.054 79.722 85.054C80.2759 85.054 80.8129 85.1456 81.3328 85.3288C81.8527 85.5121 82.3193 85.7997 82.7326 86.1918C83.146 86.5838 83.472 87.093 83.7106 87.7195C83.9492 88.3416 84.0686 89.098 84.0686 89.9886V90.6662H76.2639V89.2344H82.1957C82.1957 88.7315 82.0934 88.2862 81.8889 87.8984C81.6843 87.5064 81.3967 87.1974 81.0259 86.9716C80.6595 86.7457 80.2291 86.6328 79.7348 86.6328C79.1978 86.6328 78.7291 86.7649 78.3285 87.0291C77.9322 87.2891 77.6254 87.63 77.408 88.0518C77.195 88.4695 77.0884 88.9233 77.0884 89.4134V90.532C77.0884 91.1882 77.2035 91.7464 77.4336 92.2067C77.668 92.6669 77.994 93.0185 78.4116 93.2614C78.8292 93.5 79.3171 93.6193 79.8754 93.6193C80.2376 93.6193 80.5678 93.5682 80.8661 93.4659C81.1644 93.3594 81.4223 93.2017 81.6396 92.9929C81.8569 92.7841 82.0231 92.5263 82.1382 92.2195L83.9471 92.5455C83.8022 93.0781 83.5423 93.5447 83.1673 93.9453C82.7965 94.3416 82.3299 94.6506 81.7674 94.8722C81.2092 95.0895 80.5721 95.1982 79.8562 95.1982ZM86.2946 95V85.1818H88.1419V86.7415H88.2442C88.4232 86.2131 88.7385 85.7976 89.1902 85.495C89.6462 85.1882 90.1618 85.0348 90.7371 85.0348C90.8564 85.0348 90.997 85.0391 91.159 85.0476C91.3251 85.0561 91.4551 85.0668 91.5489 85.0795V86.9077C91.4722 86.8864 91.3358 86.8629 91.1398 86.8374C90.9438 86.8075 90.7477 86.7926 90.5517 86.7926C90.1 86.7926 89.6973 86.8885 89.3436 87.0803C88.9942 87.2678 88.7172 87.5298 88.5126 87.8665C88.3081 88.1989 88.2058 88.5781 88.2058 89.0043V95H86.2946Z" fill="#FD804C"/>
<defs>
<filter id="filter0_d_3420_26814" x="0.638609" y="0.748387" width="137.129" height="137.129" filterUnits="userSpaceOnUse" color-interpolation-filters="sRGB">
<feFlood flood-opacity="0" result="BackgroundImageFix"/>
<feColorMatrix in="SourceAlpha" type="matrix" values="0 0 0 0 0 0 0 0 0 0 0 0 0 0 0 0 0 0 127 0" result="hardAlpha"/>
<feOffset dy="2.8129"/>
<feGaussianBlur stdDeviation="7.03226"/>
<feComposite in2="hardAlpha" operator="out"/>
<feColorMatrix type="matrix" values="0 0 0 0 0 0 0 0 0 0 0 0 0 0 0 0 0 0 0.1 0"/>
<feBlend mode="normal" in2="BackgroundImageFix" result="effect1_dropShadow_3420_26814"/>
<feBlend mode="normal" in="SourceGraphic" in2="effect1_dropShadow_3420_26814" result="shape"/>
</filter>
</defs>
</svg>
