<svg width="26" height="25" fill="none" xmlns="http://www.w3.org/2000/svg"><g clip-path="url(#a)"><path fill-rule="evenodd" clip-rule="evenodd" d="M16.86 3.005c.412-.023.825.037 1.213.174l7.489 2.63v9.496l-4.962.913a2.914 2.914 0 0 0-.416-2.87l-4.367-5.416 1.34-.426a.723.723 0 0 0 .479-.918.757.757 0 0 0-.949-.464l-5.579 1.775a1.14 1.14 0 0 1-.804-.048 1.087 1.087 0 0 1-.558-.565 1.04 1.04 0 0 1-.013-.781c.097-.252.288-.46.536-.582h.002l5.403-2.616c.37-.177.774-.28 1.186-.302ZM-4.5 4.51v12.185h2.639a.828.828 0 0 0 .576-.231.776.776 0 0 0 .238-.557V6.83a.71.71 0 0 1 0-.033V5.3a.776.776 0 0 0-.238-.557.828.828 0 0 0-.576-.231H-4.5Zm36 12.362V4.333a.763.763 0 0 1-.491.178h-3.13a.828.828 0 0 0-.576.23.776.776 0 0 0-.239.543V15.923c.005.203.09.398.239.542.152.148.36.23.575.23h3.13c.189 0 .36.067.492.178ZM14.3 8.415l-2.729.868a2.688 2.688 0 0 1-1.899-.112A2.564 2.564 0 0 1 8.357 7.84a2.452 2.452 0 0 1-.032-1.843 2.542 2.542 0 0 1 1.007-1.226 2.683 2.683 0 0 0-2.124-.085L.456 7.305v7.873h3.161c.214 0 .418.089.561.244l5.628 6.108c.186.209.433.358.709.426.275.07.566.055.833-.041a1.39 1.39 0 0 0 .66-.496 1.32 1.32 0 0 0 .25-.77v-.653l-1.346-1.302a.711.711 0 0 1 0-1.029.769.769 0 0 1 1.063 0l1.456 1.41.137.053a1.958 1.958 0 0 0 1.768-.185 1.86 1.86 0 0 0 .613-.66c.1-.182.167-.379.2-.581l-2.107-2.04a.711.711 0 0 1 0-1.028.769.769 0 0 1 1.063 0l2.127 2.06h.472c.297 0 .587-.08.84-.23.252-.152.456-.368.588-.625a1.504 1.504 0 0 0-.147-1.613L14.3 8.415Z" fill="#fff"/></g><defs><clipPath id="a"><path fill="#fff" transform="translate(.5)" d="M0 0h25v25H0z"/></clipPath></defs></svg>