<svg width="185" height="45" fill="none" xmlns="http://www.w3.org/2000/svg"><g clip-path="url(#a)"><path d="M48.618 15.95H67.35v3.46h-7.366v19.46h-4.05V19.41h-7.332v-3.46h.016Zm17.932 6.324h3.462v3.203h.065c.114-.453.327-.89.637-1.31.31-.421.686-.826 1.127-1.165.44-.356.93-.631 1.47-.858a4.534 4.534 0 0 1 1.65-.323c.424 0 .734.016.897.032.164.016.327.049.507.065v3.526c-.262-.048-.523-.08-.8-.113a6.837 6.837 0 0 0-.8-.049c-.621 0-1.21.13-1.765.372a4.06 4.06 0 0 0-1.437 1.084c-.408.486-.735 1.068-.98 1.78-.245.711-.359 1.52-.359 2.442v7.894h-3.69v-16.58h.016ZM93.333 38.87h-3.626v-2.313h-.065c-.457.84-1.127 1.504-2.025 2.005-.898.502-1.813.76-2.744.76-2.205 0-3.805-.533-4.785-1.617s-1.47-2.717-1.47-4.901v-10.53h3.691v10.174c0 1.456.278 2.491.85 3.09.555.598 1.355.906 2.367.906.784 0 1.421-.114 1.944-.356.522-.243.947-.55 1.257-.955.327-.388.556-.873.703-1.423.147-.55.212-1.149.212-1.796V22.29h3.69v16.58Zm6.287-5.322c.115 1.068.523 1.812 1.225 2.248.719.421 1.568.648 2.564.648.343 0 .735-.033 1.176-.081a4.97 4.97 0 0 0 1.241-.308c.392-.145.702-.372.964-.663.245-.291.359-.663.343-1.132-.017-.47-.196-.857-.523-1.149-.327-.307-.735-.533-1.241-.728a12.555 12.555 0 0 0-1.731-.469c-.654-.13-1.307-.275-1.976-.42a18.883 18.883 0 0 1-1.993-.55 6.105 6.105 0 0 1-1.715-.874 3.851 3.851 0 0 1-1.208-1.39c-.31-.567-.457-1.262-.457-2.104 0-.905.228-1.65.67-2.264a5.061 5.061 0 0 1 1.681-1.472 7.854 7.854 0 0 1 2.27-.793 13.968 13.968 0 0 1 2.385-.226c.865 0 1.698.097 2.482.275.784.178 1.503.469 2.14.89a5.279 5.279 0 0 1 1.584 1.585c.424.647.686 1.44.8 2.361h-3.854c-.18-.873-.572-1.472-1.209-1.763-.637-.307-1.372-.453-2.188-.453-.261 0-.572.017-.931.065-.359.049-.686.13-1.013.243-.31.113-.571.29-.8.517-.212.227-.326.518-.326.89 0 .453.163.809.473 1.084.31.275.719.501 1.225.695.506.178 1.078.34 1.731.47.653.129 1.323.274 2.009.42.669.145 1.323.34 1.976.55.653.21 1.225.501 1.731.873s.915.825 1.225 1.375c.31.55.473 1.246.473 2.055 0 .986-.228 1.811-.685 2.507a5.42 5.42 0 0 1-1.764 1.666 8.342 8.342 0 0 1-2.417.938c-.882.194-1.764.291-2.63.291-1.061 0-2.041-.113-2.939-.356-.898-.242-1.682-.598-2.336-1.067a5.308 5.308 0 0 1-1.551-1.796c-.376-.712-.572-1.569-.604-2.556h3.723v-.032Zm12.183-11.274h2.793v-4.982h3.691v4.982h3.331v2.733h-3.331v8.865c0 .388.016.711.049 1.002.032.275.114.518.228.712.115.194.294.34.539.437.245.097.556.145.98.145.262 0 .523 0 .784-.016s.523-.048.784-.113v2.83c-.408.05-.816.082-1.192.13a9.645 9.645 0 0 1-1.192.065c-.98 0-1.764-.097-2.352-.275-.588-.178-1.062-.453-1.388-.809-.343-.356-.555-.792-.686-1.326a9.88 9.88 0 0 1-.212-1.828V25.04h-2.793v-2.766h-.033Zm12.428 0h3.495v2.248h.066c.522-.97 1.241-1.65 2.172-2.07a7.217 7.217 0 0 1 3.021-.631c1.323 0 2.466.226 3.446.695a6.732 6.732 0 0 1 2.45 1.893c.653.809 1.126 1.747 1.453 2.815.327 1.067.49 2.215.49 3.429 0 1.116-.147 2.2-.441 3.235a8.621 8.621 0 0 1-1.323 2.782c-.588.809-1.339 1.44-2.254 1.925-.914.485-1.976.728-3.217.728a9.103 9.103 0 0 1-1.617-.146 7.16 7.16 0 0 1-1.551-.469 5.607 5.607 0 0 1-1.372-.825 5.154 5.154 0 0 1-1.061-1.165h-.066V45h-3.691V22.274Zm12.902 8.314c0-.744-.098-1.472-.294-2.184a5.864 5.864 0 0 0-.882-1.876 4.484 4.484 0 0 0-1.453-1.31 4.108 4.108 0 0 0-2.009-.502c-1.551 0-2.727.534-3.511 1.602-.784 1.067-1.176 2.49-1.176 4.27 0 .841.098 1.617.31 2.33.213.71.507 1.326.931 1.843.408.518.898.922 1.47 1.213.572.308 1.241.453 1.992.453.85 0 1.552-.178 2.14-.517a4.504 4.504 0 0 0 1.437-1.327 5.49 5.49 0 0 0 .816-1.86 10.3 10.3 0 0 0 .229-2.135Zm6.516-14.639h3.691v3.462h-3.691v-3.462Zm0 6.325h3.691V38.87h-3.691V22.274Zm6.99-6.325h3.691v22.92h-3.691V15.95Zm15.008 23.374c-1.339 0-2.531-.227-3.576-.663a7.902 7.902 0 0 1-2.662-1.812 7.875 7.875 0 0 1-1.65-2.766c-.375-1.068-.571-2.248-.571-3.526 0-1.262.196-2.427.571-3.494a7.875 7.875 0 0 1 1.65-2.766c.718-.777 1.617-1.375 2.662-1.812 1.045-.437 2.237-.663 3.576-.663 1.34 0 2.532.226 3.577.663a7.902 7.902 0 0 1 2.662 1.812 7.873 7.873 0 0 1 1.649 2.766c.376 1.067.572 2.232.572 3.494 0 1.277-.196 2.458-.572 3.526a7.873 7.873 0 0 1-1.649 2.766c-.719.776-1.617 1.375-2.662 1.812-1.045.436-2.237.663-3.577.663Zm0-2.896c.817 0 1.536-.178 2.14-.517a4.54 4.54 0 0 0 1.486-1.343c.392-.55.669-1.18.865-1.876.18-.696.278-1.408.278-2.135 0-.712-.098-1.408-.278-2.12a5.496 5.496 0 0 0-.865-1.876 4.493 4.493 0 0 0-1.486-1.326c-.604-.34-1.323-.518-2.14-.518-.816 0-1.535.178-2.139.518a4.678 4.678 0 0 0-1.486 1.326c-.392.55-.67 1.165-.866 1.877a8.61 8.61 0 0 0-.277 2.119c0 .727.098 1.44.277 2.135.18.695.474 1.326.866 1.876a4.54 4.54 0 0 0 1.486 1.343c.604.356 1.323.517 2.139.517Zm9.538-14.153h2.792v-4.982h3.691v4.982H185v2.733h-3.332v8.865c0 .388.017.711.049 1.002.033.275.115.518.229.712.114.194.294.34.539.437.245.097.555.145.98.145.261 0 .522 0 .784-.016.261-.016.522-.048.784-.113v2.83c-.409.05-.817.082-1.193.13a9.645 9.645 0 0 1-1.192.065c-.98 0-1.764-.097-2.352-.275-.587-.178-1.061-.453-1.388-.809-.343-.356-.555-.792-.686-1.326a9.88 9.88 0 0 1-.212-1.828V25.04h-2.793v-2.766h-.032Z" fill="#313131"/><path d="M44.307 15.949h-16.92L22.161 0 16.92 15.949 0 15.933 13.702 25.8 8.46 41.733l13.701-9.851 13.686 9.85L30.621 25.8l13.686-9.851Z" fill="#00B67A"/><path d="m31.8 29.406-1.176-3.607-8.46 6.082 9.635-2.475Z" fill="#005128"/></g><defs><clipPath id="a"><path fill="#fff" d="M0 0h185v45H0z"/></clipPath></defs></svg>