<svg width="33" height="34" fill="none" xmlns="http://www.w3.org/2000/svg"><path d="M15.055 20.97a2.04 2.04 0 0 1 1.421-.518c.259.007.512.063.745.166.233.102.441.248.613.43l7.158 7.629 2.913-2.597-7.171-7.604c-.735-.76-.66-1.97.153-2.68l.483-.31 4.081-2.172L5.979 5.71l6.096 19.42 2.6-3.724.381-.437ZM26.14 32.73a2.03 2.03 0 0 1-2.159.368 1.877 1.877 0 0 1-.614-.428l-6.79-7.25-3.59 5.125a1.946 1.946 0 0 1-1.045.764c-.5.157-1.04.117-1.5-.11a1.847 1.847 0 0 1-.951-1.1L1.009 3.075a1.847 1.847 0 0 1 .152-1.447c.248-.45.668-.79 1.168-.946a2.075 2.075 0 0 1 1.336.035L3.68.693l27.114 10.568c.341.132.635.355.846.643.212.289.333.63.35.987.016.357-.072.714-.255 1.03a2.012 2.012 0 0 1-.781.753l-5.607 2.987 6.822 7.22c.773.747.654 1.952-.158 2.662l-5.87 5.187Z" fill="#FD804C"/></svg>