<svg width="40" height="32" fill="none" xmlns="http://www.w3.org/2000/svg"><path d="M33.795.266a5.795 5.795 0 0 1 5.796 5.795V25.38a5.795 5.795 0 0 1-5.796 5.796H6.75a5.796 5.796 0 0 1-5.795-5.796V6.061A5.795 5.795 0 0 1 6.75.266h27.045Zm1.932 11.59H4.818V25.38a1.932 1.932 0 0 0 1.706 1.919l.226.013h27.045a1.932 1.932 0 0 0 1.919-1.706l.013-.226V11.856Zm-5.795 5.796a1.932 1.932 0 0 1 .226 3.85l-.226.014h-5.796a1.932 1.932 0 0 1-.226-3.85l.226-.014h5.796Zm3.863-13.523H6.75a1.932 1.932 0 0 0-1.932 1.932v1.932h30.91V6.06a1.932 1.932 0 0 0-1.933-1.932Z" fill="#FD804C"/></svg>