<svg width="39" height="29" fill="none" xmlns="http://www.w3.org/2000/svg"><path d="M18.563 21.66a8.58 8.58 0 0 0 4.462-1.254l4.575 4.372 2.662-2.544-4.575-4.354a7.778 7.778 0 0 0 1.314-4.061 7.744 7.744 0 0 0-1.04-4.133 8.21 8.21 0 0 0-3.103-3.046 8.703 8.703 0 0 0-4.296-1.105c-4.687 0-8.437 3.583-8.437 8.063 0 4.479 3.75 8.062 8.438 8.062Zm0-12.542a4.8 4.8 0 0 1 3.314 1.312 4.38 4.38 0 0 1 1.373 3.168 4.38 4.38 0 0 1-1.373 3.167 4.8 4.8 0 0 1-3.314 1.312 4.8 4.8 0 0 1-3.315-1.312 4.38 4.38 0 0 1-1.373-3.167 4.38 4.38 0 0 1 1.373-3.168 4.8 4.8 0 0 1 3.315-1.312ZM34.5.16h-30C2.437.16.75 1.773.75 3.743v21.5c0 1.971 1.688 3.584 3.75 3.584h30c2.063 0 3.75-1.613 3.75-3.584v-21.5c0-1.97-1.688-3.583-3.75-3.583Zm0 25.084h-30v-21.5h30v21.5Z" fill="#FD804C"/></svg>