<svg width="50" height="50" viewBox="0 0 50 50" fill="none" xmlns="http://www.w3.org/2000/svg">
<g clip-path="url(#clip0_4177_16514)">
<rect width="50" height="50" fill="white"/>
<g clip-path="url(#clip1_4177_16514)">
<path d="M47.9706 4.08867C47.8731 3.72959 47.6787 3.40208 47.4073 3.13976C47.136 2.87744 46.7974 2.68976 46.4263 2.59599C41.9818 1.48107 37.3028 1.60117 32.9256 2.94253C28.5509 4.28288 24.6557 6.79108 21.6876 10.1788L19.269 12.9499L13.6276 11.6364C12.2554 11.1734 10.7566 11.2058 9.40712 11.7277C8.05877 12.2494 6.95097 13.2258 6.28833 14.4766L1.52247 22.6389C1.35526 22.9248 1.26001 23.2448 1.24446 23.5729C1.2289 23.9011 1.29349 24.2282 1.43296 24.5276C1.57243 24.8271 1.78287 25.0905 2.0472 25.2965C2.31152 25.5025 2.62229 25.6453 2.95428 25.7133L9.6127 27.0924C9.04865 28.7508 8.64581 30.4565 8.40945 32.1874C8.36674 32.5052 8.40016 32.8283 8.5071 33.1316C8.61405 33.4349 8.79166 33.7103 9.02619 33.9365L15.7414 40.4258C15.9654 40.6419 16.2355 40.808 16.5328 40.9123C16.8301 41.0167 17.1473 41.0568 17.4623 41.0299C19.2941 40.871 21.1038 40.5273 22.8618 40.0044L24.2574 46.2912C24.3283 46.6126 24.4765 46.9132 24.69 47.1687C24.9035 47.4242 25.1762 47.6273 25.486 47.7616C25.796 47.8963 26.1344 47.9586 26.4738 47.9435C26.8132 47.9285 27.1442 47.8365 27.4402 47.675L35.9005 43.067C37.0918 42.3704 38.0229 41.3246 38.5587 40.0811C39.0945 38.8376 39.2071 37.4611 38.8802 36.1515L37.4327 30.3751L40.1125 27.995C43.629 25.1398 46.235 21.3761 47.6271 17.1423C49.019 12.9109 49.1373 8.38342 47.9706 4.08867ZM6.74303 22.2163L10.1146 16.4399C10.3248 16.0476 10.6819 15.7479 11.1128 15.6021C11.5437 15.4563 12.0159 15.4754 12.4328 15.6555L16.155 16.5254L14.7462 18.141C13.4111 19.6863 12.2561 21.3694 11.3021 23.1599L6.74303 22.2163ZM33.7588 39.4249L27.8768 42.6315L26.9456 38.4344C28.8315 37.5259 30.5889 36.3864 32.1747 35.044L33.7842 33.6157L34.6598 37.0975C34.7733 37.528 34.7478 37.982 34.5867 38.3981C34.4257 38.8142 34.1367 39.1726 33.7588 39.4249ZM37.2574 24.8469L29.2735 31.9334C26.1119 34.5743 22.2149 36.2523 18.0718 36.7568L12.8621 31.725C13.5624 27.7087 15.3585 23.9466 18.0645 20.8278L21.7021 16.6565C21.7626 16.5968 21.8194 16.5324 21.8714 16.4645L24.9805 12.8961C27.2811 10.2722 30.2592 8.28589 33.6113 7.1396C36.9656 5.99213 40.5739 5.72513 44.0694 6.36574C44.748 9.75303 44.474 13.2546 43.2761 16.5043C42.0773 19.7562 39.9992 22.6373 37.2586 24.8469H37.2574ZM35.2584 11.9455C34.6162 11.9458 33.9884 12.1301 33.4541 12.4751C32.9198 12.8201 32.5028 13.3103 32.2557 13.8842C32.0095 14.4577 31.945 15.0891 32.0703 15.6982C32.1957 16.3073 32.5051 16.8666 32.9595 17.3051C33.4144 17.745 33.9938 18.0444 34.6245 18.1655C35.2552 18.2866 35.9089 18.2238 36.5028 17.9853C37.0955 17.7477 37.6023 17.3455 37.9591 16.8294C38.3159 16.3133 38.5069 15.7064 38.5078 15.0854C38.5078 14.253 38.1655 13.4534 37.5561 12.8656C36.9462 12.2765 36.1199 11.9455 35.2584 11.9455Z" fill="#FD804C"/>
</g>
</g>
<defs>
<clipPath id="clip0_4177_16514">
<rect width="50" height="50" fill="white"/>
</clipPath>
<clipPath id="clip1_4177_16514">
<rect width="52" height="48" fill="white" transform="translate(-1 2)"/>
</clipPath>
</defs>
</svg>
