<svg width="33" height="43" fill="none" xmlns="http://www.w3.org/2000/svg"><path d="m16.5 41.516-.123-.031c-4.611-1.169-8.413-3.835-11.398-7.969l11.521 8Zm0 0 .123-.031m-.123.03.123-.03m0 0c4.611-1.169 8.414-3.835 11.4-7.969 2.982-4.13 4.477-8.725 4.477-13.771V7.504l-.323-.122-15.5-5.85-.177-.066-.177.066-15.5 5.85-.323.122m16.123 33.98L.5 7.505m0 0v.346m0-.346v.346m0 0v11.895c0 5.046 1.495 9.641 4.48 13.771L.5 7.85Zm23.918 22.338c-2.106 3.087-4.745 5.14-7.918 6.191-3.173-1.05-5.812-3.104-7.918-6.19-2.139-3.134-3.207-6.611-3.207-10.444v-8.868L16.5 6.678l11.125 4.199v8.868c0 3.833-1.068 7.31-3.207 10.443Z" fill="#FD804C" stroke="#FD804C"/></svg>