<svg width="50" height="50" viewBox="0 0 50 50" fill="none" xmlns="http://www.w3.org/2000/svg">
<g clip-path="url(#clip0_4177_16518)">
<rect width="50" height="50" fill="white"/>
<path d="M45.4615 3.00126H3V17.2117H45.4615V3.00126ZM40.7436 12.4745H7.71795V7.73724H40.7436V12.4745ZM30.1282 21.949C30.7887 21.949 31.3077 22.4693 31.3077 23.1333V26.6849H17.1538V23.132C17.1538 22.4693 17.6728 21.9477 18.3333 21.9477H30.1282V21.949ZM38.3846 26.8979V19.5791H43.1026V26.8979C42.3234 26.7794 41.5456 26.6837 40.7436 26.6837C39.9415 26.6837 39.1638 26.7794 38.3846 26.8979ZM26.5897 40.8954C26.5897 42.5522 26.8957 44.1397 27.4161 45.6326H5.35897V19.5778H10.0769V40.8954H26.5897ZM49 36.7503L37.7942 48L31.3077 40.8941L34.0441 38.1475L37.7942 41.9134L46.2636 33.4103L49 36.7503Z" fill="#FD804C"/>
</g>
<defs>
<clipPath id="clip0_4177_16518">
<rect width="50" height="50" fill="white"/>
</clipPath>
</defs>
</svg>
