<svg width="32" height="32" fill="none" xmlns="http://www.w3.org/2000/svg"><path d="M16 30a13.954 13.954 0 0 0 9.9-4.1A13.955 13.955 0 0 0 30 16a13.956 13.956 0 0 0-4.1-9.9A13.955 13.955 0 0 0 16 2a13.957 13.957 0 0 0-9.9 4.1A13.957 13.957 0 0 0 2 16a13.955 13.955 0 0 0 4.1 9.9A13.956 13.956 0 0 0 16 30Z" stroke="#FD804C" stroke-width="4" stroke-linejoin="round"/><path fill-rule="evenodd" clip-rule="evenodd" d="M16 26a2 2 0 1 0 0-4 2 2 0 0 0 0 4Z" fill="#FD804C"/><path d="M16 7.602v11.2" stroke="#FD804C" stroke-width="4" stroke-linecap="round" stroke-linejoin="round"/></svg>