<svg width="50" height="50" viewBox="0 0 50 50" fill="none" xmlns="http://www.w3.org/2000/svg">
<g clip-path="url(#clip0_4177_16521)">
<rect width="50" height="50" fill="white"/>
<g clip-path="url(#clip1_4177_16521)">
<path d="M34.3311 20.3331H29.6649V15.6668C29.6649 15.0479 29.419 14.4543 28.9813 14.0166C28.5437 13.579 27.9501 13.3331 27.3311 13.3331H15.6649C15.0459 13.3331 14.4523 13.579 14.0147 14.0166C13.577 14.4543 13.3311 15.0479 13.3311 15.6668V27.3331C13.331 27.6396 13.3912 27.9432 13.5085 28.2264C13.6257 28.5096 13.7976 28.7669 14.0143 28.9837C14.2311 29.2004 14.4884 29.3723 14.7716 29.4895C15.0548 29.6067 15.3584 29.667 15.6649 29.6668H20.3311V34.3331C20.331 34.6396 20.3912 34.9432 20.5085 35.2264C20.6257 35.5096 20.7976 35.7669 21.0143 35.9837C21.2311 36.2004 21.4884 36.3723 21.7716 36.4895C22.0548 36.6067 22.3584 36.667 22.6649 36.6668H34.3311C34.6376 36.6668 34.9411 36.6065 35.2242 36.4892C35.5074 36.3719 35.7646 36.2 35.9814 35.9833C36.1981 35.7666 36.37 35.5093 36.4872 35.2262C36.6045 34.943 36.6649 34.6396 36.6649 34.3331V22.6668C36.6649 22.3604 36.6045 22.0569 36.4872 21.7738C36.37 21.4906 36.1981 21.2333 35.9814 21.0166C35.7646 20.7999 35.5074 20.628 35.2242 20.5107C34.9411 20.3935 34.6376 20.3331 34.3311 20.3331ZM20.3311 22.6668V24.9994H17.9962V17.9994H24.9962V20.3331H22.6637C22.3572 20.3331 22.0537 20.3935 21.7706 20.5107C21.4874 20.628 21.2302 20.7999 21.0135 21.0166C20.7968 21.2333 20.6249 21.4906 20.5076 21.7738C20.3903 22.0569 20.3311 22.3604 20.3311 22.6668ZM31.9974 31.9994H24.9974V25.0006H31.9974V31.9994ZM45.9974 39.6531V10.3468C46.6273 9.99543 47.1672 9.50272 47.5746 8.90743C47.982 8.31214 48.2457 7.6305 48.3452 6.91606C48.4447 6.20161 48.3771 5.47384 48.1478 4.78992C47.9185 4.10601 47.5337 3.48458 47.0237 2.97447C46.5137 2.46436 45.8923 2.07948 45.2085 1.85005C44.5246 1.62062 43.7968 1.55291 43.0824 1.65223C42.3679 1.75155 41.6862 2.0152 41.0909 2.42246C40.4955 2.82971 40.0027 3.36949 39.6511 3.99936H10.3449C9.9942 3.36729 9.50152 2.82527 8.90569 2.41602C8.30985 2.00678 7.62712 1.74147 6.91129 1.64101C6.19546 1.54055 5.46608 1.60768 4.78061 1.83711C4.09514 2.06654 3.47231 2.452 2.96118 2.96313C2.45005 3.47426 2.06459 4.09709 1.83516 4.78256C1.60573 5.46803 1.5386 6.19741 1.63906 6.91324C1.73952 7.62908 2.00482 8.3118 2.41407 8.90764C2.82332 9.50348 3.36533 9.99615 3.99741 10.3468V39.6531C3.36593 40.004 2.82453 40.4967 2.41583 41.0924C2.00713 41.6881 1.7423 42.3706 1.64217 43.0861C1.54204 43.8015 1.60936 44.5304 1.83882 45.2155C2.06828 45.9005 2.45363 46.5229 2.96451 47.0337C3.47539 47.5445 4.09787 47.9297 4.78294 48.159C5.468 48.3883 6.19695 48.4555 6.91239 48.3553C7.62783 48.255 8.31022 47.99 8.90586 47.5812C9.50149 47.1724 9.99409 46.6309 10.3449 45.9994H39.6511C40.0019 46.6311 40.4944 47.1728 41.0901 47.5818C41.6858 47.9908 42.3683 48.2559 43.0839 48.3562C43.7994 48.4565 44.5285 48.3894 45.2137 48.16C45.8989 47.9306 46.5215 47.5453 47.0324 47.0343C47.5433 46.5234 47.9286 45.9008 48.158 45.2156C48.3874 44.5305 48.4546 43.8014 48.3542 43.0858C48.2539 42.3702 47.9888 41.6877 47.5798 41.0921C47.1708 40.4964 46.6292 40.0038 45.9974 39.6531ZM41.3311 39.6531C40.6294 40.0507 40.0488 40.6314 39.6511 41.3331H10.3449C9.94722 40.6314 9.36658 40.0508 8.66489 39.6531V10.3468C9.36662 9.94922 9.94727 9.36857 10.3449 8.66684H39.6511C40.0488 9.36857 40.6294 9.94922 41.3311 10.3468V39.6531Z" fill="#FD804C"/>
</g>
</g>
<defs>
<clipPath id="clip0_4177_16521">
<rect width="50" height="50" fill="white"/>
</clipPath>
<clipPath id="clip1_4177_16521">
<rect width="49" height="49" fill="white" transform="translate(1 1)"/>
</clipPath>
</defs>
</svg>
