<svg width="33" height="31" fill="none" xmlns="http://www.w3.org/2000/svg"><path d="M.5 28.392V4.117c0-.99.357-1.85 1.057-2.555C2.257.858 3.114.5 4.1.5M.5 28.392l32-24.274M.5 28.392c0 .428.096.825.317 1.165.221.341.544.59.934.757.39.168.792.231 1.19.153.4-.079.748-.29 1.049-.592l3.418-3.437M.5 28.392H1 .5Zm0 0 28.4-1.954M4.1.5V1 .5Zm0 0h24.8c.987 0 1.844.36 2.545 1.064A3.504 3.504 0 0 1 32.5 4.118m0 0V22.82c0 .99-.357 1.85-1.057 2.555-.7.704-1.557 1.063-2.544 1.062M32.5 4.118l-3.6 22.32m0 0H7.407m0 0 .147-.147-.355-.353v.5h.208ZM5.92 22.321h-.208l-.146.147-.967.972V4.617h23.8v17.704H5.921Z" fill="#FD804C" stroke="#FD804C"/></svg>