<svg width="30" height="31" fill="none" xmlns="http://www.w3.org/2000/svg"><path d="M4.614 23.079A2.5 2.5 0 0 0 8.503 21l-3.89 2.079Zm0 0a2.5 2.5 0 0 1-.921-1.122m.92 1.122-.92-1.122m0 0a2.5 2.5 0 0 1-.142-1.445m.142 1.445-.142-1.445m0 0a2.5 2.5 0 0 1 .684-1.28m-.684 1.28.684-1.28m0 0a2.5 2.5 0 0 1 1.28-.684m-1.28.684 1.28-.684m0 0a2.5 2.5 0 0 1 1.444.142m-1.444-.142 1.444.142m0 0a2.5 2.5 0 0 1 1.122.921m-1.122-.92 1.122.92m0 0A2.5 2.5 0 0 1 8.503 21L8.08 19.61ZM27.003 6.5H14.038l2.732-2.732.354-.354-.354-.354-1.414-1.414-.353-.353-.354.353-6 6L8.295 8l.354.354 6 6 .354.353.353-.353 1.414-1.414.354-.354-.354-.354L14.038 9.5h12.465v10h-15.21a5.514 5.514 0 0 0-3.79-3.79V1.5h-3v14.208a5.5 5.5 0 0 0 0 10.585V30.5h3v-4.21a5.514 5.514 0 0 0 3.79-3.79h15.71a2.502 2.502 0 0 0 2.5-2.5V9a2.502 2.502 0 0 0-2.5-2.5Z" fill="#FD804C" stroke="#FD804C"/></svg>