<svg width="23" height="23" fill="none" xmlns="http://www.w3.org/2000/svg"><g clip-path="url(#a)" stroke="#FF9A62"><path d="M13.575 18.568c3.916 0 5.874 0 7.09-1.263 1.216-1.263 1.216-3.296 1.216-7.362 0-4.065 0-6.099-1.217-7.361-1.215-1.264-3.173-1.264-7.089-1.264H9.424c-3.915 0-5.873 0-7.09 1.264-1.216 1.262-1.216 3.296-1.216 7.361 0 4.066 0 6.1 1.217 7.362.678.705 1.586 1.017 2.936 1.153" stroke-width="2.25" stroke-linecap="round" stroke-linejoin="round"/><path d="M14.823 5.408c-.097-.1-.212-.18-.338-.234a1.005 1.005 0 0 0-1.134.237l-4.724 4.956c-.286.3-.48.68-.56 1.095l-.187.966c-.034.174-.026.354.024.524.05.17.139.324.26.45.12.125.27.218.433.27a1 1 0 0 0 .505.025l.93-.194a2.054 2.054 0 0 0 1.054-.583l4.772-4.905a1.112 1.112 0 0 0 .003-1.529l-1.038-1.078Z" stroke-width="1.8" stroke-linecap="round" stroke-linejoin="round"/><path d="m12.016 8.326 1.038 1.078" stroke-width="2.25"/><path d="M13.572 18.568c-1.283 0-2.697.54-3.987 1.235-2.075 1.118-3.112 1.677-3.623 1.32-.51-.355-.414-1.46-.22-3.67l.044-.502" stroke-width="2.25" stroke-linecap="round"/></g><defs><clipPath id="a"><path fill="#fff" d="M0 0h23v23H0z"/></clipPath></defs></svg>