<svg width="23" height="21" fill="none" xmlns="http://www.w3.org/2000/svg"><path d="M8.033 11.605c2.6 0 4.563-1.98 4.563-4.605 0-2.625-1.962-4.605-4.563-4.605S3.469 4.375 3.469 7c0 2.625 1.963 4.605 4.564 4.605Zm0-6.908c1.344 0 2.282.947 2.282 2.303 0 1.356-.938 2.303-2.282 2.303S5.75 8.356 5.75 7c0-1.356.938-2.303 2.282-2.303Zm1.14 8.06H6.893c-3.146 0-5.705 2.582-5.705 5.756v1.151H3.47v-1.151c0-1.904 1.536-3.454 3.423-3.454h2.282c1.887 0 3.422 1.55 3.422 3.454v1.151h2.282v-1.151c0-3.174-2.559-5.757-5.704-5.757ZM19.858.824l-1.613 1.628a8.053 8.053 0 0 1 2.338 5.7 8.053 8.053 0 0 1-2.338 5.698l1.613 1.628a10.346 10.346 0 0 0 3.007-7.327c0-2.766-1.068-5.368-3.007-7.327Z" fill="#FF9A62"/><path d="m16.629 4.08-1.613 1.63a3.438 3.438 0 0 1 1.002 2.441c0 .923-.356 1.79-1.002 2.44l1.613 1.631a5.746 5.746 0 0 0 1.671-4.07c0-1.54-.594-2.985-1.671-4.072Z" fill="#FF9A62"/></svg>