<svg width="24" height="24" fill="none" xmlns="http://www.w3.org/2000/svg"><path d="M15 18.75h5.25v1.5H15v-1.5Zm1.5 3h2.25v1.5H16.5v-1.5Zm3.75-4.5h-1.5c0-.825.3-1.5.9-2.1l.375-.375c.6-.6.975-1.5.975-2.4C21 10.5 19.5 9 17.625 9a3.361 3.361 0 0 0-3.375 3.375c0 .9.375 1.725.975 2.4l.375.375c.6.6.9 1.275.9 2.1H15c0-.375-.15-.75-.45-1.05l-.375-.375a4.946 4.946 0 0 1-1.425-3.45c0-2.7 2.175-4.875 4.875-4.875S22.5 9.675 22.5 12.375c0 1.275-.525 2.55-1.425 3.45l-.375.375c-.3.3-.45.675-.45 1.05ZM4.5 16.5h6V18h-6v-1.5ZM9 15a.75.75 0 1 0 0-1.5.75.75 0 0 0 0 1.5ZM4.5 13.5h2.25V15H4.5v-1.5Zm0-3h5.25V12H4.5v-1.5Zm3-3h5.25V9H7.5V7.5ZM5.25 9a.75.75 0 1 0 0-1.5.75.75 0 0 0 0 1.5ZM12 4.5h3V6h-3V4.5ZM9.75 6a.75.75 0 1 0 0-1.5.75.75 0 0 0 0 1.5ZM4.5 4.5h3V6h-3V4.5Z" fill="#FF9A62"/><path d="M13.5 21H3V3h13.5v3H18V3c0-.825-.675-1.5-1.5-1.5H3c-.825 0-1.5.675-1.5 1.5v18c0 .825.675 1.5 1.5 1.5h10.5V21Z" fill="#FF9A62"/></svg>