<svg width="24" height="24" fill="none" xmlns="http://www.w3.org/2000/svg"><ellipse cx="11.539" cy="12" rx="11.539" ry="12" fill="#435F52" style="mix-blend-mode:lighten"/><path d="m9.203 14.461 5.673-6.337a.863.863 0 0 1 .673-.296c.273 0 .497.099.673.296.177.196.265.447.265.751 0 .305-.088.555-.265.752l-6.346 7.09c-.192.215-.416.322-.673.322-.256 0-.48-.107-.673-.322l-2.5-2.793c-.176-.197-.264-.447-.264-.752 0-.304.088-.555.264-.752a.864.864 0 0 1 .673-.295c.273 0 .497.098.673.295l1.827 2.041Z" fill="#fff"/></svg>