<svg width="23" height="22" fill="none" xmlns="http://www.w3.org/2000/svg"><path d="M10.952 22c.877 0 1.753-.11 2.52-.33-.439-.55-.877-1.21-1.096-1.98-.438.11-.986.11-1.424.11-4.819 0-8.762-3.96-8.762-8.8 0-4.84 3.943-8.8 8.762-8.8.877 0 1.643.11 2.41.33L15.114.77C13.8.33 12.376 0 10.952 0 4.93 0 0 4.95 0 11s4.929 11 10.952 11ZM4.93 10.45l1.533-1.54 3.395 3.41 9.42-9.46 1.532 1.54-10.952 11-4.928-4.95Zm13.69 2.75-1.38 3.025-3 1.375 3 1.386L18.619 22l1.37-3.014L23 17.6l-3.012-1.375L18.62 13.2Z" fill="#FF9A62"/></svg>