<svg width="24" height="22" fill="none" xmlns="http://www.w3.org/2000/svg"><path d="M21 9.166c-3.25.173-6.377 1.206-9 2.974-2.623-1.768-5.75-2.801-9-2.974v2.713a2.1 2.1 0 0 0-1.416.54A1.762 1.762 0 0 0 1 13.72v.92c0 1.017 2 2.024 2 2.024v1.84c2.656.157 5.217.964 7.417 2.338.555.353 1.084.74 1.583 1.158a14.966 14.966 0 0 1 1.583-1.158c2.2-1.374 4.761-2.181 7.417-2.338V16.48a2.1 2.1 0 0 0 1.416-.54c.375-.345.585-.813.584-1.3v-.92c0-.487-.21-.954-.584-1.3A2.1 2.1 0 0 0 21 11.88V9.166Zm-9 10.47a17.668 17.668 0 0 0-7-2.746v-5.638c1.94.359 3.782 1.07 5.417 2.092.555.354 1.084.74 1.583 1.159a14.966 14.966 0 0 1 1.583-1.159A15.548 15.548 0 0 1 19 11.251v5.639a17.667 17.667 0 0 0-7 2.746ZM11 7.333h2v.916h-2v-.916Zm0-3.667h2v.917h-2v-.917Z" fill="#FF9A62"/><path d="M10.998 9.167h2v.917h-2v-.917Zm-2-4.583c.265 0 .52-.097.707-.269a.88.88 0 0 0 .293-.648.836.836 0 0 0-.074-.348.9.9 0 0 0-.214-.295.994.994 0 0 0-.322-.197 1.062 1.062 0 0 0-.38-.067c-.13 0-.26.022-.381.067a1.007 1.007 0 0 0-.324.197.876.876 0 0 0-.295.643.874.874 0 0 0 .288.647c.185.171.438.269.702.27ZM15 4.583c.552 0 1-.41 1-.916 0-.507-.448-.917-1-.917s-1 .41-1 .917c0 .506.448.916 1 .916Z" fill="#FF9A62"/><path d="M16 7.333H8c-.795 0-1.558-.29-2.12-.806A2.642 2.642 0 0 1 5 4.583V2.75c0-.73.317-1.428.88-1.944A3.147 3.147 0 0 1 8 0h8c.795 0 1.558.29 2.12.806.563.516.88 1.215.88 1.944v1.833c0 .73-.317 1.429-.88 1.944a3.147 3.147 0 0 1-2.12.806Zm-8-5.5c-.265 0-.52.097-.707.27A.88.88 0 0 0 7 2.75v1.833a.88.88 0 0 0 .293.648c.188.172.442.269.707.269h8c.265 0 .52-.097.707-.269A.88.88 0 0 0 17 4.583V2.75a.88.88 0 0 0-.293-.648A1.049 1.049 0 0 0 16 1.833H8Z" fill="#FF9A62"/></svg>