<svg width="25" height="25" fill="none" xmlns="http://www.w3.org/2000/svg"><path d="m10.414 15.624-1.473 1.473 1.652 1.652H5.206V8.141a3.125 3.125 0 1 0-2.084 0v10.608a2.083 2.083 0 0 0 2.084 2.084h5.387l-1.652 1.652 1.473 1.473 4.167-4.167-4.167-4.167ZM4.164 6.25a1.042 1.042 0 1 1 0-2.083 1.042 1.042 0 0 1 0 2.083Zm17.708 10.609V6.249a2.083 2.083 0 0 0-2.083-2.083h-5.387l1.652-1.652L14.58 1.04l-4.167 4.167 4.167 4.166 1.473-1.473-1.652-1.652h5.387v10.609a3.125 3.125 0 1 0 2.083 0Zm-1.041 3.975a1.041 1.041 0 1 1 0-2.083 1.041 1.041 0 0 1 0 2.083Z" fill="#FF9A62"/></svg>