<svg width="29" height="30" fill="none" xmlns="http://www.w3.org/2000/svg"><path d="M11.615 17.8H9.692v-2.24h1.923v2.24Zm7.693 0h-1.923v-2.24h1.923v2.24ZM27 15.56v4.48h-1.923v5.6c0 .467-.075.904-.225 1.313-.15.408-.356.764-.616 1.067-.26.303-.566.543-.917.718-.35.175-.726.262-1.127.262H6.808c-.4 0-.777-.087-1.127-.262a2.913 2.913 0 0 1-.917-.718 3.45 3.45 0 0 1-.616-1.067 3.77 3.77 0 0 1-.225-1.313v-5.6H2v-4.48h1.923V12.2c0-.466.075-.903.225-1.312.15-.408.356-.764.616-1.067.26-.303.566-.542.917-.717.35-.175.726-.263 1.127-.263h6.73V5.184a2.062 2.062 0 0 1-.69-.823c-.17-.35-.261-.723-.271-1.12 0-.315.05-.606.15-.875.1-.268.236-.501.406-.7.17-.198.375-.361.616-.49.24-.128.49-.186.751-.175.27 0 .52.059.751.175.23.117.43.275.601.473.17.198.31.437.42.717.111.28.161.572.151.875 0 .397-.085.77-.255 1.12-.17.35-.406.624-.707.823V8.84h6.731c.4 0 .776.088 1.127.263.35.175.656.414.917.717.26.303.465.66.616 1.067.15.409.225.846.225 1.313v3.36H27Zm-3.846-3.36a1.17 1.17 0 0 0-.286-.787c-.19-.221-.415-.332-.676-.332H6.808c-.26 0-.486.11-.676.332a1.17 1.17 0 0 0-.286.788v13.44c0 .303.095.565.286.787.19.221.415.332.676.332h15.384c.26 0 .486-.11.676-.332a1.17 1.17 0 0 0 .286-.788V12.2Zm-12.786 8.085a5.73 5.73 0 0 0 1.893 1.47 5.34 5.34 0 0 0 2.239.525 5.15 5.15 0 0 0 2.239-.507 5.635 5.635 0 0 0 1.893-1.488l1.352 1.593c-.731.852-1.568 1.505-2.51 1.96a6.754 6.754 0 0 1-2.974.682 6.721 6.721 0 0 1-2.96-.682c-.941-.455-1.783-1.108-2.524-1.96l1.352-1.593Z" fill="#FF9A62"/></svg>