<svg width="30" height="30" fill="none" xmlns="http://www.w3.org/2000/svg"><path d="M10.111 21.81h2.261l.703-2.167h3.789l.703 2.166h2.322l-3.667-10.461h-2.444L10.11 21.809Zm3.545-3.962L15 13.762l1.314 4.086h-2.658ZM11.333 4.476V2h7.334v2.476h-7.334ZM15 28c-1.507 0-2.928-.294-4.263-.883a11.232 11.232 0 0 1-3.498-2.398 11.397 11.397 0 0 1-2.369-3.545A10.804 10.804 0 0 1 4 16.857c0-1.527.29-2.966.871-4.318A11.392 11.392 0 0 1 7.24 8.995a11.237 11.237 0 0 1 3.5-2.4A10.431 10.431 0 0 1 15 5.716c1.263 0 2.475.206 3.636.618a11.838 11.838 0 0 1 3.27 1.796l1.71-1.734 1.712 1.734-1.711 1.733a12.088 12.088 0 0 1 1.772 3.312c.407 1.176.611 2.404.611 3.683 0 1.527-.29 2.967-.871 4.319a11.393 11.393 0 0 1-2.368 3.543 11.234 11.234 0 0 1-3.5 2.4A10.432 10.432 0 0 1 15 28Zm0-2.476c2.363 0 4.38-.846 6.05-2.538 1.67-1.692 2.506-3.735 2.506-6.129 0-2.393-.836-4.436-2.506-6.128C19.38 9.037 17.363 8.19 15 8.19s-4.38.847-6.05 2.539c-1.67 1.692-2.506 3.735-2.506 6.128 0 2.394.836 4.437 2.506 6.129 1.67 1.692 3.687 2.538 6.05 2.538Z" fill="#FF9A62"/></svg>