<svg width="22" height="22" fill="none" xmlns="http://www.w3.org/2000/svg"><g clip-path="url(#a)"><path d="M10.14 5.402a.884.884 0 0 1 .884-.884h5.572a.884.884 0 0 1 .884.884v5.573a.884.884 0 1 1-1.768 0v-3.44L9.56 13.687a.886.886 0 0 1-1.52-.623.884.884 0 0 1 .27-.628l6.153-6.15h-3.44a.884.884 0 0 1-.883-.884ZM4.11 3.044A3.832 3.832 0 0 1 7.757.393h10.018a3.83 3.83 0 0 1 3.83 3.83v10.121a3.831 3.831 0 0 1-2.357 3.537v.16c0 1.238-.625 2.175-1.543 2.763-.884.566-2.024.809-3.174.802h-.002L9.724 21.6h-4.62c-1.363 0-2.55-.427-3.405-1.232C.842 19.561.39 18.436.39 17.187V6.875c0-1.02.254-1.984.865-2.706.629-.746 1.544-1.125 2.618-1.125h.237Zm-.185 1.768h-.052c-.64 0-1.026.211-1.268.496-.259.31-.448.818-.448 1.567v10.312c0 .813.286 1.455.755 1.895.471.445 1.198.751 2.192.751h4.62l4.809.006h.004c.929.005 1.703-.196 2.214-.523.438-.28.686-.648.723-1.141H7.757a3.83 3.83 0 0 1-3.83-3.83V4.812Zm3.83-2.652a2.062 2.062 0 0 0-2.062 2.063v10.121c0 1.14.924 2.063 2.063 2.063h10.018a2.062 2.062 0 0 0 2.062-2.063V4.223a2.062 2.062 0 0 0-2.062-2.063H7.757Z" fill="#FF9A62"/></g><defs><clipPath id="a"><path fill="#fff" d="M0 0h22v22H0z"/></clipPath></defs></svg>