<svg width="27" height="27" fill="none" xmlns="http://www.w3.org/2000/svg"><path d="M18.21 4.3c-.307 0-.601-.121-.818-.337a1.146 1.146 0 0 1 0-1.626c.217-.216.511-.337.819-.337h4.631c.307 0 .602.121.819.337.217.215.339.508.339.813v4.6c0 .305-.122.598-.34.813a1.162 1.162 0 0 1-1.637 0 1.146 1.146 0 0 1-.339-.813V5.926l-6.708 6.662a1.162 1.162 0 0 1-1.637 0l-3.234-3.212-6.128 6.087a1.162 1.162 0 0 1-1.624-.014 1.146 1.146 0 0 1-.014-1.612l6.948-6.9a1.162 1.162 0 0 1 1.637 0l3.234 3.212L20.047 4.3H18.21ZM4.316 20.4v3.45c0 .305-.122.598-.34.813a1.162 1.162 0 0 1-1.637 0A1.146 1.146 0 0 1 2 23.85V20.4c0-.305.122-.598.34-.813a1.162 1.162 0 0 1 1.637 0c.217.215.339.508.339.813Zm5.79-4.6c0-.305-.123-.598-.34-.813a1.162 1.162 0 0 0-1.637 0c-.218.216-.34.508-.34.813v8.05c0 .305.122.598.34.813a1.162 1.162 0 0 0 1.637 0c.217-.215.34-.508.34-.813V15.8Zm4.63 1.15c.308 0 .602.121.82.337.217.216.339.508.339.813v5.75c0 .305-.122.598-.34.813a1.162 1.162 0 0 1-1.637 0 1.146 1.146 0 0 1-.34-.813V18.1c0-.305.123-.598.34-.813.217-.216.512-.337.819-.337Zm6.948-4.6c0-.305-.122-.598-.339-.813a1.162 1.162 0 0 0-1.637 0c-.218.215-.34.508-.34.813v11.5c0 .305.122.598.34.813a1.162 1.162 0 0 0 1.637 0c.217-.215.34-.508.34-.813v-11.5Z" fill="#FF9A62"/></svg>