<svg width="23" height="25" fill="none" xmlns="http://www.w3.org/2000/svg"><path d="M20.128 2.582H2.878c-.653 0-1.28.258-1.742.716a2.436 2.436 0 0 0-.722 1.73v17.12c0 .648.26 1.27.722 1.729a2.474 2.474 0 0 0 1.742.716h17.25c.654 0 1.28-.258 1.743-.716.462-.46.722-1.081.722-1.73V5.027c0-.648-.26-1.27-.722-1.729a2.474 2.474 0 0 0-1.743-.716Zm0 19.565H2.878V5.027h17.25v17.12ZM7.807 19.702H5.343V7.473h2.464v12.229Zm4.928 0h-2.464v-8.56h2.464v8.56Zm4.93 0H15.2v-6.115h2.464v6.115Z" fill="#FF9A62"/></svg>