<svg width="31" height="31" fill="none" xmlns="http://www.w3.org/2000/svg"><path d="M5.164 6.458a1.292 1.292 0 0 1 1.292-1.292h18.083a1.292 1.292 0 0 1 1.292 1.292V9.04a1.292 1.292 0 0 1-1.292 1.292H6.456A1.292 1.292 0 0 1 5.164 9.04V6.458Zm0 10.333a1.291 1.291 0 0 1 1.292-1.292h7.75a1.292 1.292 0 0 1 1.291 1.292v7.75a1.292 1.292 0 0 1-1.291 1.292h-7.75a1.292 1.292 0 0 1-1.292-1.292v-7.75Zm15.5 0a1.291 1.291 0 0 1 1.292-1.292h2.583a1.291 1.291 0 0 1 1.292 1.292v7.75a1.292 1.292 0 0 1-1.292 1.292h-2.583a1.292 1.292 0 0 1-1.292-1.292v-7.75Z" stroke="#FF9A62" stroke-width="2.25" stroke-linecap="round" stroke-linejoin="round"/></svg>