<svg width="28" height="29" fill="none" xmlns="http://www.w3.org/2000/svg"><path d="M10.9 20.6h6.192M13.996 2.072v1.324M22.43 5.56l-.937.935m4.43 7.487h-1.325m-21.202 0H2.07M6.5 6.496l-.937-.935m3.748 13.102a6.615 6.615 0 0 1-1.436-7.211 6.619 6.619 0 0 1 6.121-4.085 6.631 6.631 0 0 1 6.121 4.085 6.609 6.609 0 0 1-1.435 7.21l-.726.725a4.465 4.465 0 0 0-1.31 3.157v.703a2.645 2.645 0 0 1-2.65 2.647 2.652 2.652 0 0 1-2.65-2.647v-.703a4.465 4.465 0 0 0-1.31-3.157l-.725-.724Z" stroke="#FF9A62" stroke-width="2.25" stroke-linecap="round" stroke-linejoin="round"/></svg>