<svg width="27" height="27" fill="none" xmlns="http://www.w3.org/2000/svg"><path d="M13.174 20.239A6.742 6.742 0 0 1 6.75 13.5a6.755 6.755 0 0 1 6.75-6.75 6.743 6.743 0 0 1 6.739 6.424l-2.363-.709a4.499 4.499 0 1 0-5.411 5.411l.709 2.363ZM24.75 13.5c0 .338-.011.675-.045 1.012l-2.216-.663c.011-.113.011-.236.011-.349 0-4.973-4.027-9-9-9s-9 4.027-9 9 4.027 9 9 9c.113 0 .236 0 .349-.011l.663 2.216c-.337.034-.675.045-1.012.045-6.21 0-11.25-5.04-11.25-11.25S7.29 2.25 13.5 2.25 24.75 7.29 24.75 13.5Zm-4.241 4.793 2.553-.855c.518-.17.507-.912-.01-1.07l-8.55-2.564c-.428-.124-.833.27-.698.697l2.565 8.55c.157.529.9.54 1.069.012l.855-2.554 4.398 4.398a.557.557 0 0 0 .799 0l1.429-1.428a.557.557 0 0 0 0-.799l-4.41-4.387Z" fill="#FF9A62"/></svg>