<svg width="30" height="30" fill="none" xmlns="http://www.w3.org/2000/svg"><path d="M22.5 15c-.688 0-1.25.563-1.25 1.25v6.525c0 .688-.563 1.25-1.25 1.25H7.5c-.688 0-1.25-.563-1.25-1.25V10c0-.688.563-1.25 1.25-1.25h6.25c.688 0 1.25-.563 1.25-1.25 0-.688-.563-1.25-1.25-1.25h-7.5a2.507 2.507 0 0 0-2.5 2.5v15c0 1.375 1.125 2.5 2.5 2.5h15c1.375 0 2.5-1.125 2.5-2.5v-7.5c0-.688-.563-1.25-1.25-1.25Zm3.775-8.75H23.75V3.725c0-.675-.55-1.225-1.225-1.225h-.037a1.23 1.23 0 0 0-1.238 1.225V6.25h-2.512c-.675 0-1.226.55-1.238 1.225v.038c0 .687.55 1.237 1.238 1.237h2.512v2.512c0 .675.55 1.238 1.238 1.226h.037c.675 0 1.225-.55 1.225-1.226V8.75h2.525c.675 0 1.225-.55 1.225-1.225v-.05c0-.675-.55-1.225-1.225-1.225Z" fill="#FF9A62"/><path d="M17.5 11.25H10c-.688 0-1.25.563-1.25 1.25 0 .688.563 1.25 1.25 1.25h7.5c.688 0 1.25-.563 1.25-1.25 0-.688-.563-1.25-1.25-1.25Zm0 3.75H10c-.688 0-1.25.563-1.25 1.25 0 .688.563 1.25 1.25 1.25h7.5c.688 0 1.25-.563 1.25-1.25 0-.688-.563-1.25-1.25-1.25Zm0 3.75H10c-.688 0-1.25.563-1.25 1.25 0 .688.563 1.25 1.25 1.25h7.5c.688 0 1.25-.563 1.25-1.25 0-.688-.563-1.25-1.25-1.25Z" fill="#FF9A62"/></svg>