<svg width="26" height="26" fill="none" xmlns="http://www.w3.org/2000/svg"><path d="M3.25 17.333V8.667A5.417 5.417 0 0 1 8.667 3.25h8.666a5.417 5.417 0 0 1 5.417 5.417v8.666a5.417 5.417 0 0 1-5.417 5.417H8.667a5.417 5.417 0 0 1-5.417-5.417Z" stroke="#FF9A62" stroke-width="2.3"/><path d="M17.875 15.709S16.25 17.876 13 17.876s-4.875-2.167-4.875-2.167" stroke="#FF9A62" stroke-width="2.3" stroke-linecap="round" stroke-linejoin="round"/><path d="M9.206 10.833a.542.542 0 1 1 0-1.083.542.542 0 0 1 0 1.083Zm7.583 0a.542.542 0 1 1 0-1.083.542.542 0 0 1 0 1.083Z" fill="#FF9A62" stroke="#FF9A62" stroke-width="2.3" stroke-linecap="round" stroke-linejoin="round"/></svg>