<svg width="27" height="25" fill="none" xmlns="http://www.w3.org/2000/svg"><path d="M13.5 22.917H5.625c-.298 0-.585-.11-.795-.305a1.004 1.004 0 0 1-.33-.736V3.126c0-.277.119-.542.33-.737.21-.195.497-.305.795-.305h15.75c.298 0 .584.11.796.305.21.195.329.46.329.737V12.5m-2.531 10.416v-6.77" stroke="#FF9A62" stroke-width="2.25" stroke-linecap="round" stroke-linejoin="round"/><path d="m17.438 17.969.843-.782 1.688-1.562 1.687 1.563.844.78" stroke="#FF9A62" stroke-width="2.25" stroke-linecap="round" stroke-linejoin="round"/><path d="M9 8.334h9m-9 4.167h4.5" stroke="#FF9A62" stroke-width="2.25" stroke-linecap="round"/></svg>