<svg width="24" height="28" fill="none" xmlns="http://www.w3.org/2000/svg"><path d="M22 10.5V8.168c0-.619-.21-1.212-.586-1.65-.375-.437-.884-.683-1.414-.683H4c-.53 0-1.04.246-1.414.683A2.544 2.544 0 0 0 2 8.167v11.667c0 .619.21 1.212.586 1.65.375.438.884.683 1.414.683h10m8-11.666H6m16 0v4.666m-.833 6.417h.233a.56.56 0 0 1 .424.205c.113.131.176.31.176.495v2.683a.763.763 0 0 1-.176.495.56.56 0 0 1-.424.205h-3.8a.56.56 0 0 1-.424-.205.763.763 0 0 1-.176-.495v-2.683c0-.186.063-.364.176-.495a.56.56 0 0 1 .424-.205h.233m3.334 0v-2.042c0-.68-.334-2.041-1.667-2.041s-1.667 1.361-1.667 2.041v2.042m3.334 0h-3.334" stroke="#FF9A62" stroke-width="2" stroke-linecap="round" stroke-linejoin="round"/></svg>