<svg width="31" height="31" fill="none" xmlns="http://www.w3.org/2000/svg"><path d="M18.175 22.398a4.198 4.198 0 0 0 4.187-4.166l.027-3.372-.04-.185-.11-.23-.187-.145c-.243-.19-1.474.013-1.806-.288-.235-.215-.272-.602-.343-1.13-.132-1.018-.216-1.07-.375-1.417-.582-1.227-2.153-2.149-3.234-2.276h-2.928a4.193 4.193 0 0 0-4.186 4.175v4.868c0 2.29 1.883 4.166 4.187 4.166h4.808Zm-4.755-9.8h2.32c.443 0 .802.361.802.798 0 .436-.359.798-.801.798H13.42a.803.803 0 0 1-.802-.798c0-.437.358-.797.802-.797Zm-.802 5.574c0-.436.358-.794.802-.794h4.715c.44 0 .798.356.798.794a.8.8 0 0 1-.798.793H13.42a.802.802 0 0 1-.802-.793Z" fill="#FB6D33"/><path d="M7.862 5.226A2.642 2.642 0 0 0 5.22 7.868v15.85a2.642 2.642 0 0 0 2.642 2.642h15.85a2.642 2.642 0 0 0 2.642-2.642V7.868a2.642 2.642 0 0 0-2.642-2.642H7.862Zm0-2.642h15.85a5.284 5.284 0 0 1 5.284 5.284v15.85a5.284 5.284 0 0 1-5.284 5.284H7.862a5.284 5.284 0 0 1-5.284-5.284V7.868a5.284 5.284 0 0 1 5.284-5.284Z" fill="#FB6D33"/></svg>