<svg width="42" height="38" fill="none" xmlns="http://www.w3.org/2000/svg"><path fill-rule="evenodd" clip-rule="evenodd" d="M18.722 33.916c.38 0 .733-.206.921-.536l7.668-13.46a9.74 9.74 0 0 0 1.217-5.885l-.81-7.363a2.833 2.833 0 0 0-2.481-2.504l-4.851-.578a21.924 21.924 0 0 0-9.51.967A5.372 5.372 0 0 0 7.57 7.69l-3.905 9.923a3.254 3.254 0 0 0 3.587 4.4l7.828-1.36a3.579 3.579 0 0 1 4.125 4.218l-1.524 7.78a1.062 1.062 0 0 0 1.04 1.265Zm3.907 1.166a4.498 4.498 0 0 1-8.321-3.091l1.524-7.783a.127.127 0 0 0 0-.068.15.15 0 0 0-.039-.058.152.152 0 0 0-.057-.039.132.132 0 0 0-.07-.002L7.842 25.4a6.692 6.692 0 0 1-7.375-9.045l3.905-9.923a8.814 8.814 0 0 1 5.42-5.136 25.365 25.365 0 0 1 11-1.118l4.852.575a6.27 6.27 0 0 1 5.493 5.544l.809 7.363a13.177 13.177 0 0 1-1.65 7.963l-7.666 13.46Z" fill="#FD804C"/><path d="M41.023 15.348a3 3 0 0 1-3 3h-.253a3 3 0 0 1-2.988-2.737l-.97-11A3 3 0 0 1 36.8 1.348h1.223a3 3 0 0 1 3 3v11Z" fill="#FD804C"/></svg>