<svg width="42" height="38" fill="none" xmlns="http://www.w3.org/2000/svg"><path fill-rule="evenodd" clip-rule="evenodd" d="M22.302 3.432c-.38 0-.734.206-.921.536l-7.668 13.46a9.739 9.739 0 0 0-1.217 5.884l.809 7.363a2.833 2.833 0 0 0 2.482 2.505l4.851.578c3.203.38 6.45.05 9.51-.968a5.372 5.372 0 0 0 3.305-3.132l3.905-9.923a3.255 3.255 0 0 0-3.586-4.4l-7.829 1.359a3.58 3.58 0 0 1-4.125-4.217l1.524-7.78a1.062 1.062 0 0 0-1.04-1.265Zm-3.908-1.167a4.499 4.499 0 0 1 8.322 3.092l-1.524 7.782a.13.13 0 0 0 0 .07.15.15 0 0 0 .038.056c.016.018.036.031.058.04a.13.13 0 0 0 .069.002l7.826-1.36a6.69 6.69 0 0 1 7.374 9.046l-3.905 9.923a8.813 8.813 0 0 1-5.42 5.135 25.365 25.365 0 0 1-11 1.119l-4.851-.575a6.27 6.27 0 0 1-5.493-5.544l-.81-7.363a13.177 13.177 0 0 1 1.65-7.964l7.666-13.459Z" fill="#FD804C"/><path d="M0 22a3 3 0 0 1 3-3h.253a3 3 0 0 1 2.988 2.736l.971 11A3 3 0 0 1 4.224 36H3a3 3 0 0 1-3-3V22Z" fill="#FD804C"/></svg>