<svg width="25" height="29" fill="none" xmlns="http://www.w3.org/2000/svg"><path d="M15.875 9.667h2.25m-2.25 4.834h2.25m0 4.833H6.875m0-9.667v4.834h4.5V9.667h-4.5Zm-2.25 14.5h15.75c.597 0 1.169-.254 1.591-.708a2.51 2.51 0 0 0 .659-1.708V7.25a2.51 2.51 0 0 0-.659-1.71 2.174 2.174 0 0 0-1.591-.707H4.625c-.597 0-1.169.255-1.591.708a2.51 2.51 0 0 0-.659 1.709v14.5c0 .64.237 1.255.659 1.708.422.454.994.708 1.591.708Z" stroke="#FF9A62" stroke-width="2.25" stroke-linecap="round" stroke-linejoin="round"/></svg>