<svg width="27" height="27" fill="none" xmlns="http://www.w3.org/2000/svg"><path d="M13.162 20.25c-1.8-.094-3.318-.788-4.556-2.081C7.37 16.875 6.75 15.319 6.75 13.5c0-1.875.656-3.469 1.969-4.781C10.03 7.406 11.625 6.75 13.5 6.75c1.819 0 3.375.619 4.669 1.856 1.293 1.238 1.987 2.757 2.081 4.556l-2.363-.703a4.435 4.435 0 0 0-1.575-2.488C15.506 9.324 14.57 9 13.5 9c-1.238 0-2.297.44-3.178 1.322C9.44 11.203 9 12.262 9 13.5c0 1.069.324 2.006.97 2.813a4.44 4.44 0 0 0 2.49 1.575l.702 2.362Zm.338 4.5a10.95 10.95 0 0 1-4.387-.887A11.38 11.38 0 0 1 5.54 21.46a11.353 11.353 0 0 1-2.405-3.572A10.975 10.975 0 0 1 2.25 13.5c0-1.556.296-3.019.886-4.387A11.378 11.378 0 0 1 5.541 5.54a11.353 11.353 0 0 1 3.572-2.405A10.975 10.975 0 0 1 13.5 2.25c1.556 0 3.019.296 4.387.886a11.378 11.378 0 0 1 3.572 2.405 11.369 11.369 0 0 1 2.406 3.572c.59 1.368.886 2.83.885 4.387v.506c0 .169-.019.338-.056.506l-2.194-.675V13.5c0-2.512-.872-4.64-2.616-6.384C18.141 5.372 16.012 4.5 13.5 4.5c-2.512 0-4.64.872-6.384 2.616C5.372 8.859 4.5 10.988 4.5 13.5c0 2.512.872 4.64 2.616 6.384C8.859 21.628 10.988 22.5 13.5 22.5h.338l.675 2.194a2.327 2.327 0 0 1-.507.056H13.5Zm9.197.169-4.416-4.416-.843 2.56c-.094.262-.272.389-.535.38-.262-.01-.44-.145-.534-.409l-2.56-8.521c-.075-.207-.028-.394.141-.563.169-.169.356-.216.563-.14l8.521 2.559c.263.093.399.272.409.534.01.263-.117.44-.38.535l-2.56.843 4.416 4.416a.54.54 0 0 1 0 .788l-1.435 1.434a.54.54 0 0 1-.787 0Z" fill="#FF9A62"/></svg>