<svg width="27" height="27" fill="none" xmlns="http://www.w3.org/2000/svg"><path d="M8.45 24.994a4.498 4.498 0 0 1-2.056-.564c-.65-.355-1.265-.879-1.844-1.571-.8-.976-1.425-2.14-1.876-3.493A13.068 13.068 0 0 1 2 15.202c0-1.688.315-3.274.946-4.759A12.355 12.355 0 0 1 5.51 6.57a12.1 12.1 0 0 1 3.81-2.607C10.78 3.322 12.34 3 14 3c1.66 0 3.22.325 4.68.976a12.07 12.07 0 0 1 3.81 2.654 12.626 12.626 0 0 1 2.566 3.935c.63 1.505.945 3.122.944 4.85 0 1.566-.25 3.03-.75 4.393s-1.21 2.512-2.13 3.447c-.56.57-1.15 1.002-1.77 1.297-.62.296-1.25.443-1.89.442-.36 0-.72-.046-1.08-.137a5.158 5.158 0 0 1-1.08-.412l-1.68-.854a3.27 3.27 0 0 0-.766-.275 3.873 3.873 0 0 0-.854-.091c-.3 0-.585.03-.856.091-.27.061-.525.153-.764.275l-1.68.854c-.38.203-.755.351-1.126.443-.37.092-.745.127-1.124.106Zm.06-2.44c.18 0 .365-.02.556-.061.19-.041.375-.112.554-.214l1.68-.854c.42-.224.855-.386 1.306-.488.45-.102.905-.153 1.364-.153.46 0 .92.051 1.38.153.46.102.9.264 1.32.488l1.71.854c.18.102.36.173.54.214.18.04.36.06.54.06.38 0 .74-.101 1.08-.304.34-.204.68-.509 1.02-.915.64-.773 1.14-1.699 1.5-2.776.36-1.078.54-2.187.54-3.325 0-2.726-.93-5.039-2.79-6.94-1.86-1.9-4.13-2.852-6.81-2.853-2.68 0-4.95.956-6.81 2.868-1.86 1.912-2.79 4.23-2.79 6.955 0 1.16.185 2.288.554 3.386.37 1.098.885 2.023 1.546 2.776.34.407.67.697.99.87.32.173.66.26 1.02.259Zm10.11-8.572h2.46c-.3-1.79-1.115-3.254-2.444-4.393C17.306 8.45 15.76 7.881 14 7.881c-1.76 0-3.31.575-4.65 1.724-1.34 1.15-2.15 2.608-2.43 4.377h2.46c.28-1.098.85-1.983 1.71-2.654A4.608 4.608 0 0 1 14 10.32c.34 0 .66.03.96.092.3.06.59.152.87.274l-3.48 4.729 1.98 1.403 3.39-4.637a5.398 5.398 0 0 1 .9 1.8Z" fill="#FF9A62"/></svg>