<svg width="28" height="28" fill="none" xmlns="http://www.w3.org/2000/svg"><path d="M12.835 26.775V24.44c-2.43-.272-4.516-1.278-6.257-3.018-1.74-1.74-2.747-3.825-3.018-6.257H1.227v-2.333H3.56c.272-2.43 1.279-4.516 3.02-6.257 1.74-1.74 3.825-2.747 6.255-3.018V1.225h2.333v2.333c2.43.272 4.516 1.279 6.257 3.02 1.74 1.74 2.747 3.825 3.018 6.255h2.334v2.333h-2.334c-.272 2.43-1.278 4.516-3.018 6.257-1.74 1.74-3.825 2.747-6.257 3.018v2.334h-2.333Zm1.167-4.609c2.255 0 4.18-.797 5.775-2.391 1.594-1.595 2.391-3.52 2.391-5.775 0-2.256-.797-4.18-2.391-5.775-1.595-1.595-3.52-2.392-5.775-2.392-2.256 0-4.181.797-5.775 2.392C6.632 9.819 5.835 11.745 5.835 14c0 2.255.797 4.18 2.392 5.775 1.594 1.594 3.519 2.391 5.775 2.391Zm0-3.5c-1.284 0-2.382-.457-3.296-1.37-.914-.914-1.371-2.013-1.371-3.296 0-1.284.457-2.382 1.37-3.296.915-.914 2.013-1.371 3.297-1.371 1.283 0 2.382.457 3.295 1.37.914.915 1.371 2.013 1.371 3.297 0 1.283-.457 2.382-1.37 3.295-.914.914-2.013 1.371-3.296 1.371Zm0-2.333a2.25 2.25 0 0 0 1.648-.685A2.241 2.241 0 0 0 16.335 14c0-.642-.229-1.192-.686-1.649a2.242 2.242 0 0 0-1.647-.685c-.642 0-1.192.229-1.649.686A2.242 2.242 0 0 0 11.668 14c0 .641.229 1.19.686 1.648a2.243 2.243 0 0 0 1.648.685Z" fill="#FF9A62"/></svg>