<svg width="27" height="27" fill="none" xmlns="http://www.w3.org/2000/svg"><path d="m20.396 12.981 1.418-1.472a2.87 2.87 0 0 1 1.811-.864V9.476l-6.75-7.01H5.625c-1.249 0-2.25 1.04-2.25 2.337V21.16c0 .62.237 1.214.659 1.652.422.439.994.685 1.591.685h6.75V21.31l.146-.152H5.625V4.803H13.5v8.178h6.896ZM15.75 4.22l6.188 6.426H15.75V4.219Zm5.771 10.9 2.295 2.383-6.896 7.162h-2.295V22.28l6.896-7.162Zm4.185.42-1.102 1.146-2.295-2.384 1.102-1.145a.556.556 0 0 1 .81 0l1.485 1.543a.609.609 0 0 1 0 .84Z" fill="#FF9A62"/></svg>