<svg width="26" height="26" fill="none" xmlns="http://www.w3.org/2000/svg"><g clip-path="url(#a)"><path fill-rule="evenodd" clip-rule="evenodd" d="M11.914 2.166a5.417 5.417 0 1 0 0 10.833 5.417 5.417 0 0 0 0-10.833Zm-3.25 5.417a3.25 3.25 0 1 1 6.5 0 3.25 3.25 0 0 1-6.5 0ZM4.331 20.04c0-.195.097-.53.447-.974.342-.433.871-.897 1.572-1.324 1.4-.856 3.372-1.494 5.564-1.494.406 0 .806.022 1.197.064a1.084 1.084 0 0 0 .229-2.156c-.474-.049-.95-.074-1.426-.074-2.595 0-4.956.752-6.693 1.81-.866.53-1.607 1.154-2.143 1.83-.526.668-.914 1.465-.914 2.318 0 .915.445 1.637 1.087 2.151.606.488 1.407.81 2.257 1.036 1.71.452 3.991.605 6.406.605l.742-.006a1.085 1.085 0 0 0 .98-1.511 1.082 1.082 0 0 0-1.01-.655l-.712.005c-2.372 0-4.423-.155-5.85-.533-.718-.19-1.187-.414-1.457-.63-.236-.19-.276-.33-.276-.462Zm13-.542a1.084 1.084 0 0 1 1.083-1.083h1.073c.604 0 1.094.49 1.094 1.094v2.301a1.084 1.084 0 0 1-.542 2.022h-.53a1.094 1.094 0 0 1-1.095-1.095v-2.155a1.084 1.084 0 0 1-1.083-1.084Zm2.166-4.333a1.083 1.083 0 0 0-.126 2.16l.129.007a1.083 1.083 0 0 0 .126-2.16l-.129-.007Z" fill="#FF9569"/></g><defs><clipPath id="a"><path fill="#fff" d="M0 0h26v26H0z"/></clipPath></defs></svg>