<svg width="23" height="22" fill="none" xmlns="http://www.w3.org/2000/svg"><g clip-path="url(#a)"><path fill-rule="evenodd" clip-rule="evenodd" d="M11.498 2.444c-2.042-.001-4.024.689-5.626 1.958a9.096 9.096 0 0 0-2.584 10.97 9.07 9.07 0 0 0 4.157 4.274 1.135 1.135 0 0 1-1.015 2.03 11.334 11.334 0 0 1-4.568-4.186 11.367 11.367 0 0 1-1.69-5.967c0-6.268 5.07-11.35 11.326-11.35 6.255 0 11.325 5.082 11.325 11.35 0 2.108-.584 4.174-1.69 5.967a11.334 11.334 0 0 1-4.568 4.186 1.13 1.13 0 0 1-1.52-.507 1.139 1.139 0 0 1 .505-1.523 9.07 9.07 0 0 0 4.157-4.273 9.097 9.097 0 0 0-2.584-10.97 9.049 9.049 0 0 0-5.625-1.96Zm0 4.54a4.524 4.524 0 0 0-2.814.978 4.54 4.54 0 0 0-1.292 5.487 4.535 4.535 0 0 0 2.08 2.136 1.134 1.134 0 0 1-1.014 2.03 6.803 6.803 0 0 1-3.115-3.206A6.822 6.822 0 0 1 7.28 6.184a6.787 6.787 0 0 1 8.434 0 6.823 6.823 0 0 1 1.939 8.225 6.803 6.803 0 0 1-3.115 3.205 1.131 1.131 0 0 1-1.512-.51 1.137 1.137 0 0 1 .497-1.52 4.535 4.535 0 0 0 2.08-2.135 4.549 4.549 0 0 0-1.293-5.487 4.524 4.524 0 0 0-2.813-.979Zm-2.266 4.539c0-.602.24-1.18.664-1.605a2.263 2.263 0 0 1 3.867 1.605c0 .602-.239 1.18-.664 1.605a2.263 2.263 0 0 1-3.867-1.605Z" fill="#FF9A62"/></g><defs><clipPath id="a"><path fill="#fff" d="M0 0h23v22H0z"/></clipPath></defs></svg>