<svg width="24" height="25" fill="none" xmlns="http://www.w3.org/2000/svg"><path d="M21.36 20.703H2.625V10.156H8.82c-.105.422-.15.86-.15 1.313 0 3.187 2.655 5.781 5.91 5.781 1.485 0 2.85-.547 3.885-1.438l3.555 3.235 1.23-1.469-3.555-3.234a5.682 5.682 0 0 0 .795-2.875c0-3.188-2.655-5.781-5.91-5.781-2.025 0-3.81 1-4.875 2.515h-7.08V4.297H21.36v.64h1.875v-.64c0-1.078-.84-1.953-1.875-1.953H2.625C1.59 2.344.75 3.219.75 4.297v16.406c0 1.078.84 1.953 1.875 1.953H21.36c1.035 0 1.875-.875 1.875-1.953v-.64H21.36v.64ZM14.58 7.641c2.22 0 4.035 1.718 4.035 3.828s-1.815 3.828-4.035 3.828-4.035-1.719-4.035-3.828c0-2.11 1.815-3.828 4.035-3.828Z" fill="#FF9A62"/></svg>