<svg width="25" height="25" fill="none" xmlns="http://www.w3.org/2000/svg"><path d="M3.127 8.594a5.469 5.469 0 1 1 9.216 3.983 8.607 8.607 0 0 1 4.74 6.382 1.172 1.172 0 1 1-2.315.367 6.25 6.25 0 0 0-12.344 0 1.172 1.172 0 0 1-2.316-.37A8.605 8.605 0 0 1 4.85 12.58a5.457 5.457 0 0 1-1.722-3.985ZM17.19 6.251a4.69 4.69 0 0 1 3.468 7.84 7.829 7.829 0 0 1 4 4.707 1.17 1.17 0 0 1-1.919 1.204c-.15-.141-.261-.32-.321-.517a5.48 5.48 0 0 0-3.94-3.706 1.172 1.172 0 0 1-.898-1.14v-.55a1.172 1.172 0 0 1 .65-1.05 2.344 2.344 0 0 0-1.04-4.445 1.172 1.172 0 0 1 0-2.343Zm-8.594-.782a3.125 3.125 0 1 0-.141 6.249 3.125 3.125 0 0 0 .14-6.249Z" fill="#FF9A62"/></svg>