<svg width="77" height="58" fill="none" xmlns="http://www.w3.org/2000/svg"><path d="M.807 57.667V39.37c0-4.98 1.016-9.986 3.05-15.017 2.032-5.032 4.598-9.682 7.698-13.95 3.1-4.27 6.226-7.725 9.377-10.368l17.38 8.843a62.565 62.565 0 0 0-6.174 13.874c-1.423 4.828-2.11 10.367-2.058 16.618v18.296H.806Zm38.115 0V39.37c0-4.98 1.017-9.986 3.05-15.017 2.032-5.032 4.599-9.682 7.699-13.95 3.1-4.27 6.226-7.725 9.376-10.368l17.381 8.843a62.57 62.57 0 0 0-6.175 13.874C68.83 27.58 68.144 33.12 68.195 39.37v18.296H38.922Z" fill="#EAEDED"/></svg>