<svg width="24" height="23" fill="none" xmlns="http://www.w3.org/2000/svg"><g clip-path="url(#a)"><path d="M20.218 13.33v3.528h3.522v2.353h-3.522v3.528H17.87v-3.528h-3.522v-2.353h3.522V13.33h2.348Zm1.459-10.871a7.063 7.063 0 0 1 .278 9.685l-1.667-1.667c1.562-1.793 1.48-4.604-.273-6.356a4.692 4.692 0 0 0-6.445-.18L12.003 5.35l-1.569-1.408a4.69 4.69 0 0 0-6.426.157 4.709 4.709 0 0 0-.248 6.435l9.898 9.934L12 22.133l-9.954-9.987a7.065 7.065 0 0 1 .28-9.693A7.037 7.037 0 0 1 12 2.19a7.033 7.033 0 0 1 9.677.268Z" fill="#FF9A62"/></g><defs><clipPath id="a"><path fill="#fff" d="M0 0h24v23H0z"/></clipPath></defs></svg>