<svg width="24" height="27" fill="none" xmlns="http://www.w3.org/2000/svg"><path d="M8 3c-1.857 0-3.637.86-4.95 2.393C1.737 6.925 1 9.003 1 11.17c0 2.166.737 4.244 2.05 5.777 1.313 1.532 3.093 2.392 4.95 2.392h1.07a9.604 9.604 0 0 1 0-2.334H8c-1.326 0-2.598-.615-3.536-1.709C3.527 14.202 3 12.717 3 11.17c0-1.548.527-3.032 1.464-4.127C5.402 5.95 6.674 5.334 8 5.334h7.999c.742 0 1.474.192 2.144.563a5.2 5.2 0 0 1 1.73 1.582c.468.67.804 1.453.981 2.294.178.84.193 1.716.045 2.564a8.3 8.3 0 0 1 1.426 2.334 9.363 9.363 0 0 0 .662-3.996 9.146 9.146 0 0 0-1.071-3.873c-.632-1.165-1.505-2.124-2.54-2.789A6.229 6.229 0 0 0 16 3h-8Zm7.999 11.671c-.796 0-1.559.369-2.121 1.026-.563.656-.879 1.547-.879 2.475 0 .929.316 1.82.879 2.476.562.657 1.325 1.026 2.121 1.026s1.559-.37 2.121-1.026c.563-.657.879-1.547.879-2.476 0-.928-.316-1.819-.879-2.476-.562-.656-1.325-1.025-2.121-1.025Zm-5 3.501c0-.91.183-1.807.533-2.62a5.71 5.71 0 0 1 1.484-2.061 4.666 4.666 0 0 1 2.12-1.065 4.312 4.312 0 0 1 2.302.16 4.89 4.89 0 0 1 1.997 1.348c.566.626 1 1.397 1.265 2.252a6.75 6.75 0 0 1 .264 2.675 6.47 6.47 0 0 1-.793 2.529l2.535 2.96L21.292 26l-2.536-2.959a4.53 4.53 0 0 1-2.53.962 4.424 4.424 0 0 1-2.595-.69c-.796-.5-1.46-1.241-1.924-2.147A6.592 6.592 0 0 1 11 18.172Z" fill="#FF9A62"/></svg>