<svg width="23" height="23" fill="none" xmlns="http://www.w3.org/2000/svg"><g clip-path="url(#a)"><path d="M7.668 10.062h7.667m-7.667 3.354h5.27m3.355-10.218A9.583 9.583 0 0 0 1.918 11.5c0 1.534.36 2.983 1 4.268.17.341.227.731.128 1.1L2.476 19A1.246 1.246 0 0 0 4 20.525l2.134-.57c.37-.093.762-.048 1.1.127a9.583 9.583 0 0 0 13.85-8.583 9.537 9.537 0 0 0-1.282-4.791" stroke="#FF9A62" stroke-width="2.5" stroke-linecap="round"/></g><defs><clipPath id="a"><path fill="#fff" d="M0 0h23v23H0z"/></clipPath></defs></svg>