<svg width="24" height="24" fill="none" xmlns="http://www.w3.org/2000/svg"><path d="M17 12a5 5 0 1 0-4.477-2.774c.091.177.115.38.067.574l-.298 1.113a.65.65 0 0 0 .796.796l1.113-.298a.817.817 0 0 1 .574.067A4.98 4.98 0 0 0 17 12Z" stroke="#FF9A62" stroke-width="2.1"/><path d="m14.556 15.546.544.517-.544-.516Zm3.446 5.707-.545-.517.544.517h.001Zm-1.326.71.074.745-.074-.746v.001Zm-2.031-5.42.455-.48-1.088-1.034-.455.481 1.088 1.032Zm1.954-.683 1.91 1.101.748-1.3-1.91-1.1-.748 1.3Zm2.279 3.38-1.42 1.495 1.087 1.034 1.42-1.495-1.087-1.034Zm-2.275 1.975c-1.435.141-5.18.021-9.244-4.257L6.272 17.99c4.429 4.663 8.654 4.9 10.478 4.718l-.147-1.493Zm-9.244-4.257c-3.876-4.08-4.526-7.524-4.607-9.034l-1.498.081c.1 1.85.884 5.633 5.018 9.985l1.087-1.032Zm1.376-6.638.286-.302-1.087-1.033-.287.302 1.088 1.033Zm.512-4.062L7.986 4.476l-1.225.866 1.26 1.783 1.226-.866ZM3.717 4.09 2.149 5.744l1.088 1.033 1.57-1.653-1.088-1.033h-.002Zm4.474 5.713c-.18-.173-.362-.345-.545-.515l-.002.002-.003.003a.823.823 0 0 0-.05.058c-.098.13-.176.274-.23.427-.098.275-.15.64-.084 1.093.13.892.715 2.091 2.242 3.7l1.088-1.034c-1.428-1.503-1.78-2.428-1.846-2.884-.032-.22 0-.335.013-.372l.008-.019a.261.261 0 0 1-.037.047l-.005.005a.106.106 0 0 1-.003.003l-.001.001s-.002.002-.545-.515Zm1.328 4.768c1.523 1.604 2.673 2.233 3.55 2.376.451.073.816.014 1.092-.095a1.52 1.52 0 0 0 .457-.284l.014-.014a.471.471 0 0 0 .01-.01c0-.002.003-.002-.541-.519-.544-.516-.543-.517-.543-.518h.002l.002-.004a.118.118 0 0 0 .005-.005l.01-.01a.451.451 0 0 1 .037-.032c.01-.006.009-.004-.004.001-.02.008-.11.04-.3.01-.402-.067-1.27-.42-2.703-1.93l-1.088 1.034ZM7.986 4.476C6.972 3.042 4.944 2.8 3.718 4.091l1.086 1.033c.523-.55 1.445-.507 1.957.218l1.225-.866ZM2.752 7.924c-.022-.4.153-.799.485-1.147L2.149 5.744c-.536.564-.944 1.347-.895 2.261l1.498-.08Zm14.705 12.812c-.279.294-.57.451-.854.48l.147 1.492c.747-.073 1.352-.472 1.795-.939l-1.088-1.032ZM9.021 10.02c.969-1.02 1.036-2.613.226-3.76l-1.225.866c.422.597.357 1.392-.088 1.86l1.087 1.034Zm9.488 6.942c.821.473.982 1.635.369 2.28l1.087 1.033c1.305-1.374.925-3.673-.707-4.613l-.749 1.3Zm-3.409-.898c.385-.406.986-.497 1.499-.202l.748-1.3c-1.099-.632-2.46-.45-3.335.47l1.088 1.032Z" fill="#FF9A62"/></svg>