<svg width="31" height="32" fill="none" xmlns="http://www.w3.org/2000/svg"><g clip-path="url(#a)" stroke="#FB6D33" stroke-width="2.5" stroke-linecap="round" stroke-linejoin="round"><path d="M25.466 21.077h2.215a2.22 2.22 0 0 0 2.214-2.219v-3.327a2.22 2.22 0 0 0-2.214-2.219h-2.215a1.106 1.106 0 0 0-1.107 1.11v5.546a1.11 1.11 0 0 0 1.107 1.11Zm0 0v1.664a4.441 4.441 0 0 1-1.297 3.137 4.424 4.424 0 0 1-3.131 1.3M3.324 13.312h2.214a1.106 1.106 0 0 1 1.107 1.11v5.546a1.11 1.11 0 0 1-1.107 1.11H3.324a2.22 2.22 0 0 1-2.214-2.219V15.53a2.22 2.22 0 0 1 2.214-2.219Z"/><path d="M5.54 13.311v-2.218a9.993 9.993 0 0 1 2.918-7.06 9.955 9.955 0 0 1 14.091 0 9.993 9.993 0 0 1 2.919 7.06v2.218M12.182 8.874v3.328m6.643-3.328v3.328m-6.643 4.437c0 2.95 6.643 2.95 6.643 0m-.554 7.765c.734 0 1.438.292 1.957.812a2.776 2.776 0 0 1-1.957 4.734H14.95a2.766 2.766 0 0 1-1.957-.813 2.776 2.776 0 0 1 1.957-4.733h3.321Z"/></g><defs><clipPath id="a"><path fill="#fff" d="M0 0h31v32H0z"/></clipPath></defs></svg>