<svg width="26" height="26" fill="none" xmlns="http://www.w3.org/2000/svg"><g clip-path="url(#a)" stroke="#FF9A62" stroke-linecap="round" stroke-linejoin="round"><path d="M13.108 25.073a3.381 3.381 0 1 0 0-6.762 3.381 3.381 0 0 0 0 6.762Z" stroke-width="1.929"/><path d="m15.538 19.306 6.015-6.015a.562.562 0 0 1 .794 0l1.761 1.792m-4.752.437 1.589 1.589M6.189 23.513h-.78a1.558 1.558 0 0 1-1.557-1.558V6.373A1.558 1.558 0 0 1 5.41 4.814h17.14a1.558 1.558 0 0 1 1.558 1.559v3.895M3.852 9.49h20.256" stroke-width="2.1"/></g><defs><clipPath id="a"><path fill="#fff" d="M0 0h26v26H0z"/></clipPath></defs></svg>