<svg width="23" height="23" fill="none" xmlns="http://www.w3.org/2000/svg"><g clip-path="url(#a)"><path d="M.82 20.537V2.465A1.643 1.643 0 0 1 2.463.822h18.072a1.643 1.643 0 0 1 1.642 1.643v18.072a1.643 1.643 0 0 1-1.642 1.642h-4.929v-7.787h1.167a1.002 1.002 0 0 0 1.002-1.002v-1.265a1.002 1.002 0 0 0-1.002-1.002h-1.101V9.579c0-1.38.624-1.38 1.248-1.38h.805a.904.904 0 0 0 .707-.296.953.953 0 0 0 .296-.706V5.98a1.02 1.02 0 0 0-.986-1.052h-1.89a3.812 3.812 0 0 0-3.926 4.272v1.922h-1.051a1.002 1.002 0 0 0-1.019 1.002v1.265a1.002 1.002 0 0 0 1.019 1.002h1.051v7.787H2.463A1.643 1.643 0 0 1 .82 20.537Z" stroke="#FF9A62" stroke-width="1.929" stroke-linecap="round" stroke-linejoin="round"/></g><defs><clipPath id="a"><path fill="#fff" d="M0 0h23v23H0z"/></clipPath></defs></svg>