<svg width="46" height="46" fill="none" xmlns="http://www.w3.org/2000/svg"><path d="M30.668 19.166h-3.833v-3.833a1.917 1.917 0 0 0-1.917-1.917h-9.583a1.917 1.917 0 0 0-1.917 1.917v9.583a1.916 1.916 0 0 0 1.917 1.917h3.833v3.833a1.916 1.916 0 0 0 1.917 1.917h9.583a1.917 1.917 0 0 0 1.917-1.917v-9.583a1.917 1.917 0 0 0-1.917-1.917Zm-11.5 1.917v1.916H17.25v-5.75h5.75v1.917h-1.916a1.917 1.917 0 0 0-1.917 1.917Zm9.583 7.666h-5.75V23h5.75v5.75Zm11.5 6.287V10.963a3.832 3.832 0 1 0-5.213-5.214H10.965a3.835 3.835 0 1 0-5.214 5.214v24.073a3.834 3.834 0 1 0 5.214 5.213h24.073a3.834 3.834 0 1 0 5.213-5.213Zm-3.833 0a3.66 3.66 0 0 0-1.38 1.38H10.965a3.661 3.661 0 0 0-1.38-1.38V10.963a3.66 3.66 0 0 0 1.38-1.38h24.073a3.66 3.66 0 0 0 1.38 1.38v24.073Z" fill="#FD804C"/></svg>