<svg width="43" height="41" fill="none" xmlns="http://www.w3.org/2000/svg"><path d="M40.492 1.784A1.787 1.787 0 0 0 39.215.509a20.202 20.202 0 0 0-11.164.296 20.163 20.163 0 0 0-9.293 6.181l-2 2.367-4.665-1.122a4.985 4.985 0 0 0-3.49.078 4.972 4.972 0 0 0-2.579 2.348l-3.941 6.972a1.785 1.785 0 0 0 1.184 2.626l5.506 1.178a23.952 23.952 0 0 0-.995 4.352 1.784 1.784 0 0 0 .51 1.494l5.553 5.543a1.793 1.793 0 0 0 1.423.516 21.844 21.844 0 0 0 4.465-.876l1.154 5.37a1.785 1.785 0 0 0 1.016 1.256 1.795 1.795 0 0 0 1.616-.074l6.996-3.936a5.415 5.415 0 0 0 2.464-5.907l-1.197-4.934 2.216-2.033a20.027 20.027 0 0 0 6.214-9.27 19.99 19.99 0 0 0 .285-11.15ZM6.4 17.268l2.788-4.934a1.48 1.48 0 0 1 1.917-.67l3.078.743-1.165 1.38a23.409 23.409 0 0 0-2.848 4.287l-3.77-.806ZM28.74 31.967l-4.864 2.739-.77-3.585a20.324 20.324 0 0 0 4.324-2.896l1.331-1.22.724 2.974a1.857 1.857 0 0 1-.745 1.988Zm2.893-12.452-6.602 6.053a17.528 17.528 0 0 1-9.263 4.12L11.46 25.39a19.524 19.524 0 0 1 4.302-9.308l3.008-3.563c.05-.051.097-.106.14-.164l2.571-3.048a16.624 16.624 0 0 1 7.137-4.917 16.657 16.657 0 0 1 8.648-.661 16.447 16.447 0 0 1-.656 8.66 16.484 16.484 0 0 1-4.976 7.126Zm-1.653-11.02a2.692 2.692 0 0 0-2.483 1.656 2.676 2.676 0 0 0 .582 2.922 2.688 2.688 0 0 0 2.93.581 2.685 2.685 0 0 0 1.658-2.477c0-.711-.283-1.394-.787-1.896a2.69 2.69 0 0 0-1.9-.786Z" fill="#FD804C"/></svg>