<svg width="23" height="23" fill="none" xmlns="http://www.w3.org/2000/svg"><path d="M18.206 1.916H4.789a2.875 2.875 0 0 0-2.875 2.875v1.121c0 .396.081.788.24 1.15v.058c.135.307.327.587.565.824l5.903 5.865v6.315a.958.958 0 0 0 .959.959c.15-.001.297-.037.431-.106l3.833-1.916a.958.958 0 0 0 .527-.853v-4.4l5.865-5.864c.239-.237.43-.517.566-.824v-.058c.171-.36.266-.751.278-1.15V4.791a2.875 2.875 0 0 0-2.875-2.875Zm-5.472 10.82a.958.958 0 0 0-.278.68v4.197l-1.917.959v-5.156a.959.959 0 0 0-.278-.68l-5.079-5.07h12.63l-5.078 5.07Zm6.43-6.987H3.831v-.958a.958.958 0 0 1 .958-.958h13.417a.958.958 0 0 1 .958.958v.958Z" fill="#FF9A62"/></svg>