<svg width="349" height="92" fill="none" xmlns="http://www.w3.org/2000/svg"><path d="M14.708 48 1 0h11.065l7.93 33.352h.398L29.142 0h9.474l8.726 33.422h.42L55.693 0h11.066L53.049 48h-9.871l-9.124-31.383h-.374L24.58 48h-9.872Zm57.965 0V0h32.283v8.367H82.801v11.438h20.493v8.367H82.801v11.46h22.248V48H72.673Zm49.087 0h-10.854l16.539-48h13.053l16.516 48H146.16l-12.002-37.031h-.373L121.76 48Zm-.678-18.867h25.639v7.922h-25.639v-7.922ZM180.256 48h-16.983V0h17.123c4.821 0 8.968.96 12.447 2.883 3.478 1.906 6.152 4.648 8.024 8.226 1.885 3.579 2.829 7.86 2.829 12.844 0 5-.944 9.297-2.829 12.89-1.872 3.594-4.562 6.352-8.07 8.274C189.302 47.04 185.123 48 180.256 48Zm-6.853-8.695h6.432c2.995 0 5.513-.532 7.557-1.594 2.059-1.078 3.601-2.742 4.633-4.992 1.044-2.266 1.567-5.188 1.567-8.766 0-3.547-.523-6.445-1.567-8.695-1.032-2.25-2.567-3.906-4.611-4.969-2.041-1.062-4.561-1.594-7.554-1.594h-6.457v30.61ZM205.992 0h11.347l10.922 20.672h.47L239.654 0H251l-17.473 31.031V48h-10.061V31.031L205.992 0ZM3.662 91.552H0l10.591-28.656h3.606l10.59 28.656h-3.661l-8.62-24.123h-.225l-8.62 24.123Zm1.352-11.194h14.76v3.078H5.014v-3.078Zm28.255-17.462v28.656h-3.493V62.896h3.493Zm24.389 28.656L49.77 62.896h3.55l6.028 23.34h.281l6.14-23.34h3.944l6.141 23.34h.282l6.029-23.34h3.547l-7.886 28.656H74.22l-6.366-22.836h-.225l-6.366 22.836h-3.605ZM97.167 92c-2.086 0-3.883-.457-5.396-1.371-1.502-.924-2.66-2.211-3.479-3.862-.807-1.66-1.21-3.592-1.21-5.793 0-2.202.403-4.142 1.21-5.821.819-1.689 1.954-3.004 3.41-3.946 1.464-.951 3.172-1.427 5.127-1.427 1.126 0 2.24.186 3.336.56 1.099.373 2.099.98 3 1.819.901.83 1.621 1.93 2.155 3.302.535 1.371.804 3.06.804 5.065v1.4H89.449V79.07h13.293c0-1.213-.244-2.295-.731-3.246a5.506 5.506 0 0 0-2.055-2.253c-.883-.55-1.927-.826-3.127-.826-1.325 0-2.47.327-3.438.98a6.456 6.456 0 0 0-2.211 2.518 7.378 7.378 0 0 0-.775 3.33v1.904c0 1.623.283 2.999.846 4.127.572 1.12 1.366 1.973 2.38 2.56 1.014.58 2.193.868 3.536.868.871 0 1.66-.12 2.366-.363a5.06 5.06 0 0 0 1.843-1.12c.518-.504.916-1.129 1.198-1.875l3.212.896a7.07 7.07 0 0 1-1.706 2.854c-.798.812-1.784 1.446-2.956 1.903-1.175.448-2.493.672-3.957.672Zm14.958-.448V62.896h3.325v10.578h.282c.244-.373.582-.849 1.014-1.427.442-.588 1.069-1.11 1.886-1.567.827-.467 1.945-.7 3.352-.7 1.823 0 3.428.452 4.817 1.357 1.391.905 2.473 2.188 3.253 3.848.779 1.66 1.17 3.62 1.17 5.877 0 2.276-.391 4.249-1.17 5.919-.78 1.66-1.858 2.947-3.24 3.862-1.379.904-2.97 1.357-4.773 1.357-1.391 0-2.501-.229-3.338-.686-.835-.466-1.478-.993-1.929-1.58a21.058 21.058 0 0 1-1.042-1.484h-.395v3.302h-3.212Zm3.269-10.746c0 1.623.24 3.055.718 4.296.478 1.23 1.177 2.196 2.099 2.896.92.69 2.046 1.035 3.38 1.035 1.388 0 2.549-.363 3.478-1.09.938-.738 1.644-1.727 2.113-2.967.478-1.25.718-2.64.718-4.17 0-1.511-.235-2.873-.704-4.086-.46-1.222-1.159-2.187-2.099-2.896-.929-.719-2.099-1.078-3.506-1.078-1.352 0-2.488.34-3.41 1.022-.92.671-1.614 1.613-2.083 2.826-.469 1.204-.704 2.608-.704 4.212Zm36.734-5.933-2.987.84a5.509 5.509 0 0 0-.83-1.441c-.358-.476-.846-.868-1.466-1.176-.619-.308-1.412-.462-2.38-.462-1.324 0-2.426.303-3.308.91-.874.597-1.311 1.357-1.311 2.28 0 .822.301 1.47.901 1.946.6.475 1.541.872 2.817 1.189l3.212.783c1.933.467 3.375 1.18 4.322 2.141.95.952 1.423 2.178 1.423 3.68 0 1.232-.356 2.332-1.069 3.303-.706.97-1.692 1.735-2.959 2.294-1.267.56-2.74.84-4.421.84-2.207 0-4.033-.476-5.479-1.427-1.446-.952-2.361-2.342-2.748-4.17l3.155-.784c.301 1.157.869 2.025 1.706 2.603.844.578 1.947.867 3.308.867 1.55 0 2.78-.326 3.691-.979.919-.662 1.379-1.455 1.379-2.379 0-.746-.262-1.371-.789-1.875-.524-.513-1.331-.895-2.421-1.147l-3.605-.84c-1.982-.466-3.437-1.189-4.366-2.168-.922-.99-1.382-2.225-1.382-3.709 0-1.212.343-2.285 1.028-3.218.697-.933 1.639-1.665 2.833-2.197 1.2-.531 2.563-.797 4.083-.797 2.14 0 3.821.466 5.042 1.4 1.23.932 2.104 2.163 2.621 3.693Zm5.893 16.68V70.06h3.324v21.492h-3.324Zm1.69-25.075c-.649 0-1.207-.22-1.676-.658-.46-.438-.69-.965-.69-1.581s.23-1.143.69-1.581a2.37 2.37 0 0 1 1.676-.658c.648 0 1.202.22 1.662.658.469.438.704.965.704 1.58 0 .617-.235 1.144-.704 1.582a2.322 2.322 0 0 1-1.662.658Zm17.625 3.582v2.798h-11.211V70.06h11.211Zm-7.944-5.15h3.325v20.485c0 .933.136 1.633.407 2.1.283.456.639.764 1.071.923.442.15.906.224 1.394.224.368 0 .666-.019.901-.056l.563-.112.679 2.966a6.84 6.84 0 0 1-.945.252c-.403.093-.916.14-1.536.14-.938 0-1.858-.2-2.759-.602a5.475 5.475 0 0 1-2.226-1.833c-.582-.82-.874-1.856-.874-3.106v-21.38ZM191.669 92c-2.083 0-3.883-.457-5.394-1.371-1.501-.924-2.662-2.211-3.478-3.862-.807-1.66-1.212-3.592-1.212-5.793 0-2.202.405-4.142 1.212-5.821.816-1.689 1.952-3.004 3.407-3.946 1.464-.951 3.175-1.427 5.127-1.427 1.127 0 2.239.186 3.338.56 1.099.373 2.1.98 3.001 1.819.901.83 1.618 1.93 2.154 3.302.536 1.371.802 3.06.802 5.065v1.4h-16.675V79.07h13.296c0-1.213-.244-2.295-.734-3.246a5.488 5.488 0 0 0-2.055-2.253c-.883-.55-1.925-.826-3.127-.826-1.324 0-2.469.327-3.437.98a6.447 6.447 0 0 0-2.21 2.518 7.352 7.352 0 0 0-.775 3.33v1.904c0 1.623.281 2.999.844 4.127.573 1.12 1.368 1.973 2.382 2.56 1.014.58 2.191.868 3.534.868.874 0 1.662-.12 2.366-.363a5.065 5.065 0 0 0 1.846-1.12c.515-.504.915-1.129 1.196-1.875l3.212.896a7.065 7.065 0 0 1-1.704 2.854c-.798.812-1.784 1.446-2.959 1.903-1.173.448-2.492.672-3.957.672Zm26.61-.448V62.896h10.085c2.009 0 3.667.345 4.97 1.035 1.306.681 2.279 1.6 2.916 2.756.639 1.148.958 2.421.958 3.82 0 1.232-.22 2.249-.662 3.05-.432.803-1.004 1.438-1.717 1.904a7.85 7.85 0 0 1-2.297 1.035v.28c.883.056 1.77.364 2.662.924.892.56 1.64 1.361 2.24 2.406.6 1.045.901 2.323.901 3.834 0 1.437-.329 2.729-.986 3.876-.658 1.148-1.695 2.057-3.113 2.729-1.417.671-3.263 1.007-5.535 1.007h-10.422Zm3.493-3.078h6.929c2.281 0 3.902-.439 4.859-1.315.968-.887 1.45-1.96 1.45-3.219a5.09 5.09 0 0 0-.745-2.686c-.498-.83-1.207-1.493-2.126-1.987-.92-.504-2.01-.756-3.267-.756h-7.1v9.963Zm0-12.985h6.479c1.051 0 2-.205 2.844-.616.855-.41 1.531-.989 2.03-1.735.506-.746.759-1.623.759-2.63 0-1.26-.442-2.328-1.322-3.205-.883-.886-2.283-1.33-4.198-1.33h-6.592v9.516Zm35.982 7.276V70.06h3.322v21.492h-3.322v-3.638h-.226c-.508 1.091-1.296 2.02-2.368 2.785-1.069.755-2.421 1.133-4.056 1.133-1.351 0-2.554-.294-3.605-.882-1.05-.597-1.878-1.492-2.478-2.686-.6-1.203-.901-2.72-.901-4.548V70.06h3.324v13.432c0 1.568.442 2.818 1.322 3.75.892.933 2.028 1.4 3.41 1.4.825 0 1.667-.21 2.52-.63.864-.42 1.586-1.063 2.17-1.93.591-.868.888-1.974.888-3.317Zm9.907 8.787V70.06h3.322v21.492h-3.322Zm1.69-25.074c-.649 0-1.207-.22-1.676-.658-.46-.438-.69-.965-.69-1.581s.23-1.143.69-1.581a2.37 2.37 0 0 1 1.676-.658c.648 0 1.202.22 1.662.658.469.438.703.965.703 1.58 0 .617-.234 1.144-.703 1.582a2.322 2.322 0 0 1-1.662.658Zm11.541-3.582v28.656h-3.324V62.896h3.324ZM295.644 92c-1.803 0-3.394-.453-4.776-1.357-1.379-.915-2.46-2.202-3.239-3.862-.78-1.67-1.168-3.643-1.168-5.92 0-2.257.388-4.216 1.168-5.876.779-1.66 1.864-2.943 3.253-3.848 1.391-.905 2.996-1.357 4.817-1.357 1.409 0 2.522.233 3.338.7.828.456 1.456.979 1.888 1.567.441.578.784 1.054 1.028 1.427h.282V62.896h3.323v28.656h-3.21V88.25h-.395c-.244.392-.591.886-1.042 1.483-.45.588-1.094 1.115-1.929 1.581-.837.457-1.95.686-3.338.686Zm.45-2.966c1.334 0 2.461-.346 3.38-1.036.92-.7 1.621-1.665 2.099-2.896.479-1.241.718-2.673.718-4.296 0-1.605-.235-3.008-.704-4.212-.469-1.213-1.163-2.155-2.085-2.826-.92-.681-2.056-1.022-3.408-1.022-1.409 0-2.582.36-3.522 1.078-.929.709-1.628 1.674-2.097 2.896-.46 1.213-.689 2.575-.689 4.086 0 1.53.234 2.92.703 4.17.478 1.24 1.182 2.23 2.113 2.966.938.728 2.104 1.092 3.492 1.092ZM321.673 92c-2.084 0-3.881-.457-5.394-1.371-1.502-.924-2.66-2.211-3.479-3.862-.807-1.66-1.212-3.592-1.212-5.793 0-2.202.405-4.142 1.212-5.821.819-1.689 1.954-3.004 3.41-3.946 1.464-.951 3.173-1.427 5.125-1.427 1.126 0 2.239.186 3.338.56 1.099.373 2.099.98 3 1.819.902.83 1.619 1.93 2.155 3.302.535 1.371.802 3.06.802 5.065v1.4h-16.673V79.07h13.293c0-1.213-.243-2.295-.731-3.246a5.508 5.508 0 0 0-2.058-2.253c-.882-.55-1.924-.826-3.126-.826-1.322 0-2.47.327-3.435.98a6.452 6.452 0 0 0-2.212 2.518 7.34 7.34 0 0 0-.775 3.33v1.904c0 1.623.283 2.999.846 4.127.573 1.12 1.366 1.973 2.38 2.56 1.014.58 2.191.868 3.534.868.873 0 1.662-.12 2.368-.363a5.09 5.09 0 0 0 1.844-1.12c.517-.504.915-1.129 1.197-1.875l3.21.896a7.065 7.065 0 0 1-1.704 2.854c-.797.812-1.784 1.446-2.956 1.903-1.175.448-2.493.672-3.959.672Zm14.509-.448V70.06h3.212v3.246h.226c.393-1.064 1.108-1.926 2.14-2.589 1.033-.662 2.198-.993 3.493-.993.243 0 .549.005.915.014.368.01.643.023.832.042v3.358c-.113-.028-.372-.07-.775-.126a7.665 7.665 0 0 0-1.253-.098c-1.053 0-1.991.22-2.819.658a4.975 4.975 0 0 0-1.942 1.79c-.469.757-.704 1.62-.704 2.59v13.6h-3.325Z" fill="#5D8674"/><path d="M328.375 0h-48.75C268.234 0 259 9.178 259 20.5S268.234 41 279.625 41h48.75C339.766 41 349 31.822 349 20.5S339.766 0 328.375 0Z" fill="#FB6D33"/><path d="M276 29V11h6.075c1.211 0 2.21.217 2.996.65.786.428 1.372 1.005 1.756 1.732.386.72.579 1.52.579 2.4 0 .773-.134 1.412-.4 1.915a3.16 3.16 0 0 1-1.036 1.196c-.423.293-.885.51-1.384.65v.176c.533.035 1.069.228 1.604.58.538.351.988.855 1.351 1.512.361.656.542 1.459.542 2.408 0 .902-.197 1.714-.595 2.434-.395.721-1.02 1.292-1.875 1.714-.852.422-1.964.633-3.333.633H276Zm2.105-1.934h4.175c1.374 0 2.35-.275 2.927-.826.583-.556.873-1.23.873-2.021a3.325 3.325 0 0 0-1.73-2.935c-.554-.317-1.211-.475-1.969-.475h-4.276v6.257Zm0-8.156h3.903c.632 0 1.204-.129 1.714-.386a3.04 3.04 0 0 0 1.223-1.09c.303-.47.457-1.02.457-1.653 0-.79-.266-1.462-.797-2.013-.533-.556-1.374-.834-2.53-.834h-3.97v5.976ZM292.019 29V11h10.489v1.934h-8.384v6.082h7.84v1.933h-7.84v6.117h8.52V29h-10.625Zm13.809-16.066V11h13.035v1.934h-5.466V29h-2.105V12.934h-5.464ZM321.271 29h-2.206l6.381-18h2.171L334 29h-2.208l-5.193-15.152h-.135L321.271 29Zm.813-7.031h8.895v1.933h-8.895V21.97Z" fill="#fff"/></svg>