<svg width="42" height="70" fill="none" xmlns="http://www.w3.org/2000/svg"><mask id="a" style="mask-type:alpha" maskUnits="userSpaceOnUse" x="0" y="26" width="42" height="44"><rect y="26.539" width="41.56" height="43.018" rx="20.78" fill="#D9D9D9"/></mask><g mask="url(#a)"><path fill="url(#b)" d="M-2.029 11.229h43.587v72.912H-2.029z"/></g><path d="M26.139 46.552v1.197l-9.425-3.46V43.11l9.425-3.46v1.196l-7.934 2.816v.074l7.934 2.816Zm-3.682-.441v-4.823h1.013v4.823h-1.013Zm-5.743-9.233h9.425v1.142h-9.425v-1.142Zm9.425-9.165v2.908h-9.425v-3.037c0-.914.189-1.697.566-2.347a3.706 3.706 0 0 1 1.615-1.495c.7-.347 1.537-.52 2.513-.52.982 0 1.827.174 2.536.524.705.35 1.248.86 1.629 1.528.377.669.566 1.482.566 2.439Zm-1.013 1.767v-1.694c0-.779-.15-1.425-.45-1.937a2.78 2.78 0 0 0-1.285-1.146c-.555-.251-1.216-.377-1.983-.377-.76 0-1.416.124-1.965.373a2.75 2.75 0 0 0-1.27 1.113c-.298.494-.446 1.11-.446 1.846v1.822h7.4Zm1.16-11.06c0 .639-.152 1.199-.456 1.68a3.094 3.094 0 0 1-1.274 1.123c-.547.267-1.185.4-1.915.4-.736 0-1.379-.133-1.928-.4a3.089 3.089 0 0 1-1.28-1.122c-.303-.482-.455-1.042-.455-1.68 0-.638.152-1.197.456-1.675.303-.482.73-.856 1.28-1.123.548-.27 1.19-.405 1.927-.405.73 0 1.369.135 1.915.405.546.267.97.641 1.274 1.123.304.478.456 1.037.456 1.675Zm-.976 0c0-.484-.124-.883-.372-1.196a2.199 2.199 0 0 0-.98-.695 3.754 3.754 0 0 0-1.317-.225c-.472 0-.912.075-1.32.225-.409.15-.738.382-.99.695-.252.313-.377.712-.377 1.197 0 .485.125.883.377 1.196.252.313.582.545.99.695.407.15.848.226 1.32.226.473 0 .911-.076 1.316-.226.405-.15.732-.382.98-.695.25-.313.373-.712.373-1.196Zm.976-7.894c0 .663-.157 1.234-.47 1.712a3.059 3.059 0 0 1-1.293 1.105c-.549.258-1.176.386-1.882.386-.718 0-1.351-.131-1.9-.395a3.129 3.129 0 0 1-1.293-1.114c-.313-.479-.47-1.037-.47-1.675 0-.497.092-.945.276-1.344.184-.399.442-.725.773-.98a2.411 2.411 0 0 1 1.16-.474v1.086a1.684 1.684 0 0 0-.856.552c-.252.283-.377.663-.377 1.142 0 .423.11.794.331 1.113.218.316.526.563.925.741.396.175.86.262 1.394.262.547 0 1.022-.086 1.427-.257.405-.175.72-.42.943-.737.224-.319.336-.693.336-1.122 0-.283-.049-.539-.147-.769a1.585 1.585 0 0 0-.423-.584 1.623 1.623 0 0 0-.663-.341V7.747c.417.061.793.213 1.127.456.332.239.596.556.792.952.193.393.29.85.29 1.372ZM20.653.992l.276.975c-.162.061-.32.152-.474.272a1.317 1.317 0 0 0-.386.478c-.101.203-.152.462-.152.778 0 .433.1.793.3 1.081.195.286.445.428.75.428.27 0 .482-.098.639-.294.156-.197.287-.503.391-.92l.258-1.05c.153-.632.388-1.103.704-1.413.313-.31.716-.464 1.21-.464.405 0 .767.116 1.086.35.32.23.57.552.755.966.184.414.276.896.276 1.445 0 .72-.157 1.317-.47 1.79-.312.472-.77.771-1.37.897l-.259-1.03c.38-.099.666-.284.856-.557.19-.276.286-.637.286-1.082 0-.506-.108-.908-.322-1.205-.218-.301-.479-.451-.783-.451a.822.822 0 0 0-.616.257c-.17.172-.295.436-.378.792l-.276 1.178c-.153.647-.391 1.123-.713 1.426-.325.301-.732.451-1.22.451-.398 0-.751-.112-1.058-.336a2.286 2.286 0 0 1-.723-.925 3.247 3.247 0 0 1-.262-1.334c0-.7.154-1.249.46-1.648a2.481 2.481 0 0 1 1.215-.855Z" fill="#fff"/><defs><linearGradient id="b" x1="65.379" y1="-43.091" x2="-29.528" y2="-31.904" gradientUnits="userSpaceOnUse"><stop stop-color="#79AE95"/><stop offset=".13" stop-color="#9CDDBF"/><stop offset=".25" stop-color="#62A083"/><stop offset=".375" stop-color="#69A388"/><stop offset=".495" stop-color="#A2F1CC"/><stop offset=".615" stop-color="#83B89F"/><stop offset=".74" stop-color="#A8E4C9"/><stop offset=".87" stop-color="#7FB49B"/><stop offset="1" stop-color="#78A992"/></linearGradient></defs></svg>