<svg width="34" height="34" fill="none" xmlns="http://www.w3.org/2000/svg"><path d="m16.954 10.255-6.652 6.652 2.328 2.328 2.66-2.66v6.983h3.327v-6.984l2.66 2.66 2.328-2.327-6.651-6.652Zm0-9.976c2.3 0 4.462.436 6.485 1.31 2.023.872 3.783 2.057 5.28 3.553 1.496 1.497 2.68 3.257 3.553 5.28.873 2.023 1.31 4.185 1.31 6.485 0 2.3-.437 4.462-1.31 6.485-.873 2.023-2.057 3.783-3.554 5.28-1.496 1.496-3.256 2.681-5.28 3.555-2.022.872-4.184 1.308-6.484 1.308s-4.462-.436-6.485-1.308c-2.023-.874-3.783-2.06-5.28-3.556-1.496-1.496-2.68-3.256-3.553-5.28-.874-2.022-1.31-4.184-1.31-6.484s.436-4.462 1.31-6.485c.872-2.023 2.057-3.783 3.553-5.28 1.497-1.496 3.257-2.68 5.28-3.553 2.023-.874 4.184-1.31 6.485-1.31Zm0 3.325c-3.714 0-6.86 1.289-9.437 3.866-2.577 2.578-3.866 5.723-3.866 9.437 0 3.713 1.289 6.859 3.866 9.436 2.578 2.578 5.723 3.866 9.437 3.866 3.713 0 6.859-1.288 9.436-3.866 2.578-2.577 3.866-5.723 3.866-9.436 0-3.714-1.288-6.86-3.866-9.437-2.577-2.577-5.723-3.866-9.436-3.866Z" fill="#5D8674"/></svg>