<svg width="35" height="35" fill="none" xmlns="http://www.w3.org/2000/svg"><path d="m17.484 24.139 6.651-6.651-2.328-2.328-2.66 2.66v-6.984H15.82v6.984l-2.66-2.66-2.329 2.328 6.652 6.651Zm0 9.977c-2.3 0-4.462-.437-6.485-1.31-2.023-.873-3.783-2.057-5.28-3.554-1.496-1.496-2.68-3.256-3.553-5.28-.874-2.022-1.31-4.184-1.31-6.484s.436-4.462 1.31-6.485c.872-2.023 2.057-3.783 3.553-5.28C7.216 4.227 8.976 3.042 11 2.168c2.023-.872 4.184-1.309 6.485-1.309 2.3 0 4.462.437 6.485 1.309 2.023.874 3.783 2.059 5.28 3.555 1.496 1.497 2.68 3.257 3.553 5.28.873 2.023 1.31 4.184 1.31 6.485 0 2.3-.437 4.462-1.31 6.485-.873 2.023-2.057 3.783-3.554 5.28-1.496 1.496-3.256 2.68-5.28 3.553-2.022.873-4.184 1.31-6.484 1.31Zm0-3.326c3.713 0 6.859-1.288 9.436-3.866 2.578-2.577 3.866-5.723 3.866-9.436 0-3.714-1.288-6.86-3.866-9.437-2.577-2.577-5.723-3.866-9.436-3.866-3.714 0-6.86 1.289-9.437 3.866-2.577 2.578-3.866 5.723-3.866 9.437 0 3.713 1.289 6.859 3.866 9.436 2.578 2.578 5.723 3.866 9.437 3.866Z" fill="#FD804C"/></svg>