<svg width="35" height="35" fill="none" xmlns="http://www.w3.org/2000/svg"><path d="m21.027 23.14 2.132-9.161-3.206-.746-.853 3.664-3.69-5.929-2.824 1.758 3.69 5.929-3.664-.853-.746 3.207 9.161 2.131Zm5.273 8.47c-1.953 1.216-4.02 1.988-6.198 2.315-2.179.329-4.299.253-6.36-.227-2.062-.48-3.997-1.347-5.807-2.604-1.81-1.256-3.324-2.86-4.54-4.813-1.215-1.953-1.987-4.019-2.314-6.198-.328-2.179-.253-4.299.227-6.36S2.655 9.726 3.91 7.915c1.257-1.81 2.861-3.323 4.814-4.538 1.953-1.216 4.019-1.988 6.197-2.316 2.18-.328 4.3-.252 6.361.228s3.997 1.348 5.807 2.604c1.81 1.256 3.324 2.86 4.54 4.814 1.215 1.952 1.986 4.018 2.314 6.198.328 2.178.253 4.298-.227 6.36-.48 2.06-1.348 3.996-2.604 5.806s-2.86 3.324-4.813 4.54Zm-1.758-2.823c3.153-1.962 5.142-4.718 5.968-8.269.827-3.55.258-6.901-1.704-10.054-1.963-3.153-4.719-5.142-8.269-5.968-3.55-.826-6.901-.258-10.054 1.704C7.33 8.163 5.34 10.92 4.514 14.47c-.826 3.55-.258 6.9 1.705 10.053 1.962 3.153 4.719 5.143 8.269 5.969 3.55.826 6.901.258 10.054-1.705Z" fill="#FD804C"/></svg>