<svg width="35" height="35" fill="none" xmlns="http://www.w3.org/2000/svg"><path d="m24.136 17.485-6.651-6.651-2.328 2.328 2.66 2.66h-6.984v3.326h6.984l-2.66 2.66 2.328 2.328 6.651-6.651Zm9.977 0c0 2.3-.437 4.462-1.31 6.485-.873 2.023-2.057 3.783-3.554 5.28-1.496 1.496-3.256 2.68-5.28 3.553-2.022.873-4.184 1.31-6.484 1.31s-4.462-.437-6.485-1.31c-2.023-.872-3.783-2.057-5.28-3.553-1.496-1.497-2.681-3.257-3.555-5.28-.872-2.023-1.309-4.185-1.309-6.485 0-2.3.437-4.462 1.31-6.485.873-2.023 2.058-3.783 3.554-5.28C7.217 4.224 8.977 3.04 11 2.167c2.023-.874 4.184-1.31 6.485-1.31 2.3 0 4.462.436 6.485 1.31 2.023.872 3.783 2.057 5.28 3.553 1.496 1.497 2.68 3.257 3.553 5.28.873 2.023 1.31 4.185 1.31 6.485Zm-3.326 0c0-3.714-1.288-6.86-3.866-9.437-2.577-2.577-5.723-3.866-9.436-3.866-3.714 0-6.86 1.289-9.437 3.866-2.577 2.578-3.866 5.723-3.866 9.437 0 3.714 1.289 6.86 3.866 9.437 2.578 2.577 5.723 3.866 9.437 3.866 3.713 0 6.859-1.29 9.436-3.866 2.578-2.578 3.866-5.723 3.866-9.437Z" fill="#5D8674"/></svg>