<svg width="24" height="24" viewBox="0 0 24 24" fill="none" xmlns="http://www.w3.org/2000/svg">
<circle cx="12" cy="12" r="12" fill="#FD804C"/>
<path d="M9.575 14.4592L15.475 8.12157C15.6583 7.92464 15.8917 7.82617 16.175 7.82617C16.4583 7.82617 16.6917 7.92464 16.875 8.12157C17.0583 8.3185 17.15 8.56914 17.15 8.87349C17.15 9.17784 17.0583 9.42848 16.875 9.62541L10.275 16.7149C10.075 16.9298 9.84167 17.0372 9.575 17.0372C9.30833 17.0372 9.075 16.9298 8.875 16.7149L6.275 13.9221C6.09167 13.7252 6 13.4745 6 13.1702C6 12.8658 6.09167 12.6152 6.275 12.4183C6.45833 12.2213 6.69167 12.1229 6.975 12.1229C7.25833 12.1229 7.49167 12.2213 7.675 12.4183L9.575 14.4592Z" fill="#FEFEFE"/>
</svg>
